<?xml version="1.0" encoding="utf-8"?>
<!-- Generator: Adobe Illustrator 16.0.0, SVG Export Plug-In . SVG Version: 6.00 Build 0)  -->
<!DOCTYPE svg PUBLIC "-//W3C//DTD SVG 1.1//EN" "http://www.w3.org/Graphics/SVG/1.1/DTD/svg11.dtd">
<svg version="1.1" id="Capa_1" xmlns="http://www.w3.org/2000/svg" xmlns:xlink="http://www.w3.org/1999/xlink" x="0px" y="0px"
	 width="21.179px" height="20.642px" viewBox="1.411 1.679 21.179 20.642" enable-background="new 1.411 1.679 21.179 20.642"
	 xml:space="preserve">
<path fill="#0C4261" d="M15.047,2.28L2.108,14.431c-0.854,0.803-0.935,2.108-0.18,2.913l4.107,4.373
	c0.756,0.805,2.064,0.806,2.918,0.004L21.893,9.569c0.854-0.802,0.935-2.108,0.18-2.913l-4.107-4.374
	C17.21,1.479,15.9,1.478,15.047,2.28z M20.523,8.111L7.584,20.263c-0.042,0.039-0.081,0.054-0.093,0.065
	c-0.005,0.005-0.007,0.009-0.003,0.015l-4.08-4.326c-0.001-0.013,0.007-0.069,0.069-0.128l1.367-1.283l2.054,2.187l1.458-1.369
	l-2.054-2.187l1.458-1.37l2.738,2.916l1.458-1.369l-2.738-2.916l1.458-1.369l2.053,2.187l1.458-1.369l-2.054-2.187l1.458-1.369
	l2.738,2.916l1.458-1.369l-2.738-2.916l1.367-1.284c0.058-0.053,0.107-0.063,0.096-0.08l4.08,4.327
	C20.593,7.996,20.585,8.053,20.523,8.111z"/>
</svg>
