<?xml version="1.0" encoding="utf-8"?>
<!-- Generator: Adobe Illustrator 16.0.0, SVG Export Plug-In . SVG Version: 6.00 Build 0)  -->
<!DOCTYPE svg PUBLIC "-//W3C//DTD SVG 1.1//EN" "http://www.w3.org/Graphics/SVG/1.1/DTD/svg11.dtd">
<svg version="1.1" xmlns="http://www.w3.org/2000/svg" xmlns:xlink="http://www.w3.org/1999/xlink" x="0px" y="0px" width="450px"
	 height="450px" viewBox="0 0 450 450" enable-background="new 0 0 450 450" xml:space="preserve">
<g id="Layer_1">
	<image overflow="visible" width="450" height="450" xlink:href="F407CB8A.png" >
	</image>
</g>
<g id="Layer_3">
	<g>
		<defs>
			<filter id="Adobe_OpacityMaskFilter" filterUnits="userSpaceOnUse" x="42.157" y="294.645" width="401.685" height="132.711">
				<feColorMatrix  type="matrix" values="1 0 0 0 0  0 1 0 0 0  0 0 1 0 0  0 0 0 1 0"/>
			</filter>
		</defs>
		<mask maskUnits="userSpaceOnUse" x="42.157" y="294.645" width="401.685" height="132.711" id="SVGID_1_">
			<g filter="url(#Adobe_OpacityMaskFilter)">
				<defs>
					
						<filter id="Adobe_OpacityMaskFilter_1_" filterUnits="userSpaceOnUse" x="42.157" y="294.645" width="401.685" height="132.711">
						<feFlood  style="flood-color:white;flood-opacity:1" result="back"/>
						<feBlend  in="SourceGraphic" in2="back" mode="normal"/>
					</filter>
				</defs>
				<mask maskUnits="userSpaceOnUse" x="42.157" y="294.645" width="401.685" height="132.711" id="SVGID_1_">
					<g filter="url(#Adobe_OpacityMaskFilter_1_)">
					</g>
				</mask>
				
					<radialGradient id="SVGID_2_" cx="243" cy="788.2578" r="200.8379" fx="121.0026" fy="788.2587" gradientTransform="matrix(1 0 0 0.3304 0 100.5596)" gradientUnits="userSpaceOnUse">
					<stop  offset="0.8333" style="stop-color:#666666"/>
					<stop  offset="0.8411" style="stop-color:#5F5F5F"/>
					<stop  offset="0.8899" style="stop-color:#363636"/>
					<stop  offset="0.9344" style="stop-color:#181818"/>
					<stop  offset="0.9726" style="stop-color:#060606"/>
					<stop  offset="1" style="stop-color:#000000"/>
				</radialGradient>
				<ellipse mask="url(#SVGID_1_)" fill="url(#SVGID_2_)" cx="243" cy="361" rx="200.842" ry="66.355"/>
			</g>
		</mask>
		
			<radialGradient id="SVGID_3_" cx="243" cy="788.2578" r="200.8379" fx="121.0026" fy="788.2587" gradientTransform="matrix(1 0 0 0.3304 0 100.5596)" gradientUnits="userSpaceOnUse">
			<stop  offset="0.8333" style="stop-color:#000000"/>
			<stop  offset="1" style="stop-color:#000000"/>
		</radialGradient>
		<ellipse fill="url(#SVGID_3_)" cx="243" cy="361" rx="200.842" ry="66.355"/>
		<ellipse fill="#E5E5E5" cx="225.597" cy="350" rx="183.176" ry="60.519"/>
		<defs>
			<filter id="Adobe_OpacityMaskFilter_2_" filterUnits="userSpaceOnUse" x="42.421" y="289.481" width="366.352" height="123.352">
				<feColorMatrix  type="matrix" values="1 0 0 0 0  0 1 0 0 0  0 0 1 0 0  0 0 0 1 0"/>
			</filter>
		</defs>
		<mask maskUnits="userSpaceOnUse" x="42.421" y="289.481" width="366.352" height="123.352" id="SVGID_4_">
			<g filter="url(#Adobe_OpacityMaskFilter_2_)">
				<linearGradient id="SVGID_5_" gradientUnits="userSpaceOnUse" x1="225.5972" y1="412.833" x2="225.5972" y2="289.4814">
					<stop  offset="0" style="stop-color:#FFFFFF"/>
					<stop  offset="1" style="stop-color:#424242"/>
				</linearGradient>
				<ellipse fill="url(#SVGID_5_)" cx="225.597" cy="351.158" rx="183.176" ry="61.677"/>
			</g>
		</mask>
		
			<radialGradient id="SVGID_6_" cx="225.5967" cy="750.7422" r="183.1763" gradientTransform="matrix(1 0 0 0.3367 0 98.3826)" gradientUnits="userSpaceOnUse">
			<stop  offset="0.98" style="stop-color:#696969"/>
			<stop  offset="1" style="stop-color:#545454"/>
		</radialGradient>
		<ellipse opacity="0.2" mask="url(#SVGID_4_)" fill="url(#SVGID_6_)" cx="225.597" cy="351.158" rx="183.176" ry="61.677"/>
		<defs>
			<filter id="Adobe_OpacityMaskFilter_3_" filterUnits="userSpaceOnUse" x="42.421" y="289.481" width="366.352" height="121.037">
				<feColorMatrix  type="matrix" values="1 0 0 0 0  0 1 0 0 0  0 0 1 0 0  0 0 0 1 0"/>
			</filter>
		</defs>
		<mask maskUnits="userSpaceOnUse" x="42.421" y="289.481" width="366.352" height="121.037" id="SVGID_7_">
			<g filter="url(#Adobe_OpacityMaskFilter_3_)">
				<linearGradient id="SVGID_8_" gradientUnits="userSpaceOnUse" x1="225.5972" y1="410.5186" x2="225.5972" y2="289.4814">
					<stop  offset="0.3535" style="stop-color:#000000"/>
					<stop  offset="1" style="stop-color:#FFFFFF"/>
				</linearGradient>
				<ellipse fill="url(#SVGID_8_)" cx="225.597" cy="350" rx="183.176" ry="60.519"/>
			</g>
		</mask>
		
			<radialGradient id="SVGID_9_" cx="225.5967" cy="754.9648" r="183.1719" gradientTransform="matrix(1 0 0 0.3304 0 100.5596)" gradientUnits="userSpaceOnUse">
			<stop  offset="0.6" style="stop-color:#FFFFFF"/>
			<stop  offset="0.62" style="stop-color:#4A4A4A"/>
			<stop  offset="0.6515" style="stop-color:#000000"/>
			<stop  offset="0.68" style="stop-color:#141414"/>
			<stop  offset="0.7" style="stop-color:#FFFFFF"/>
		</radialGradient>
		<ellipse opacity="0.2" mask="url(#SVGID_7_)" fill="url(#SVGID_9_)" cx="225.597" cy="350" rx="183.176" ry="60.519"/>
		<defs>
			<filter id="Adobe_OpacityMaskFilter_4_" filterUnits="userSpaceOnUse" x="42.421" y="289.481" width="366.352" height="121.037">
				<feColorMatrix  type="matrix" values="1 0 0 0 0  0 1 0 0 0  0 0 1 0 0  0 0 0 1 0"/>
			</filter>
		</defs>
		<mask maskUnits="userSpaceOnUse" x="42.421" y="289.481" width="366.352" height="121.037" id="SVGID_10_">
			<g filter="url(#Adobe_OpacityMaskFilter_4_)">
				
					<linearGradient id="SVGID_11_" gradientUnits="userSpaceOnUse" x1="225.5967" y1="160.5181" x2="225.5967" y2="39.481" gradientTransform="matrix(1 0 0 -1 0 450)">
					<stop  offset="0.4545" style="stop-color:#000000"/>
					<stop  offset="0.5101" style="stop-color:#0F0F0F"/>
					<stop  offset="0.8737" style="stop-color:#FFFFFF"/>
					<stop  offset="1" style="stop-color:#FFFFFF"/>
				</linearGradient>
				<ellipse fill="url(#SVGID_11_)" cx="225.597" cy="350" rx="183.176" ry="60.519"/>
			</g>
		</mask>
		
			<radialGradient id="SVGID_12_" cx="225.5967" cy="-305.6992" r="183.1719" gradientTransform="matrix(1 0 0 -0.3304 0 248.9966)" gradientUnits="userSpaceOnUse">
			<stop  offset="0.6" style="stop-color:#000000"/>
			<stop  offset="0.62" style="stop-color:#FFFFFF"/>
			<stop  offset="0.6313" style="stop-color:#CCCCCC"/>
			<stop  offset="0.6566" style="stop-color:#7A7A7A"/>
			<stop  offset="0.68" style="stop-color:#FFFFFF"/>
			<stop  offset="0.7" style="stop-color:#000000"/>
		</radialGradient>
		<ellipse mask="url(#SVGID_10_)" fill="url(#SVGID_12_)" cx="225.597" cy="350" rx="183.176" ry="60.519"/>
		<defs>
			<filter id="Adobe_OpacityMaskFilter_5_" filterUnits="userSpaceOnUse" x="42.421" y="289.481" width="366.352" height="121.037">
				<feColorMatrix  type="matrix" values="1 0 0 0 0  0 1 0 0 0  0 0 1 0 0  0 0 0 1 0"/>
			</filter>
		</defs>
		<mask maskUnits="userSpaceOnUse" x="42.421" y="289.481" width="366.352" height="121.037" id="SVGID_13_">
			<g filter="url(#Adobe_OpacityMaskFilter_5_)">
				<linearGradient id="SVGID_14_" gradientUnits="userSpaceOnUse" x1="225.5972" y1="410.5186" x2="225.5972" y2="289.4814">
					<stop  offset="0.6414" style="stop-color:#000000"/>
					<stop  offset="1" style="stop-color:#FFFFFF"/>
				</linearGradient>
				<ellipse fill="url(#SVGID_14_)" cx="225.597" cy="350" rx="183.176" ry="60.519"/>
			</g>
		</mask>
		
			<radialGradient id="SVGID_15_" cx="225.5967" cy="754.9648" r="183.1719" gradientTransform="matrix(1 0 0 0.3304 0 100.5596)" gradientUnits="userSpaceOnUse">
			<stop  offset="0.8939" style="stop-color:#FFFFFF"/>
			<stop  offset="1" style="stop-color:#141414"/>
		</radialGradient>
		<ellipse opacity="0.08" mask="url(#SVGID_13_)" fill="url(#SVGID_15_)" cx="225.597" cy="350" rx="183.176" ry="60.519"/>
		<defs>
			<filter id="Adobe_OpacityMaskFilter_6_" filterUnits="userSpaceOnUse" x="42.421" y="289.481" width="366.352" height="121.037">
				<feColorMatrix  type="matrix" values="1 0 0 0 0  0 1 0 0 0  0 0 1 0 0  0 0 0 1 0"/>
			</filter>
		</defs>
		<mask maskUnits="userSpaceOnUse" x="42.421" y="289.481" width="366.352" height="121.037" id="SVGID_16_">
			<g filter="url(#Adobe_OpacityMaskFilter_6_)">
				
					<linearGradient id="SVGID_17_" gradientUnits="userSpaceOnUse" x1="225.5967" y1="160.5181" x2="225.5967" y2="39.481" gradientTransform="matrix(1 0 0 -1 0 450)">
					<stop  offset="0.5404" style="stop-color:#000000"/>
					<stop  offset="0.5909" style="stop-color:#696969"/>
					<stop  offset="1" style="stop-color:#FFFFFF"/>
				</linearGradient>
				<ellipse fill="url(#SVGID_17_)" cx="225.597" cy="350" rx="183.176" ry="60.519"/>
			</g>
		</mask>
		
			<radialGradient id="SVGID_18_" cx="225.5967" cy="-305.6992" r="183.1719" gradientTransform="matrix(1 0 0 -0.3304 0 248.9966)" gradientUnits="userSpaceOnUse">
			<stop  offset="0.6364" style="stop-color:#000000"/>
			<stop  offset="0.7929" style="stop-color:#FFFFFF"/>
			<stop  offset="0.9293" style="stop-color:#FFFFFF"/>
			<stop  offset="1" style="stop-color:#000000"/>
		</radialGradient>
		<ellipse opacity="0.6" mask="url(#SVGID_16_)" fill="url(#SVGID_18_)" cx="225.597" cy="350" rx="183.176" ry="60.519"/>
		<image overflow="visible" width="217" height="39" xlink:href="F407CB8E.png"  transform="matrix(1 0 0 1 117 324)">
		</image>
		<defs>
			<filter id="Adobe_OpacityMaskFilter_7_" filterUnits="userSpaceOnUse" x="42.421" y="289.481" width="366.352" height="121.037">
				<feColorMatrix  type="matrix" values="1 0 0 0 0  0 1 0 0 0  0 0 1 0 0  0 0 0 1 0"/>
			</filter>
		</defs>
		<mask maskUnits="userSpaceOnUse" x="42.421" y="289.481" width="366.352" height="121.037" id="SVGID_19_">
			<g filter="url(#Adobe_OpacityMaskFilter_7_)">
				<linearGradient id="SVGID_20_" gradientUnits="userSpaceOnUse" x1="225.5972" y1="410.5186" x2="225.5972" y2="289.4814">
					<stop  offset="0.6566" style="stop-color:#000000"/>
					<stop  offset="1" style="stop-color:#FFFFFF"/>
				</linearGradient>
				<ellipse fill="url(#SVGID_20_)" cx="225.597" cy="350" rx="183.176" ry="60.519"/>
			</g>
		</mask>
		
			<radialGradient id="SVGID_21_" cx="225.5967" cy="754.9648" r="183.1719" gradientTransform="matrix(1 0 0 0.3304 0 100.5596)" gradientUnits="userSpaceOnUse">
			<stop  offset="0.96" style="stop-color:#000000"/>
			<stop  offset="0.98" style="stop-color:#FFFFFF"/>
			<stop  offset="1" style="stop-color:#000000"/>
		</radialGradient>
		<ellipse opacity="0.75" mask="url(#SVGID_19_)" fill="url(#SVGID_21_)" cx="225.597" cy="350" rx="183.176" ry="60.519"/>
	</g>
</g>
<g id="Layer_2">
	<g>
		<path opacity="0.07" d="M64.242,202.155c1.633-9.963,79.193-12.569,171.85,2.621c92.656,15.19,165.396,41.982,163.69,52.389
			c-0.047,0.288-0.129,0.569-0.227,0.847c0.497-0.675,0.821-1.385,0.944-2.135c1.638-9.986-71.419-36.229-164.349-51.465
			c-92.929-15.235-170.611-13.268-172.178-3.707c-0.123,0.75-0.043,1.526,0.213,2.323C64.182,202.734,64.194,202.443,64.242,202.155
			z"/>
		<image overflow="visible" width="340" height="195" xlink:href="F407CB89.png"  transform="matrix(1 0 0 1 63 73)">
		</image>
		<g>
			
				<linearGradient id="SVGID_22_" gradientUnits="userSpaceOnUse" x1="28.3325" y1="151.6006" x2="145.9521" y2="151.6006" gradientTransform="matrix(-0.9868 -0.1618 -0.1618 0.9868 459.5107 37.1553)">
				<stop  offset="0" style="stop-color:#4D4D4D"/>
				<stop  offset="1" style="stop-color:#858585"/>
			</linearGradient>
			<path fill="url(#SVGID_22_)" d="M394.515,250.6c-0.585,0.354-1.382,0.761-2.463,1.193c-2.393,0.955-4.092-0.82-3.771-3.582
				c7.939-68.375-27.528-126.452-85.735-155.749c64.242,29.046,103.834,87.604,93.787,154.907
				C396.168,248.47,395.436,250.044,394.515,250.6z"/>
			
				<linearGradient id="SVGID_23_" gradientUnits="userSpaceOnUse" x1="238.7412" y1="153.3799" x2="357.3711" y2="153.3799" gradientTransform="matrix(-0.9868 -0.1618 -0.1618 0.9868 459.5107 37.1553)">
				<stop  offset="0" style="stop-color:#4D4D4D"/>
				<stop  offset="1" style="stop-color:#858585"/>
			</linearGradient>
			<path fill="url(#SVGID_23_)" d="M73.719,203.21c-0.882-0.747-1.507-1.379-1.949-1.894c-0.703-0.816-0.912-2.533-0.716-3.626
				C83.028,130.645,140.825,84.463,210.98,77.45c-64.499,9.175-118.223,56.193-132.554,123.554
				C77.85,203.722,75.678,204.867,73.719,203.21z"/>
		</g>
		<g opacity="0.5">
			
				<linearGradient id="SVGID_24_" gradientUnits="userSpaceOnUse" x1="87.5229" y1="239.0811" x2="428.5508" y2="239.0811" gradientTransform="matrix(0.9868 0.1618 -0.1618 0.9868 14.022 -35.5547)">
				<stop  offset="0" style="stop-color:#3D3D3D"/>
				<stop  offset="0.5" style="stop-color:#5C5C5C"/>
				<stop  offset="1" style="stop-color:#3D3D3D"/>
			</linearGradient>
			<path fill="url(#SVGID_24_)" d="M228.053,253.81c-92.5-15.165-165.671-38.971-164.029-53.31
				c-0.067,0.388-0.144,0.772-0.208,1.162c-2.437,14.865,70.921,39.268,163.851,54.503c92.93,15.234,170.239,15.534,172.677,0.668
				c0.063-0.389,0.113-0.777,0.174-1.167C397.495,269.778,320.554,268.975,228.053,253.81z"/>
		</g>
		<defs>
			<filter id="Adobe_OpacityMaskFilter_8_" filterUnits="userSpaceOnUse" x="134.411" y="72.458" width="43.118" height="43.118">
				<feColorMatrix  type="matrix" values="1 0 0 0 0  0 1 0 0 0  0 0 1 0 0  0 0 0 1 0"/>
			</filter>
		</defs>
		<mask maskUnits="userSpaceOnUse" x="134.411" y="72.458" width="43.118" height="43.118" id="SVGID_25_">
			<g filter="url(#Adobe_OpacityMaskFilter_8_)">
				<defs>
					<filter id="Adobe_OpacityMaskFilter_9_" filterUnits="userSpaceOnUse" x="134.411" y="72.458" width="43.118" height="43.118">
						<feFlood  style="flood-color:white;flood-opacity:1" result="back"/>
						<feBlend  in="SourceGraphic" in2="back" mode="normal"/>
					</filter>
				</defs>
				<mask maskUnits="userSpaceOnUse" x="134.411" y="72.458" width="43.118" height="43.118" id="SVGID_25_">
					<g filter="url(#Adobe_OpacityMaskFilter_9_)">
					</g>
				</mask>
				
					<radialGradient id="SVGID_26_" cx="161.0469" cy="104.8994" r="21.5559" gradientTransform="matrix(0.9868 0.1618 -0.1618 0.9868 14.022 -35.5547)" gradientUnits="userSpaceOnUse">
					<stop  offset="0.1212" style="stop-color:#FFFFFF"/>
					<stop  offset="0.2646" style="stop-color:#BFBFBF"/>
					<stop  offset="0.4098" style="stop-color:#868686"/>
					<stop  offset="0.5506" style="stop-color:#565656"/>
					<stop  offset="0.6835" style="stop-color:#313131"/>
					<stop  offset="0.8064" style="stop-color:#161616"/>
					<stop  offset="0.9156" style="stop-color:#060606"/>
					<stop  offset="1" style="stop-color:#000000"/>
				</radialGradient>
				<circle mask="url(#SVGID_25_)" fill="url(#SVGID_26_)" cx="155.97" cy="94.018" r="21.556"/>
			</g>
		</mask>
		
			<radialGradient id="SVGID_27_" cx="161.0469" cy="104.8994" r="21.5559" gradientTransform="matrix(0.9868 0.1618 -0.1618 0.9868 14.022 -35.5547)" gradientUnits="userSpaceOnUse">
			<stop  offset="0.1212" style="stop-color:#FFFFFF"/>
			<stop  offset="1" style="stop-color:#FFFFFF"/>
		</radialGradient>
		<circle fill="url(#SVGID_27_)" cx="155.97" cy="94.018" r="21.556"/>
		<g>
			<defs>
				<filter id="Adobe_OpacityMaskFilter_10_" filterUnits="userSpaceOnUse" x="247.802" y="47.622" width="24.15" height="24.149">
					<feColorMatrix  type="matrix" values="1 0 0 0 0  0 1 0 0 0  0 0 1 0 0  0 0 0 1 0"/>
				</filter>
			</defs>
			<mask maskUnits="userSpaceOnUse" x="247.802" y="47.622" width="24.15" height="24.149" id="SVGID_28_">
				<g filter="url(#Adobe_OpacityMaskFilter_10_)">
					
						<radialGradient id="SVGID_29_" cx="258.0293" cy="48.3506" r="16.6755" gradientTransform="matrix(0.9985 0.0545 -0.0545 0.9985 5.2773 -10.1338)" gradientUnits="userSpaceOnUse">
						<stop  offset="0.1414" style="stop-color:#020202"/>
						<stop  offset="0.4747" style="stop-color:#393939"/>
						<stop  offset="0.7778" style="stop-color:#CCCCCC"/>
						<stop  offset="0.8485" style="stop-color:#6F6F6F"/>
						<stop  offset="0.9495" style="stop-color:#0F0F0F"/>
						<stop  offset="1" style="stop-color:#CCCCCC"/>
					</radialGradient>
					<circle fill="url(#SVGID_29_)" cx="259.877" cy="59.697" r="12.075"/>
				</g>
			</mask>
			<circle opacity="0.25" mask="url(#SVGID_28_)" cx="259.877" cy="59.697" r="12.075"/>
			<image overflow="visible" width="20" height="10" xlink:href="F407CB8B.png"  transform="matrix(1 0 0 1 247 70)">
			</image>
			<path opacity="0.05" d="M257.06,76.881c4.889,0.802,8.838,2.09,9.578,2.674c0.109-0.051,0.182-0.111,0.193-0.182
				c0.073-0.446-4.264-1.794-9.739-2.691c-5.475-0.898-10.019-0.987-10.089-0.559c-0.012,0.072,0.039,0.151,0.128,0.237
				C248.027,76.054,252.179,76.081,257.06,76.881z"/>
			
				<linearGradient id="SVGID_30_" gradientUnits="userSpaceOnUse" x1="258.0332" y1="74.0786" x2="258.0332" y2="65.8252" gradientTransform="matrix(0.9868 0.1618 -0.1618 0.9868 14.022 -35.5547)">
				<stop  offset="0.7222" style="stop-color:#FFFFFF"/>
				<stop  offset="0.8485" style="stop-color:#C9C9C9"/>
				<stop  offset="1" style="stop-color:#7D7D7D"/>
			</linearGradient>
			<path fill="url(#SVGID_30_)" d="M260.875,71.623c-0.961,0.042-1.939-0.009-2.928-0.17c-0.984-0.162-1.928-0.424-2.822-0.771
				c-4.34,0.954-8.04,4.943-8.115,5.404c-0.144,0.875,4.179,2.313,9.653,3.211c5.476,0.897,10.03,0.915,10.174,0.04
				C266.916,78.854,264.682,73.906,260.875,71.623z"/>
			<g>
				
					<linearGradient id="SVGID_31_" gradientUnits="userSpaceOnUse" x1="248.7539" y1="69.6201" x2="255.4766" y2="69.6201" gradientTransform="matrix(0.9868 0.1618 -0.1618 0.9868 14.022 -35.5547)">
					<stop  offset="0" style="stop-color:#4D4D4D"/>
					<stop  offset="1" style="stop-color:#858585"/>
				</linearGradient>
				<path fill="url(#SVGID_31_)" d="M255.422,71.071c-0.043-0.016-0.087-0.027-0.129-0.043c-4.007,0.881-7.425,4.566-7.495,4.991
					c-0.049,0.299,0.469,0.669,1.393,1.059C249.689,76.078,252.386,72.38,255.422,71.071z"/>
				
					<linearGradient id="SVGID_32_" gradientUnits="userSpaceOnUse" x1="260.5928" y1="69.6191" x2="267.3115" y2="69.6191" gradientTransform="matrix(0.9868 0.1618 -0.1618 0.9868 14.022 -35.5547)">
					<stop  offset="0" style="stop-color:#4D4D4D"/>
					<stop  offset="1" style="stop-color:#858585"/>
				</linearGradient>
				<path fill="url(#SVGID_32_)" d="M260.604,71.897c-0.044,0.002-0.091-0.002-0.134,0c2.461,2.208,3.836,6.568,3.983,7.683
					c0.999-0.074,1.607-0.26,1.656-0.559C266.184,78.577,264.121,74.007,260.604,71.897z"/>
			</g>
			<path fill="#666666" d="M258.029,70.955c1.033,0.169,1.993,0.395,2.844,0.644c-0.803-0.349-1.757-0.651-2.814-0.825
				c-1.042-0.17-2.029-0.187-2.894-0.111C256.041,70.698,257.012,70.789,258.029,70.955z"/>
			
				<linearGradient id="SVGID_33_" gradientUnits="userSpaceOnUse" x1="258.0293" y1="73.2729" x2="258.0293" y2="68.9141" gradientTransform="matrix(0.9868 0.1618 -0.1618 0.9868 14.022 -35.5547)">
				<stop  offset="0" style="stop-color:#4D4D4D"/>
				<stop  offset="1" style="stop-color:#858585"/>
			</linearGradient>
			<path fill="url(#SVGID_33_)" d="M256.791,78.5c-1.666-0.273-3.231-0.605-4.408-0.934c-1.667-0.467-1.754-0.703-1.754-0.705
				c0.244-1.487,1.686-2.589,3.632-3.003c0.998-0.212,1.973,0.713,3.143,0.905c1.035,0.17,2.144-0.461,2.956-0.029
				c1.899,1.009,3.052,2.605,2.794,4.182c0,0-0.158,0.196-1.887,0.106C260.047,78.959,258.456,78.773,256.791,78.5z"/>
			
				<linearGradient id="SVGID_34_" gradientUnits="userSpaceOnUse" x1="248.001" y1="50.0811" x2="268.0645" y2="50.0811" gradientTransform="matrix(0.9868 0.1618 -0.1618 0.9868 14.022 -35.5547)">
				<stop  offset="0" style="stop-color:#4D4D4D"/>
				<stop  offset="1" style="stop-color:#858585"/>
			</linearGradient>
			<path fill="url(#SVGID_34_)" d="M261.701,48.569c-5.467-0.896-10.626,2.809-11.522,8.276c-0.148,0.908-0.159,1.806-0.066,2.679
				c1.956,1.297,5.334,2.491,9.278,3.137s7.525,0.594,9.795-0.011c0.366-0.797,0.643-1.652,0.792-2.56
				C270.873,54.624,267.168,49.465,261.701,48.569z"/>
			<path opacity="0.4" d="M256.742,78.818c-4.705-0.771-9.72-2.813-9.732-2.733c-0.144,0.875,4.179,2.313,9.653,3.211
				c5.476,0.897,10.03,0.915,10.174,0.04C266.851,79.252,261.45,79.59,256.742,78.818z"/>
		</g>
		
			<linearGradient id="SVGID_35_" gradientUnits="userSpaceOnUse" x1="192.3423" y1="246.0244" x2="192.3423" y2="74.6909" gradientTransform="matrix(-0.9868 -0.1618 -0.1618 0.9868 459.5107 37.1553)">
			<stop  offset="0" style="stop-color:#4D4D4D"/>
			<stop  offset="1" style="stop-color:#858585"/>
		</linearGradient>
		<path fill="url(#SVGID_35_)" d="M229.898,248.811c39.577,6.488,77.477,9.983,106.713,9.844
			c41.467-0.202,45.643-7.544,45.674-7.619C394.732,175.076,346.94,102.76,273.867,82.49c-5.247-1.456-11.095,0.225-16.591-0.676
			c-4.815-0.79-11.214-3.568-15.985-3.892c-76.522-5.192-144.915,53.63-157.489,130.327c0.01,0.015,2.513,2.878,41.744,16.31
			C153.208,234.026,190.32,242.322,229.898,248.811z"/>
		<defs>
			<filter id="Adobe_OpacityMaskFilter_11_" filterUnits="userSpaceOnUse" x="241.338" y="74.935" width="30.183" height="5.906">
				<feColorMatrix  type="matrix" values="1 0 0 0 0  0 1 0 0 0  0 0 1 0 0  0 0 0 1 0"/>
			</filter>
		</defs>
		<mask maskUnits="userSpaceOnUse" x="241.338" y="74.935" width="30.183" height="5.906" id="SVGID_36_">
			<g filter="url(#Adobe_OpacityMaskFilter_11_)">
				<defs>
					<filter id="Adobe_OpacityMaskFilter_12_" filterUnits="userSpaceOnUse" x="241.338" y="74.935" width="30.183" height="5.906">
						<feFlood  style="flood-color:white;flood-opacity:1" result="back"/>
						<feBlend  in="SourceGraphic" in2="back" mode="normal"/>
					</filter>
				</defs>
				<mask maskUnits="userSpaceOnUse" x="241.338" y="74.935" width="30.183" height="5.906" id="SVGID_36_">
					<g filter="url(#Adobe_OpacityMaskFilter_12_)">
					</g>
				</mask>
				
					<radialGradient id="SVGID_37_" cx="259.6416" cy="-1201.9453" r="17.6753" gradientTransform="matrix(0.8535 0.1399 -0.0149 0.0912 16.916 151.1813)" gradientUnits="userSpaceOnUse">
					<stop  offset="0" style="stop-color:#000000"/>
					<stop  offset="0.5152" style="stop-color:#7A7A7A"/>
					<stop  offset="1" style="stop-color:#000000"/>
				</radialGradient>
				<path mask="url(#SVGID_36_)" fill="url(#SVGID_37_)" d="M271.519,80.362c-0.146,0.89-7.019,0.504-15.354-0.862
					c-8.334-1.366-14.972-3.195-14.825-4.085c0.146-0.891,7.021-0.504,15.354,0.862C265.028,77.643,271.665,79.471,271.519,80.362z"
					/>
			</g>
		</mask>
		
			<ellipse transform="matrix(0.9868 0.1618 -0.1618 0.9868 15.9797 -40.4612)" opacity="0.4" cx="256.429" cy="77.888" rx="15.291" ry="1.633"/>
		<defs>
			<filter id="Adobe_OpacityMaskFilter_13_" filterUnits="userSpaceOnUse" x="246.308" y="43.905" width="20.516" height="20.515">
				<feColorMatrix  type="matrix" values="1 0 0 0 0  0 1 0 0 0  0 0 1 0 0  0 0 0 1 0"/>
			</filter>
		</defs>
		<mask maskUnits="userSpaceOnUse" x="246.308" y="43.905" width="20.516" height="20.515" id="SVGID_38_">
			<g filter="url(#Adobe_OpacityMaskFilter_13_)">
				<defs>
					
						<filter id="Adobe_OpacityMaskFilter_14_" filterUnits="userSpaceOnUse" x="246.308" y="43.905" width="20.516" height="20.515">
						<feFlood  style="flood-color:white;flood-opacity:1" result="back"/>
						<feBlend  in="SourceGraphic" in2="back" mode="normal"/>
					</filter>
				</defs>
				<mask maskUnits="userSpaceOnUse" x="246.308" y="43.905" width="20.516" height="20.515" id="SVGID_38_">
					<g filter="url(#Adobe_OpacityMaskFilter_14_)">
					</g>
				</mask>
				
					<radialGradient id="SVGID_39_" cx="253.8691" cy="49.291" r="10.2566" gradientTransform="matrix(0.9868 0.1618 -0.1618 0.9868 14.022 -35.5547)" gradientUnits="userSpaceOnUse">
					<stop  offset="0.4495" style="stop-color:#FFFFFF"/>
					<stop  offset="0.5393" style="stop-color:#BFBFBF"/>
					<stop  offset="0.6303" style="stop-color:#868686"/>
					<stop  offset="0.7185" style="stop-color:#565656"/>
					<stop  offset="0.8017" style="stop-color:#313131"/>
					<stop  offset="0.8787" style="stop-color:#161616"/>
					<stop  offset="0.9471" style="stop-color:#060606"/>
					<stop  offset="1" style="stop-color:#000000"/>
				</radialGradient>
				<circle mask="url(#SVGID_38_)" fill="url(#SVGID_39_)" cx="256.565" cy="54.162" r="10.256"/>
			</g>
		</mask>
		
			<radialGradient id="SVGID_40_" cx="253.8691" cy="49.291" r="10.2566" gradientTransform="matrix(0.9868 0.1618 -0.1618 0.9868 14.022 -35.5547)" gradientUnits="userSpaceOnUse">
			<stop  offset="0.4495" style="stop-color:#FFFFFF"/>
			<stop  offset="1" style="stop-color:#FFFFFF"/>
		</radialGradient>
		<circle fill="url(#SVGID_40_)" cx="256.565" cy="54.162" r="10.256"/>
	</g>
</g>
</svg>
