<?xml version="1.0" encoding="utf-8"?>
<!-- Generator: Adobe Illustrator 16.0.0, SVG Export Plug-In . SVG Version: 6.00 Build 0)  -->
<!DOCTYPE svg PUBLIC "-//W3C//DTD SVG 1.1//EN" "http://www.w3.org/Graphics/SVG/1.1/DTD/svg11.dtd">
<svg version="1.1" id="Capa_1" xmlns="http://www.w3.org/2000/svg" xmlns:xlink="http://www.w3.org/1999/xlink" x="0px" y="0px"
	 width="81.736px" height="24px" viewBox="0 0 81.736 24" enable-background="new 0 0 81.736 24" xml:space="preserve">
<path fill="#0C4261" d="M15.136,3.034c2.144,0,4.162,0.917,5.692,2.584l2.208-2.024c-2.104-2.293-4.908-3.555-7.9-3.555
	S9.341,1.301,7.241,3.596C6.191,4.74,5.384,6.075,4.84,7.527H0.965v2.995H4.13c-0.056,0.495-0.097,0.993-0.097,1.498
	c0,0.505,0.041,1.003,0.097,1.498H0.965v2.996H4.84c0.544,1.452,1.352,2.784,2.401,3.932C9.341,22.734,12.144,24,15.136,24
	s5.797-1.266,7.897-3.557l-2.208-2.025c-1.527,1.669-3.546,2.587-5.689,2.587c-2.141,0-4.159-0.915-5.686-2.587
	c-0.523-0.568-0.937-1.223-1.297-1.904h6.289v-2.996H7.163c-0.076-0.492-0.136-0.988-0.136-1.498c0-0.509,0.06-1.006,0.136-1.498
	h7.279V7.527H8.154c0.36-0.684,0.772-1.338,1.297-1.908C10.977,3.951,12.995,3.034,15.136,3.034z"/>
<path fill="#0C4261" d="M44.968,3.034c2.144,0,4.162,0.917,5.692,2.584l2.208-2.024c-2.104-2.293-4.908-3.555-7.9-3.555
	s-5.794,1.262-7.895,3.557c-1.051,1.144-1.857,2.479-2.401,3.931h-3.875v2.995h3.165c-0.057,0.495-0.097,0.993-0.097,1.498
	c0,0.505,0.04,1.003,0.097,1.498h-3.165v2.996h3.875c0.544,1.452,1.352,2.784,2.401,3.932c2.1,2.291,4.901,3.556,7.895,3.556
	s5.797-1.265,7.897-3.556l-2.208-2.026c-1.527,1.669-3.546,2.587-5.689,2.587c-2.141,0-4.159-0.915-5.686-2.587
	c-0.523-0.569-0.937-1.222-1.297-1.905h6.289V13.52h-7.279c-0.076-0.492-0.136-0.99-0.136-1.499c0-0.509,0.06-1.006,0.136-1.498
	h7.279V7.527h-6.289c0.36-0.684,0.772-1.338,1.297-1.908C40.809,3.951,42.827,3.034,44.968,3.034z"/>
<path fill="#0C4261" d="M74.802,3.034c2.145,0,4.162,0.917,5.691,2.584l2.209-2.024c-2.104-2.293-4.908-3.555-7.9-3.555
	c-2.993,0-5.795,1.262-7.895,3.557c-1.051,1.144-1.857,2.479-2.401,3.931H60.63v2.995h3.165c-0.057,0.495-0.097,0.993-0.097,1.498
	c0,0.505,0.04,1.003,0.097,1.498H60.63v2.996h3.875c0.544,1.452,1.352,2.784,2.401,3.932c2.1,2.291,4.901,3.556,7.895,3.556
	c2.992,0,5.797-1.265,7.897-3.556l-2.208-2.026c-1.527,1.669-3.546,2.587-5.689,2.587c-2.141,0-4.16-0.915-5.688-2.587
	c-0.522-0.569-0.936-1.222-1.296-1.905h6.289V13.52h-7.279c-0.076-0.492-0.136-0.99-0.136-1.499c0-0.509,0.06-1.006,0.136-1.498
	h7.279V7.527h-6.289c0.36-0.684,0.772-1.338,1.296-1.908C70.642,3.951,72.661,3.034,74.802,3.034z"/>
</svg>
