<?xml version="1.0" encoding="utf-8"?>
<!-- Generator: Adobe Illustrator 16.0.0, SVG Export Plug-In . SVG Version: 6.00 Build 0)  -->
<!DOCTYPE svg PUBLIC "-//W3C//DTD SVG 1.1//EN" "http://www.w3.org/Graphics/SVG/1.1/DTD/svg11.dtd">
<svg version="1.1" id="Capa_1" xmlns="http://www.w3.org/2000/svg" xmlns:xlink="http://www.w3.org/1999/xlink" x="0px" y="0px"
	 width="14.738px" height="15.94px" viewBox="4 4 14.738 15.94" enable-background="new 4 4 14.738 15.94" xml:space="preserve">
<path fill="#0C4261" d="M13.464,6c1.431,0,2.779,0.613,3.8,1.726l1.475-1.352C17.334,4.843,15.461,4,13.464,4
	c-1.998,0-3.87,0.843-5.272,2.375C7.491,7.139,6.951,8.031,6.589,9H4v2h2.114c-0.038,0.33-0.064,0.663-0.064,1s0.026,0.67,0.064,1H4
	v2h2.589c0.362,0.971,0.901,1.861,1.603,2.626C9.594,19.156,11.466,20,13.464,20c1.997,0,3.87-0.844,5.272-2.374l-1.475-1.353
	C16.243,17.387,14.895,18,13.464,18c-1.43,0-2.778-0.611-3.798-1.727C9.316,15.893,9.041,15.457,8.801,15H13v-2H8.139
	c-0.05-0.328-0.089-0.66-0.089-1s0.039-0.672,0.089-1H13V9H8.801c0.24-0.457,0.516-0.893,0.865-1.274
	C10.686,6.613,12.034,6,13.464,6z"/>
</svg>
