<?xml version="1.0" encoding="utf-8"?>
<!-- Generator: Adobe Illustrator 16.0.0, SVG Export Plug-In . SVG Version: 6.00 Build 0)  -->
<!DOCTYPE svg PUBLIC "-//W3C//DTD SVG 1.1//EN" "http://www.w3.org/Graphics/SVG/1.1/DTD/svg11.dtd">
<svg version="1.1" id="Capa_1" xmlns="http://www.w3.org/2000/svg" xmlns:xlink="http://www.w3.org/1999/xlink" x="0px" y="0px"
	 width="56.564px" height="51.456px" viewBox="0 0 56.564 51.456" enable-background="new 0 0 56.564 51.456" xml:space="preserve">
<g>
	<path fill="#03405E" d="M54.715-0.001H1.854c-1.023,0-1.853,0.829-1.853,1.85v33.872c0,1.022,0.83,1.852,1.853,1.852h28.308v12.033
		c0,0.748,0.45,1.423,1.143,1.709c0.23,0.094,0.47,0.142,0.707,0.142c0.482,0,0.955-0.189,1.31-0.541l13.436-13.342h7.958
		c1.022,0,1.85-0.827,1.85-1.851V1.849C56.564,0.828,55.737-0.001,54.715-0.001z"/>
	<g>
		<path fill="#FFFFFF" d="M7.974,18.474c0,3.533,2.879,6.41,6.413,6.41H20.8v-3.817h-6.414v-3.563h9.975v10.943h-9.975
			c-5.5,0-9.974-4.473-9.974-9.973c0-5.502,4.474-9.976,9.974-9.976h9.975v3.563h-9.975C10.853,12.061,7.974,14.938,7.974,18.474z"
			/>
		<path fill="#FFFFFF" d="M46.449,18.474c0,5.498-4.473,9.973-9.975,9.973c-5.499,0-9.974-4.473-9.974-9.973
			c0-5.502,4.475-9.976,9.974-9.976C41.977,8.498,46.449,12.972,46.449,18.474z M42.889,18.474c0-3.535-2.879-6.413-6.414-6.413
			c-3.532,0-6.411,2.879-6.411,6.413c0,3.531,2.879,6.41,6.411,6.41C40.01,24.884,42.889,22.005,42.889,18.474z"/>
		<path fill="#FFFFFF" d="M52.153,8.697v4.788l-0.94,10.146h-1.681l-0.941-10.146V8.697H52.153z M48.591,28.645v-3.563h3.563v3.563
			H48.591z"/>
	</g>
</g>
</svg>
