<?xml version="1.0" encoding="utf-8"?>
<!-- Generator: Adobe Illustrator 16.0.0, SVG Export Plug-In . SVG Version: 6.00 Build 0)  -->
<!DOCTYPE svg PUBLIC "-//W3C//DTD SVG 1.1//EN" "http://www.w3.org/Graphics/SVG/1.1/DTD/svg11.dtd">
<svg version="1.1" id="Capa_1" xmlns="http://www.w3.org/2000/svg" xmlns:xlink="http://www.w3.org/1999/xlink" x="0px" y="0px"
	 width="114.941px" height="86.965px" viewBox="10.832 627.284 114.941 86.965"
	 enable-background="new 10.832 627.284 114.941 86.965" xml:space="preserve">
<g>
	<path fill="#FFFFFF" d="M62.665,688.379c7.67,0,15.34,0.007,23.01-0.018c0.453-0.001,0.929-0.2,1.353-0.396
		c1.087-0.504,1.446-1.491,1.398-2.577c-0.054-1.229-0.222-2.459-0.433-3.673c-0.174-1.002-0.434-1.995-0.74-2.966
		c-0.704-2.225-1.952-4.14-3.564-5.802c-2.214-2.281-4.964-3.726-7.937-4.715c-1.647-0.548-3.364-0.922-5.076-1.222
		c-1.587-0.278-3.209-0.467-4.818-0.491c-2.5-0.038-5.003,0.101-7.505,0.157c-1.838,0.041-3.651,0.238-5.424,0.756
		c-1.477,0.431-2.985,0.764-4.44,1.258c-2.382,0.81-4.499,2.109-6.335,3.828c-2.778,2.6-4.293,5.872-4.893,9.581
		c-0.189,1.17-0.193,2.37-0.265,3.559c-0.09,1.504,1.315,2.733,2.724,2.729C47.366,688.368,55.015,688.379,62.665,688.379z
		 M62.6,700.228c0-0.005,0-0.01,0-0.015c-6.618,0-13.236-0.011-19.854,0.016c-0.743,0.003-1.558,0.058-2.216,0.358
		c-2.279,1.045-3.495,2.867-3.544,5.408c-0.018,0.927-0.077,1.863,0.02,2.78c0.083,0.787,0.217,1.627,0.577,2.314
		c1.124,2.143,2.906,3.191,5.398,3.185c13.38-0.037,26.76-0.009,40.14-0.049c0.764-0.002,1.591-0.278,2.279-0.637
		c2.099-1.096,2.977-2.978,3.035-5.268c0.04-1.543,0.116-3.096-0.445-4.59c-0.722-1.922-2.832-3.493-4.858-3.498
		C76.289,700.218,69.445,700.228,62.6,700.228z M62.864,691.596c-9.217,0-18.435,0.004-27.652-0.01
		c-0.618-0.001-1.161,0.162-1.613,0.532c-1.279,1.048-1.398,2.201-0.752,3.501c0.479,0.966,1.493,1.391,2.603,1.392
		c16.826,0.003,33.652,0.002,50.478,0.002c1.505,0,3.011,0.006,4.516-0.002c1.2-0.006,2.481-0.947,2.708-2.042
		c0.348-1.683-0.849-3.383-2.637-3.38C81.298,691.603,72.081,691.596,62.864,691.596z"/>
	<path fill="#FFFFFF" d="M62.665,688.379c-7.649,0-15.299-0.011-22.948,0.01c-1.409,0.003-2.814-1.227-2.724-2.73
		c0.071-1.188,0.076-2.389,0.265-3.559c0.599-3.708,2.115-6.981,4.893-9.58c1.836-1.72,3.954-3.02,6.335-3.829
		c1.455-0.494,2.963-0.827,4.44-1.258c1.773-0.518,3.586-0.715,5.424-0.756c2.502-0.056,5.005-0.195,7.505-0.157
		c1.609,0.024,3.23,0.213,4.818,0.491c1.712,0.3,3.429,0.674,5.076,1.222c2.973,0.989,5.723,2.434,7.937,4.715
		c1.613,1.662,2.861,3.577,3.564,5.802c0.307,0.971,0.566,1.964,0.74,2.966c0.21,1.214,0.379,2.444,0.433,3.673
		c0.047,1.087-0.311,2.074-1.398,2.577c-0.424,0.196-0.9,0.396-1.353,0.397C78.005,688.385,70.335,688.379,62.665,688.379z"/>
	<path fill="#FFFFFF" d="M62.6,700.228c6.844,0,13.689-0.011,20.533,0.006c2.026,0.005,4.136,1.576,4.858,3.498
		c0.561,1.494,0.484,3.047,0.445,4.59c-0.059,2.29-0.937,4.172-3.036,5.268c-0.688,0.358-1.515,0.635-2.279,0.637
		c-13.38,0.04-26.76,0.012-40.14,0.049c-2.492,0.007-4.275-1.042-5.398-3.185c-0.36-0.688-0.495-1.527-0.578-2.314
		c-0.096-0.917-0.038-1.854-0.02-2.78c0.049-2.541,1.265-4.363,3.544-5.408c0.658-0.302,1.472-0.355,2.216-0.358
		c6.618-0.026,13.236-0.016,19.854-0.016C62.6,700.219,62.6,700.223,62.6,700.228z"/>
	<path fill="#FFFFFF" d="M62.864,691.596c9.217,0,18.435,0.007,27.651-0.007c1.788-0.003,2.985,1.697,2.637,3.38
		c-0.227,1.095-1.508,2.036-2.708,2.042c-1.505,0.008-3.011,0.002-4.516,0.002c-16.826,0-33.652,0.001-50.478-0.002
		c-1.111-0.001-2.124-0.426-2.604-1.392c-0.646-1.3-0.527-2.453,0.752-3.501c0.452-0.37,0.995-0.533,1.613-0.532
		C44.429,691.6,53.646,691.596,62.864,691.596z"/>
</g>
<g>
	<path fill="#FFFFFF" d="M25.676,640.259l-0.936,3.139l-1.913-2.661l-2.89-3.971l-2.869,3.971l-1.913,2.641l-0.936-3.118
		l-3.389-11.413h2.703l2.619,8.772l2.204-3.056l0.416-0.582l1.185-1.622l1.185,1.622l0.416,0.582l2.204,3.056l2.62-8.772h2.703
		L25.676,640.259z"/>
	<path fill="#FFFFFF" d="M45.716,628.845v14.552h-2.599v-6.673h-9.355v6.673h-2.599v-14.552h2.599v5.28h9.355v-5.28H45.716z"/>
	<path fill="#FFFFFF" d="M61.827,643.397h-2.91l-1.331-2.599l-3.181-6.236l-3.18,6.236l-1.331,2.599h-2.91l1.331-2.599l6.091-11.953
		l6.091,11.953L61.827,643.397z"/>
	<path fill="#FFFFFF" d="M73.49,628.866v2.599h-5.966v11.954h-2.599v-11.954h-5.967v-2.599H73.49z"/>
	<path fill="#FFFFFF" d="M33.762,648.366v1.352h9.355v2.599h-9.355v2.744c0,0.728,0.603,1.33,1.331,1.33h10.623v2.599H35.093
		c-2.162,0-3.908-1.767-3.908-3.929v-6.694c0-2.162,1.746-3.929,3.908-3.929h10.623v2.599H35.093
		C34.365,647.036,33.762,647.638,33.762,648.366z"/>
	<path fill="#FFFFFF" d="M61.827,658.989h-2.91l-1.331-2.599l-3.181-6.236l-3.18,6.236l-1.331,2.599h-2.91l1.331-2.599l6.091-11.953
		l6.091,11.953L61.827,658.989z"/>
	<path fill="#FFFFFF" d="M73.49,644.458v2.599h-5.966v11.954h-2.599v-11.954h-5.967v-2.599H73.49z"/>
</g>
<path fill="#FFFFFF" d="M124.134,627.284H77.303c-0.905,0-1.639,0.734-1.639,1.64v30.006c0,0.905,0.734,1.64,1.639,1.64h25.08
	v10.659c0,0.663,0.4,1.262,1.013,1.516c0.203,0.084,0.416,0.125,0.627,0.125c0.426,0,0.846-0.167,1.16-0.481l11.901-11.818h7.05
	c0.906,0,1.64-0.734,1.64-1.64v-30.006C125.773,628.018,125.039,627.284,124.134,627.284z M99.533,650.958
	c-0.168,0.598-0.492,1.013-0.972,1.245c-0.479,0.233-0.971,0.279-1.475,0.138c-0.521-0.146-0.927-0.443-1.221-0.889
	c-0.293-0.446-0.354-0.973-0.184-1.578c0.151-0.537,0.466-0.937,0.945-1.198c0.479-0.261,0.991-0.314,1.537-0.161
	c0.537,0.151,0.938,0.462,1.201,0.933C99.628,649.917,99.684,650.421,99.533,650.958z M100.247,646.408
	c-0.412,0.842-1.044,1.143-1.897,0.902c-0.444-0.124-0.776-0.374-0.997-0.75c-0.221-0.375-0.251-0.849-0.09-1.42
	c0.202-0.717,0.487-1.307,0.857-1.769c0.369-0.462,0.793-0.84,1.271-1.133c0.479-0.294,1.106-0.626,1.882-0.996
	c0.68-0.324,1.177-0.574,1.488-0.748c0.312-0.175,0.593-0.388,0.843-0.64c0.25-0.252,0.425-0.553,0.523-0.902
	c0.192-0.683,0.101-1.33-0.275-1.942c-0.375-0.611-0.964-1.03-1.766-1.256c-0.938-0.265-1.696-0.223-2.273,0.126
	c-0.577,0.349-1.148,0.94-1.714,1.775c-0.562,0.883-1.248,1.209-2.058,0.981c-0.478-0.135-0.833-0.416-1.066-0.846
	c-0.234-0.43-0.295-0.841-0.185-1.233c0.228-0.81,0.719-1.558,1.474-2.243c0.754-0.686,1.708-1.16,2.859-1.425
	c1.152-0.266,2.393-0.211,3.724,0.164c1.236,0.348,2.265,0.884,3.083,1.606s1.375,1.55,1.67,2.479
	c0.295,0.93,0.313,1.855,0.054,2.777c-0.204,0.725-0.53,1.319-0.978,1.782c-0.448,0.463-0.931,0.836-1.447,1.118
	c-0.517,0.283-1.432,0.746-2.746,1.389c-0.364,0.183-0.662,0.35-0.894,0.501s-0.413,0.298-0.545,0.44
	c-0.132,0.143-0.245,0.29-0.339,0.443S100.459,646.017,100.247,646.408z M108.349,651.885c-0.319,0.357-0.811,0.535-1.476,0.535
	h-4.201c-0.638,0-1.123-0.178-1.456-0.535c-0.333-0.356-0.499-0.816-0.499-1.38c0-0.575,0.162-1.04,0.485-1.396
	c0.323-0.356,0.813-0.535,1.469-0.535h4.201c0.656,0,1.145,0.179,1.469,0.535c0.323,0.356,0.485,0.821,0.485,1.396
	C108.827,651.069,108.668,651.529,108.349,651.885z"/>
</svg>
