<?xml version="1.0" encoding="utf-8"?>
<!-- Generator: Adobe Illustrator 16.0.0, SVG Export Plug-In . SVG Version: 6.00 Build 0)  -->
<!DOCTYPE svg PUBLIC "-//W3C//DTD SVG 1.1//EN" "http://www.w3.org/Graphics/SVG/1.1/DTD/svg11.dtd">
<svg version="1.1" id="Capa_1" xmlns="http://www.w3.org/2000/svg" xmlns:xlink="http://www.w3.org/1999/xlink" x="0px" y="0px"
	 width="114.941px" height="45.572px" viewBox="0 0 114.941 45.572" enable-background="new 0 0 114.941 45.572"
	 xml:space="preserve">
<g>
	<path fill="#03405E" d="M14.844,12.963l-0.936,3.139l-1.913-2.662l-2.89-3.971l-2.869,3.971l-1.913,2.643l-0.936-3.119
		l-3.39-11.412h2.703l2.619,8.771l2.204-3.057l0.416-0.582l1.185-1.621l1.186,1.621l0.416,0.582l2.204,3.057l2.619-8.771h2.703
		L14.844,12.963z"/>
	<path fill="#03405E" d="M34.884,1.549V16.1h-2.599V9.428h-9.354V16.1h-2.6V1.549h2.6v5.279h9.354V1.549H34.884z"/>
	<path fill="#03405E" d="M50.995,16.1h-2.91l-1.331-2.598l-3.181-6.236l-3.18,6.236L39.063,16.1h-2.91l1.331-2.598l6.091-11.953
		l6.091,11.953L50.995,16.1z"/>
	<path fill="#03405E" d="M62.658,1.568v2.6h-5.965v11.955h-2.6V4.168h-5.967v-2.6H62.658z"/>
	<path fill="#03405E" d="M22.931,21.068v1.354h9.354v2.598h-9.354v2.744c0,0.729,0.603,1.33,1.33,1.33h10.623v2.6H24.261
		c-2.161,0-3.907-1.768-3.907-3.93V21.07c0-2.162,1.746-3.93,3.907-3.93h10.623v2.6H24.261
		C23.533,19.738,22.931,20.342,22.931,21.068z"/>
	<path fill="#03405E" d="M50.995,31.691h-2.91l-1.331-2.598l-3.181-6.236l-3.18,6.236l-1.331,2.598h-2.91l1.331-2.598l6.091-11.953
		l6.091,11.953L50.995,31.691z"/>
	<path fill="#03405E" d="M62.658,17.162v2.598h-5.965v11.955h-2.6V19.76h-5.967v-2.598H62.658z"/>
</g>
<path fill="#03405E" d="M113.302-0.014h-46.83c-0.906,0-1.641,0.734-1.641,1.641v30.006c0,0.906,0.734,1.641,1.641,1.641h25.078
	v10.658c0,0.664,0.4,1.262,1.014,1.516c0.203,0.084,0.416,0.125,0.627,0.125c0.426,0,0.846-0.166,1.16-0.48l11.9-11.818h7.051
	c0.906,0,1.641-0.732,1.641-1.639V1.629C114.941,0.721,114.207-0.014,113.302-0.014z M88.701,23.662
	c-0.168,0.598-0.492,1.012-0.971,1.244c-0.48,0.232-0.973,0.279-1.477,0.139c-0.52-0.146-0.926-0.443-1.221-0.891
	c-0.293-0.445-0.354-0.973-0.184-1.576c0.15-0.537,0.467-0.938,0.945-1.199c0.479-0.26,0.99-0.314,1.537-0.16
	c0.537,0.15,0.938,0.461,1.201,0.932S88.853,23.125,88.701,23.662z M89.416,19.111c-0.412,0.842-1.045,1.143-1.896,0.902
	c-0.445-0.125-0.777-0.375-0.998-0.75s-0.25-0.85-0.09-1.42c0.201-0.717,0.486-1.307,0.857-1.77c0.369-0.463,0.793-0.84,1.271-1.133
	c0.479-0.295,1.105-0.627,1.881-0.996c0.68-0.324,1.178-0.574,1.488-0.748c0.313-0.176,0.594-0.389,0.844-0.641
	s0.424-0.553,0.521-0.902c0.193-0.682,0.102-1.328-0.273-1.941c-0.375-0.611-0.965-1.029-1.768-1.256
	c-0.938-0.266-1.695-0.223-2.271,0.127c-0.578,0.348-1.148,0.939-1.715,1.773c-0.563,0.885-1.248,1.209-2.059,0.982
	c-0.477-0.135-0.832-0.416-1.064-0.846c-0.234-0.432-0.295-0.842-0.186-1.234c0.229-0.809,0.719-1.557,1.475-2.242
	c0.754-0.686,1.707-1.16,2.857-1.426c1.152-0.266,2.395-0.211,3.725,0.164c1.236,0.348,2.266,0.885,3.084,1.607
	c0.816,0.721,1.375,1.549,1.67,2.479s0.313,1.855,0.053,2.777c-0.203,0.725-0.529,1.318-0.979,1.781
	c-0.447,0.463-0.93,0.836-1.445,1.117c-0.518,0.283-1.434,0.746-2.746,1.391c-0.365,0.182-0.662,0.35-0.895,0.5
	s-0.414,0.299-0.545,0.439c-0.133,0.145-0.246,0.291-0.34,0.443S89.627,18.721,89.416,19.111z M97.517,24.588
	c-0.318,0.357-0.811,0.535-1.477,0.535H91.84c-0.637,0-1.123-0.178-1.455-0.535c-0.334-0.355-0.5-0.816-0.5-1.379
	c0-0.576,0.162-1.041,0.486-1.396c0.322-0.355,0.813-0.535,1.469-0.535h4.201c0.656,0,1.145,0.18,1.469,0.535
	c0.322,0.355,0.484,0.82,0.484,1.396C97.996,23.771,97.836,24.232,97.517,24.588z"/>
</svg>
