<?xml version="1.0" encoding="utf-8"?>
<!-- Generator: Adobe Illustrator 24.3.0, SVG Export Plug-In . SVG Version: 6.00 Build 0)  -->
<svg version="1.1" xmlns="http://www.w3.org/2000/svg" xmlns:xlink="http://www.w3.org/1999/xlink" x="0px" y="0px"
	 viewBox="0 0 500 500" style="enable-background:new 0 0 500 500;" xml:space="preserve">
<style type="text/css">
	.st0{fill-rule:evenodd;clip-rule:evenodd;fill:#EEEEEE;}
	.st1{fill-rule:evenodd;clip-rule:evenodd;fill:#EDEDED;}
	.st2{fill-rule:evenodd;clip-rule:evenodd;fill:#ECECEC;}
	.st3{fill-rule:evenodd;clip-rule:evenodd;fill:#EBEBEB;}
	.st4{fill-rule:evenodd;clip-rule:evenodd;fill:#EAEAEA;}
	.st5{fill-rule:evenodd;clip-rule:evenodd;fill:#E9E9E9;}
	.st6{fill-rule:evenodd;clip-rule:evenodd;fill:#E8E8E8;}
	.st7{fill-rule:evenodd;clip-rule:evenodd;fill:#E7E7E7;}
	.st8{fill-rule:evenodd;clip-rule:evenodd;fill:#E6E6E6;}
	.st9{fill-rule:evenodd;clip-rule:evenodd;fill:#E5E5E5;}
	.st10{fill-rule:evenodd;clip-rule:evenodd;fill:#E4E4E4;}
	.st11{fill-rule:evenodd;clip-rule:evenodd;fill:#E2E2E2;}
	.st12{fill-rule:evenodd;clip-rule:evenodd;fill:#E1E1E1;}
	.st13{fill-rule:evenodd;clip-rule:evenodd;fill:#E0E0E0;}
	.st14{fill-rule:evenodd;clip-rule:evenodd;fill:#DFDFDF;}
	.st15{fill-rule:evenodd;clip-rule:evenodd;fill:#DEDEDE;}
	.st16{fill-rule:evenodd;clip-rule:evenodd;fill:#DDDDDD;}
	.st17{fill-rule:evenodd;clip-rule:evenodd;fill:#DCDCDC;}
	.st18{fill-rule:evenodd;clip-rule:evenodd;fill:#DBDBDB;}
	.st19{fill-rule:evenodd;clip-rule:evenodd;fill:#DADADA;}
	.st20{fill-rule:evenodd;clip-rule:evenodd;fill:#D9D9D9;}
	.st21{fill-rule:evenodd;clip-rule:evenodd;fill:#D8D8D8;}
	.st22{fill-rule:evenodd;clip-rule:evenodd;fill:#D7D7D7;}
	.st23{fill-rule:evenodd;clip-rule:evenodd;fill:#D6D6D6;}
	.st24{fill-rule:evenodd;clip-rule:evenodd;fill:#D5D5D5;}
	.st25{fill-rule:evenodd;clip-rule:evenodd;fill:#D4D4D4;}
	.st26{fill-rule:evenodd;clip-rule:evenodd;fill:#D3D3D3;}
	.st27{fill-rule:evenodd;clip-rule:evenodd;fill:#D2D2D2;}
	.st28{fill-rule:evenodd;clip-rule:evenodd;fill:#D1D1D1;}
	.st29{fill-rule:evenodd;clip-rule:evenodd;fill:#D0D0D0;}
	.st30{fill-rule:evenodd;clip-rule:evenodd;fill:#CFCFCF;}
	.st31{fill-rule:evenodd;clip-rule:evenodd;fill:#CDCDCD;}
	.st32{fill-rule:evenodd;clip-rule:evenodd;fill:#CCCCCC;}
	.st33{fill-rule:evenodd;clip-rule:evenodd;fill:#CBCBCB;}
	.st34{fill-rule:evenodd;clip-rule:evenodd;fill:#CACACA;}
	.st35{fill-rule:evenodd;clip-rule:evenodd;fill:#C9C9C9;}
	.st36{fill-rule:evenodd;clip-rule:evenodd;fill:#C8C8C8;}
	.st37{fill-rule:evenodd;clip-rule:evenodd;fill:#C7C7C7;}
	.st38{fill-rule:evenodd;clip-rule:evenodd;fill:#C6C6C6;}
	.st39{fill-rule:evenodd;clip-rule:evenodd;fill:#C5C5C5;}
	.st40{fill-rule:evenodd;clip-rule:evenodd;fill:#C4C4C4;}
	.st41{fill-rule:evenodd;clip-rule:evenodd;fill:#C3C3C3;}
	.st42{fill-rule:evenodd;clip-rule:evenodd;fill:#C2C2C2;}
	.st43{fill-rule:evenodd;clip-rule:evenodd;fill:#C1C1C1;}
	.st44{fill-rule:evenodd;clip-rule:evenodd;fill:#C0C0C0;}
	.st45{fill-rule:evenodd;clip-rule:evenodd;fill:#BFBFBF;}
	.st46{fill-rule:evenodd;clip-rule:evenodd;fill:#BEBEBE;}
	.st47{fill-rule:evenodd;clip-rule:evenodd;fill:#BDBDBD;}
	.st48{fill-rule:evenodd;clip-rule:evenodd;fill:#BCBCBC;}
	.st49{fill-rule:evenodd;clip-rule:evenodd;fill:#BBBBBB;}
	.st50{fill-rule:evenodd;clip-rule:evenodd;fill:#BABABA;}
	.st51{fill-rule:evenodd;clip-rule:evenodd;fill:#B8B8B8;}
	.st52{fill-rule:evenodd;clip-rule:evenodd;fill:#B7B7B7;}
	.st53{fill-rule:evenodd;clip-rule:evenodd;fill:#B6B6B6;}
	.st54{fill-rule:evenodd;clip-rule:evenodd;fill:#B5B5B5;}
	.st55{fill-rule:evenodd;clip-rule:evenodd;fill:#B4B4B4;}
	.st56{fill-rule:evenodd;clip-rule:evenodd;fill:#B3B3B3;}
	.st57{fill-rule:evenodd;clip-rule:evenodd;fill:#B2B2B2;}
	.st58{fill-rule:evenodd;clip-rule:evenodd;fill:#B1B1B1;}
	.st59{fill-rule:evenodd;clip-rule:evenodd;fill:#B0B0B0;}
	.st60{fill-rule:evenodd;clip-rule:evenodd;fill:#AFAFAF;}
	.st61{fill-rule:evenodd;clip-rule:evenodd;fill:#AEAEAE;}
	.st62{fill-rule:evenodd;clip-rule:evenodd;fill:#ADADAD;}
	.st63{fill-rule:evenodd;clip-rule:evenodd;fill:#ACACAC;}
	.st64{fill-rule:evenodd;clip-rule:evenodd;fill:#ABABAB;}
	.st65{fill-rule:evenodd;clip-rule:evenodd;fill:#AAAAAA;}
	.st66{fill-rule:evenodd;clip-rule:evenodd;fill:#A9A9A9;}
	.st67{fill-rule:evenodd;clip-rule:evenodd;fill:#A8A8A8;}
	.st68{fill-rule:evenodd;clip-rule:evenodd;fill:#A7A7A7;}
	.st69{fill-rule:evenodd;clip-rule:evenodd;fill:#A6A6A6;}
	.st70{fill-rule:evenodd;clip-rule:evenodd;fill:#A5A5A5;}
	.st71{fill-rule:evenodd;clip-rule:evenodd;fill:#A3A3A3;}
	.st72{fill-rule:evenodd;clip-rule:evenodd;fill:#A2A2A2;}
	.st73{fill-rule:evenodd;clip-rule:evenodd;fill:#A1A1A1;}
	.st74{fill-rule:evenodd;clip-rule:evenodd;fill:#A0A0A0;}
	.st75{fill-rule:evenodd;clip-rule:evenodd;fill:#9F9F9F;}
	.st76{fill-rule:evenodd;clip-rule:evenodd;fill:#9E9E9E;}
	.st77{fill-rule:evenodd;clip-rule:evenodd;fill:#9D9D9D;}
	.st78{fill-rule:evenodd;clip-rule:evenodd;fill:#9C9C9C;}
	.st79{fill-rule:evenodd;clip-rule:evenodd;fill:#9B9B9B;}
	.st80{fill-rule:evenodd;clip-rule:evenodd;fill:#9A9A9A;}
	.st81{fill-rule:evenodd;clip-rule:evenodd;fill:#999999;}
	.st82{fill-rule:evenodd;clip-rule:evenodd;fill:#FAFAFA;}
	.st83{fill-rule:evenodd;clip-rule:evenodd;fill:#F9F9F9;}
	.st84{fill-rule:evenodd;clip-rule:evenodd;fill:#F8F8F8;}
	.st85{fill-rule:evenodd;clip-rule:evenodd;fill:#F6F6F6;}
	.st86{fill-rule:evenodd;clip-rule:evenodd;fill:#F5F5F5;}
	.st87{fill-rule:evenodd;clip-rule:evenodd;fill:#F4F4F4;}
	.st88{fill-rule:evenodd;clip-rule:evenodd;fill:#F3F3F3;}
	.st89{fill-rule:evenodd;clip-rule:evenodd;fill:#F2F2F2;}
	.st90{fill-rule:evenodd;clip-rule:evenodd;fill:#F0F0F0;}
	.st91{fill-rule:evenodd;clip-rule:evenodd;fill:#EFEFEF;}
	.st92{fill-rule:evenodd;clip-rule:evenodd;fill:#E3E3E3;}
	.st93{fill-rule:evenodd;clip-rule:evenodd;fill:#CECECE;}
	.st94{fill-rule:evenodd;clip-rule:evenodd;fill:#B9B9B9;}
	.st95{fill-rule:evenodd;clip-rule:evenodd;fill:#A4A4A4;}
	.st96{fill-rule:evenodd;clip-rule:evenodd;fill:#FFFFFF;}
	.st97{fill-rule:evenodd;clip-rule:evenodd;fill:#969696;}
	.st98{fill:#FFFFFF;}
	.st99{fill-rule:evenodd;clip-rule:evenodd;fill:#FDAD1D;}
	.st100{fill-rule:evenodd;clip-rule:evenodd;fill:#8E8E8E;}
	.st101{fill:#C8C8C8;}
	.st102{fill-rule:evenodd;clip-rule:evenodd;fill:#D4CBBA;}
	.st103{opacity:0.47;fill:#6D7172;}
	.st104{fill:#004062;}
	.st105{fill:#032B3D;}
	.st106{fill:#969696;}
	.st107{fill:#FDAD1D;}
	.st108{fill:#FFBE9D;}
	.st109{fill:#EB996E;}
	.st110{fill:#F5F5F5;}
	.st111{fill:#263238;}
	.st112{fill:#9A4A4D;}
	.st113{opacity:0.2;}
	.st114{opacity:0.6;}
	.st115{fill:#37474F;}
	.st116{fill:#B16668;}
</style>
<g id="Floor">
</g>
<g id="Capa_7">
	<g>
		<polygon class="st0" points="308.65,476.54 470.16,465.61 391.24,268.64 291.73,292.33 		"/>
		<g>
			<path class="st1" d="M308.65,476.53c53.52-3.7,107.04-7.4,160.56-11.11c-26.19-65.54-52.37-131.09-78.56-196.63
				c-32.97,7.84-65.94,15.69-98.92,23.53C297.37,353.73,303.01,415.13,308.65,476.53z"/>
			<path class="st2" d="M308.65,476.53c53.2-3.76,106.4-7.52,159.61-11.28c-26.06-65.43-52.13-130.87-78.19-196.3
				c-32.78,7.79-65.55,15.58-98.33,23.38C297.37,353.73,303.01,415.13,308.65,476.53z"/>
			<path class="st3" d="M308.65,476.53c52.88-3.82,105.77-7.64,158.65-11.46c-25.94-65.32-51.89-130.65-77.83-195.97
				c-32.58,7.74-65.15,15.48-97.73,23.22C297.37,353.73,303.01,415.13,308.65,476.53z"/>
			<path class="st4" d="M308.65,476.54c52.56-3.88,105.13-7.76,157.69-11.64c-25.82-65.21-51.65-130.42-77.47-195.64
				c-32.38,7.69-64.76,15.38-97.14,23.07C297.37,353.73,303.01,415.13,308.65,476.54z"/>
			<path class="st5" d="M308.65,476.53c52.25-3.94,104.49-7.88,156.74-11.81c-25.7-65.1-51.4-130.2-77.11-195.31
				c-32.18,7.64-64.36,15.27-96.55,22.91C297.37,353.73,303.01,415.13,308.65,476.53z"/>
			<path class="st6" d="M308.65,476.53c51.93-4,103.86-7.99,155.78-11.99c-25.58-64.99-51.16-129.98-76.74-194.97
				c-31.99,7.59-63.97,15.17-95.95,22.76C297.37,353.73,303.01,415.13,308.65,476.53z"/>
			<path class="st7" d="M308.65,476.53c51.61-4.06,103.22-8.11,154.83-12.17c-25.46-64.88-50.92-129.76-76.38-194.64
				c-31.79,7.53-63.57,15.07-95.36,22.6C297.37,353.73,303.01,415.13,308.65,476.53z"/>
			<path class="st8" d="M308.65,476.53c51.29-4.11,102.58-8.23,153.87-12.34c-25.34-64.77-50.68-129.54-76.02-194.31
				c-31.59,7.48-63.18,14.96-94.77,22.44C297.37,353.73,303.01,415.13,308.65,476.53z"/>
			<path class="st9" d="M308.65,476.53c50.97-4.17,101.94-8.35,152.92-12.52c-25.22-64.66-50.44-129.32-75.65-193.98
				c-31.39,7.43-62.78,14.86-94.17,22.29C297.37,353.73,303.01,415.13,308.65,476.53z"/>
			<path class="st10" d="M308.65,476.53c50.65-4.23,101.31-8.47,151.96-12.7c-25.1-64.55-50.19-129.1-75.29-193.64
				c-31.19,7.38-62.39,14.76-93.58,22.13C297.37,353.73,303.01,415.13,308.65,476.53z"/>
			<path class="st11" d="M308.65,476.53c50.33-4.29,100.67-8.58,151-12.88c-24.98-64.44-49.95-128.87-74.93-193.31
				c-31,7.33-61.99,14.65-92.99,21.98C297.37,353.73,303.01,415.13,308.65,476.53z"/>
			<path class="st12" d="M308.65,476.54c50.02-4.35,100.03-8.7,150.05-13.05c-24.86-64.33-49.71-128.65-74.56-192.98
				c-30.8,7.27-61.6,14.55-92.4,21.82C297.37,353.73,303.01,415.13,308.65,476.54z"/>
			<path class="st13" d="M308.65,476.53c49.7-4.41,99.4-8.82,149.09-13.23c-24.73-64.22-49.47-128.43-74.2-192.65
				c-30.6,7.22-61.2,14.44-91.8,21.67C297.37,353.73,303.01,415.13,308.65,476.53z"/>
			<path class="st14" d="M308.65,476.53c49.38-4.47,98.76-8.94,148.14-13.41c-24.61-64.11-49.23-128.21-73.84-192.32
				c-30.4,7.17-60.81,14.34-91.21,21.51C297.37,353.73,303.01,415.13,308.65,476.53z"/>
			<path class="st15" d="M308.65,476.53c49.06-4.53,98.12-9.05,147.18-13.58c-24.49-63.99-48.98-127.99-73.48-191.98
				c-30.2,7.12-60.41,14.24-90.62,21.36C297.37,353.73,303.01,415.13,308.65,476.53z"/>
			<path class="st16" d="M308.65,476.53c48.74-4.59,97.48-9.17,146.23-13.76c-24.37-63.88-48.74-127.77-73.12-191.65
				c-30.01,7.07-60.02,14.13-90.02,21.2C297.37,353.73,303.01,415.13,308.65,476.53z"/>
			<path class="st17" d="M308.65,476.54c48.42-4.65,96.85-9.29,145.27-13.94c-24.25-63.77-48.5-127.54-72.75-191.32
				c-29.81,7.02-59.62,14.03-89.43,21.05C297.37,353.73,303.01,415.13,308.65,476.54z"/>
			<path class="st18" d="M308.65,476.53c48.1-4.7,96.21-9.41,144.31-14.11c-24.13-63.66-48.26-127.32-72.39-190.99
				c-29.61,6.96-59.23,13.93-88.84,20.89C297.37,353.73,303.01,415.13,308.65,476.53z"/>
			<path class="st19" d="M308.65,476.53c47.79-4.76,95.57-9.53,143.36-14.29c-24.01-63.55-48.02-127.1-72.03-190.65
				c-29.42,6.91-58.83,13.82-88.24,20.73C297.37,353.73,303.01,415.13,308.65,476.53z"/>
			<path class="st20" d="M308.65,476.53c47.47-4.82,94.94-9.64,142.4-14.47c-23.89-63.44-47.78-126.88-71.66-190.32
				c-29.22,6.86-58.44,13.72-87.65,20.58C297.37,353.73,303.01,415.13,308.65,476.53z"/>
			<path class="st21" d="M308.65,476.53c47.15-4.88,94.3-9.76,141.45-14.64c-23.77-63.33-47.53-126.66-71.3-189.99
				c-29.02,6.81-58.04,13.62-87.06,20.42C297.37,353.73,303.01,415.13,308.65,476.53z"/>
			<path class="st22" d="M308.65,476.53c46.83-4.94,93.66-9.88,140.49-14.82c-23.65-63.22-47.29-126.44-70.94-189.66
				c-28.82,6.76-57.65,13.51-86.47,20.27C297.37,353.73,303.01,415.13,308.65,476.53z"/>
			<path class="st23" d="M308.65,476.53c46.51-5,93.02-10,139.54-15c-23.53-63.11-47.05-126.22-70.57-189.33
				c-28.63,6.7-57.25,13.41-85.88,20.11C297.37,353.73,303.01,415.13,308.65,476.53z"/>
			<path class="st24" d="M308.65,476.53c46.19-5.06,92.39-10.12,138.58-15.17c-23.4-63-46.81-125.99-70.21-188.99
				c-28.43,6.65-56.85,13.31-85.28,19.96C297.37,353.73,303.01,415.13,308.65,476.53z"/>
			<path class="st25" d="M308.65,476.53c45.88-5.12,91.75-10.23,137.63-15.35c-23.28-62.89-46.57-125.77-69.85-188.66
				c-28.23,6.6-56.46,13.2-84.69,19.8C297.37,353.73,303.01,415.13,308.65,476.53z"/>
			<path class="st26" d="M308.65,476.53c45.56-5.18,91.11-10.35,136.67-15.53c-23.16-62.77-46.33-125.55-69.49-188.33
				c-28.03,6.55-56.07,13.1-84.1,19.65C297.37,353.73,303.01,415.13,308.65,476.53z"/>
			<path class="st27" d="M308.65,476.53c45.24-5.23,90.48-10.47,135.71-15.71c-23.04-62.67-46.08-125.33-69.12-188
				c-27.83,6.5-55.67,12.99-83.5,19.49C297.37,353.73,303.01,415.13,308.65,476.53z"/>
			<path class="st28" d="M308.65,476.53c44.92-5.29,89.84-10.59,134.76-15.88c-22.92-62.55-45.84-125.11-68.76-187.66
				c-27.64,6.45-55.27,12.89-82.91,19.34C297.37,353.73,303.01,415.13,308.65,476.53z"/>
			<path class="st29" d="M308.65,476.53c44.6-5.35,89.2-10.71,133.8-16.06c-22.8-62.44-45.6-124.89-68.4-187.33
				c-27.44,6.39-54.88,12.79-82.32,19.18C297.37,353.73,303.01,415.13,308.65,476.53z"/>
			<path class="st30" d="M308.65,476.53c44.28-5.41,88.56-10.82,132.85-16.24c-22.68-62.33-45.36-124.66-68.04-187
				c-27.24,6.34-54.48,12.68-81.72,19.03C297.37,353.73,303.01,415.13,308.65,476.53z"/>
			<path class="st31" d="M308.65,476.54c43.96-5.47,87.93-10.94,131.89-16.41c-22.56-62.22-45.12-124.44-67.67-186.67
				c-27.04,6.29-54.09,12.58-81.13,18.87C297.37,353.73,303.01,415.13,308.65,476.54z"/>
			<path class="st32" d="M308.65,476.53c43.65-5.53,87.29-11.06,130.94-16.59c-22.44-62.11-44.87-124.22-67.31-186.33
				c-26.85,6.24-53.69,12.48-80.54,18.72C297.37,353.73,303.01,415.13,308.65,476.53z"/>
			<path class="st33" d="M308.65,476.53c43.33-5.59,86.65-11.18,129.98-16.77c-22.32-62-44.63-124-66.95-186
				c-26.65,6.19-53.3,12.37-79.95,18.56C297.37,353.73,303.01,415.13,308.65,476.53z"/>
			<path class="st34" d="M308.65,476.53c43.01-5.65,86.02-11.3,129.03-16.94c-22.2-61.89-44.39-123.78-66.59-185.67
				c-26.45,6.13-52.9,12.27-79.35,18.4C297.37,353.73,303.01,415.13,308.65,476.53z"/>
			<path class="st35" d="M308.65,476.53c42.69-5.71,85.38-11.41,128.07-17.12c-22.07-61.78-44.15-123.56-66.22-185.34
				c-26.25,6.08-52.51,12.17-78.76,18.25C297.37,353.73,303.01,415.13,308.65,476.53z"/>
			<path class="st36" d="M308.65,476.54c42.37-5.77,84.74-11.53,127.11-17.3c-21.95-61.67-43.91-123.34-65.86-185.01
				c-26.06,6.03-52.11,12.06-78.17,18.09C297.37,353.73,303.01,415.13,308.65,476.54z"/>
			<path class="st37" d="M308.65,476.53c42.05-5.82,84.1-11.65,126.16-17.47c-21.83-61.56-43.66-123.12-65.49-184.67
				c-25.86,5.98-51.72,11.96-77.57,17.94C297.37,353.73,303.01,415.13,308.65,476.53z"/>
			<path class="st38" d="M308.65,476.53c41.73-5.88,83.47-11.77,125.2-17.65c-21.71-61.45-43.42-122.89-65.13-184.34
				c-25.66,5.93-51.32,11.86-76.98,17.78C297.37,353.73,303.01,415.13,308.65,476.53z"/>
			<path class="st39" d="M308.65,476.53c41.42-5.94,82.83-11.89,124.25-17.83c-21.59-61.34-43.18-122.67-64.77-184.01
				c-25.46,5.88-50.93,11.75-76.39,17.63C297.37,353.73,303.01,415.13,308.65,476.53z"/>
			<path class="st40" d="M308.65,476.53c41.1-6,82.19-12,123.29-18.01C410.47,397.3,389,336.08,367.53,274.85
				c-25.26,5.82-50.53,11.65-75.8,17.47C297.37,353.73,303.01,415.13,308.65,476.53z"/>
			<path class="st41" d="M308.65,476.54c40.78-6.06,81.56-12.12,122.34-18.18c-21.35-61.12-42.7-122.23-64.05-183.34
				c-25.07,5.77-50.14,11.55-75.2,17.32C297.37,353.73,303.01,415.13,308.65,476.54z"/>
			<path class="st42" d="M308.65,476.53c40.46-6.12,80.92-12.24,121.38-18.36c-21.23-61-42.45-122.01-63.68-183.01
				c-24.87,5.72-49.74,11.44-74.61,17.16C297.37,353.73,303.01,415.13,308.65,476.53z"/>
			<path class="st43" d="M308.65,476.53c40.14-6.18,80.28-12.36,120.42-18.54c-21.11-60.89-42.21-121.78-63.32-182.68
				c-24.67,5.67-49.34,11.34-74.02,17.01C297.37,353.73,303.01,415.13,308.65,476.53z"/>
			<path class="st44" d="M308.65,476.53c39.82-6.24,79.65-12.48,119.47-18.71c-20.99-60.78-41.97-121.56-62.96-182.35
				c-24.47,5.62-48.95,11.23-73.42,16.85C297.37,353.73,303.01,415.13,308.65,476.53z"/>
			<path class="st45" d="M308.65,476.53c39.5-6.3,79.01-12.59,118.51-18.89c-20.86-60.67-41.73-121.34-62.59-182.01
				c-24.28,5.57-48.55,11.13-72.83,16.7C297.37,353.73,303.01,415.13,308.65,476.53z"/>
			<path class="st46" d="M308.65,476.54c39.19-6.36,78.37-12.71,117.56-19.07c-20.74-60.56-41.49-121.12-62.23-181.68
				c-24.08,5.51-48.16,11.03-72.24,16.54C297.37,353.73,303.01,415.13,308.65,476.54z"/>
			<path class="st47" d="M308.65,476.53c38.87-6.41,77.73-12.83,116.6-19.24c-20.62-60.45-41.25-120.9-61.87-181.35
				c-23.88,5.46-47.76,10.92-71.64,16.38C297.37,353.73,303.01,415.13,308.65,476.53z"/>
			<path class="st48" d="M308.65,476.53c38.55-6.47,77.1-12.95,115.64-19.42c-20.5-60.34-41-120.68-61.5-181.02
				c-23.68,5.41-47.37,10.82-71.05,16.23C297.37,353.73,303.01,415.13,308.65,476.53z"/>
			<path class="st49" d="M308.65,476.53c38.23-6.53,76.46-13.07,114.69-19.6c-20.38-60.23-40.76-120.46-61.14-180.68
				c-23.49,5.36-46.97,10.72-70.46,16.07C297.37,353.73,303.01,415.13,308.65,476.53z"/>
			<path class="st50" d="M308.65,476.53c37.91-6.59,75.82-13.18,113.73-19.78c-20.26-60.12-40.52-120.24-60.78-180.35
				c-23.29,5.31-46.58,10.61-69.87,15.92C297.37,353.73,303.01,415.13,308.65,476.53z"/>
			<path class="st51" d="M308.65,476.54c37.59-6.65,75.19-13.3,112.78-19.95c-20.14-60.01-40.28-120.01-60.42-180.02
				c-23.09,5.26-46.18,10.51-69.27,15.76C297.37,353.73,303.01,415.13,308.65,476.54z"/>
			<path class="st52" d="M308.65,476.53c37.27-6.71,74.55-13.42,111.82-20.13c-20.02-59.9-40.04-119.79-60.06-179.69
				c-22.89,5.2-45.79,10.41-68.68,15.61C297.37,353.73,303.01,415.13,308.65,476.53z"/>
			<path class="st53" d="M308.65,476.53c36.96-6.77,73.91-13.54,110.87-20.31c-19.9-59.79-39.79-119.57-59.69-179.36
				c-22.7,5.15-45.39,10.3-68.09,15.45C297.37,353.73,303.01,415.13,308.65,476.53z"/>
			<path class="st54" d="M308.65,476.53c36.64-6.83,73.27-13.65,109.91-20.48c-19.78-59.67-39.55-119.35-59.33-179.02
				c-22.5,5.1-45,10.2-67.49,15.3C297.37,353.73,303.01,415.13,308.65,476.53z"/>
			<path class="st55" d="M308.65,476.53c36.32-6.89,72.64-13.77,108.96-20.66c-19.65-59.56-39.31-119.13-58.97-178.69
				c-22.3,5.05-44.6,10.1-66.9,15.14C297.37,353.73,303.01,415.13,308.65,476.53z"/>
			<path class="st56" d="M308.65,476.53c36-6.95,72-13.89,108-20.84c-19.53-59.45-39.07-118.9-58.6-178.36
				c-22.1,5-44.21,9.99-66.31,14.99C297.37,353.73,303.01,415.13,308.65,476.53z"/>
			<path class="st57" d="M308.65,476.53c35.68-7,71.36-14.01,107.04-21.01c-19.41-59.34-38.83-118.68-58.24-178.03
				c-21.91,4.94-43.81,9.89-65.72,14.83C297.37,353.73,303.01,415.13,308.65,476.53z"/>
			<path class="st58" d="M308.65,476.53c35.36-7.06,70.73-14.13,106.09-21.19c-19.29-59.23-38.59-118.46-57.88-177.69
				c-21.71,4.89-43.42,9.78-65.12,14.68C297.37,353.73,303.01,415.13,308.65,476.53z"/>
			<path class="st59" d="M308.65,476.53c35.04-7.12,70.09-14.24,105.13-21.37c-19.17-59.12-38.34-118.24-57.51-177.36
				c-21.51,4.84-43.02,9.68-64.53,14.52C297.37,353.73,303.01,415.13,308.65,476.53z"/>
			<path class="st60" d="M308.65,476.53c34.73-7.18,69.45-14.36,104.18-21.54c-19.05-59.01-38.1-118.02-57.15-177.03
				c-21.31,4.79-42.62,9.58-63.94,14.36C297.37,353.73,303.01,415.13,308.65,476.53z"/>
			<path class="st61" d="M308.65,476.53c34.41-7.24,68.81-14.48,103.22-21.72c-18.93-58.9-37.86-117.8-56.79-176.7
				c-21.11,4.74-42.23,9.47-63.34,14.21C297.37,353.73,303.01,415.13,308.65,476.53z"/>
			<path class="st62" d="M308.65,476.53c34.09-7.3,68.18-14.6,102.27-21.9c-18.81-58.79-37.62-117.58-56.43-176.36
				c-20.92,4.68-41.83,9.37-62.75,14.05C297.37,353.73,303.01,415.13,308.65,476.53z"/>
			<path class="st63" d="M308.65,476.53c33.77-7.36,67.54-14.72,101.31-22.07c-18.69-58.68-37.38-117.35-56.06-176.03
				c-20.72,4.63-41.44,9.27-62.16,13.9C297.37,353.73,303.01,415.13,308.65,476.53z"/>
			<path class="st64" d="M308.65,476.53c33.45-7.42,66.9-14.84,100.35-22.25c-18.57-58.57-37.13-117.13-55.7-175.7
				c-20.52,4.58-41.04,9.16-61.57,13.74C297.37,353.73,303.01,415.13,308.65,476.53z"/>
			<path class="st65" d="M308.65,476.53c33.13-7.48,66.27-14.95,99.4-22.43c-18.45-58.46-36.89-116.91-55.34-175.37
				c-20.32,4.53-40.65,9.06-60.97,13.59C297.37,353.73,303.01,415.13,308.65,476.53z"/>
			<path class="st66" d="M308.65,476.53c32.81-7.53,65.63-15.07,98.44-22.61c-18.32-58.35-36.65-116.69-54.98-175.04
				c-20.13,4.48-40.25,8.96-60.38,13.43C297.37,353.73,303.01,415.13,308.65,476.53z"/>
			<path class="st67" d="M308.65,476.53c32.5-7.59,64.99-15.19,97.49-22.78c-18.2-58.23-36.41-116.47-54.61-174.7
				c-19.93,4.43-39.86,8.85-59.79,13.28C297.37,353.73,303.01,415.13,308.65,476.53z"/>
			<path class="st68" d="M308.65,476.53c32.18-7.65,64.36-15.31,96.53-22.96c-18.08-58.12-36.17-116.25-54.25-174.37
				c-19.73,4.37-39.46,8.75-59.19,13.12C297.37,353.73,303.01,415.13,308.65,476.53z"/>
			<path class="st69" d="M308.65,476.53c31.86-7.71,63.72-15.42,95.58-23.14c-17.96-58.01-35.92-116.03-53.89-174.04
				c-19.53,4.32-39.07,8.64-58.6,12.97C297.37,353.73,303.01,415.13,308.65,476.53z"/>
			<path class="st70" d="M308.65,476.54c31.54-7.77,63.08-15.54,94.62-23.31c-17.84-57.9-35.68-115.8-53.52-173.71
				c-19.34,4.27-38.67,8.54-58.01,12.81C297.37,353.73,303.01,415.13,308.65,476.54z"/>
			<path class="st71" d="M308.65,476.53c31.22-7.83,62.44-15.66,93.66-23.49c-17.72-57.79-35.44-115.58-53.16-173.37
				c-19.14,4.22-38.28,8.44-57.42,12.66C297.37,353.73,303.01,415.13,308.65,476.53z"/>
			<path class="st72" d="M308.65,476.53c30.9-7.89,61.81-15.78,92.71-23.67c-17.6-57.68-35.2-115.36-52.8-173.04
				c-18.94,4.17-37.88,8.33-56.82,12.5C297.37,353.73,303.01,415.13,308.65,476.53z"/>
			<path class="st73" d="M308.65,476.53c30.59-7.95,61.17-15.9,91.75-23.84c-17.48-57.57-34.96-115.14-52.44-172.71
				c-18.74,4.12-37.49,8.23-56.23,12.34C297.37,353.73,303.01,415.13,308.65,476.53z"/>
			<path class="st74" d="M308.65,476.53c30.26-8.01,60.53-16.01,90.8-24.02c-17.36-57.46-34.72-114.92-52.07-172.38
				c-18.55,4.06-37.09,8.13-55.64,12.19C297.37,353.73,303.01,415.13,308.65,476.53z"/>
			<path class="st75" d="M308.65,476.54c29.95-8.07,59.89-16.13,89.84-24.2c-17.24-57.35-34.47-114.7-51.71-172.05
				c-18.35,4.01-36.7,8.02-55.04,12.03C297.37,353.73,303.01,415.13,308.65,476.54z"/>
			<path class="st76" d="M308.65,476.53c29.63-8.12,59.26-16.25,88.89-24.37c-17.12-57.24-34.23-114.48-51.35-171.71
				c-18.15,3.96-36.3,7.92-54.45,11.88C297.37,353.73,303.01,415.13,308.65,476.53z"/>
			<path class="st77" d="M308.65,476.53c29.31-8.18,58.62-16.37,87.93-24.55c-17-57.13-33.99-114.25-50.99-171.38
				c-17.95,3.91-35.91,7.82-53.86,11.72C297.37,353.73,303.01,415.13,308.65,476.53z"/>
			<path class="st78" d="M308.65,476.53c28.99-8.24,57.98-16.49,86.98-24.73c-16.87-57.02-33.75-114.03-50.62-171.05
				c-17.76,3.86-35.51,7.71-53.27,11.57C297.37,353.73,303.01,415.13,308.65,476.53z"/>
			<path class="st79" d="M308.65,476.53c28.67-8.3,57.35-16.6,86.02-24.91c-16.75-56.9-33.51-113.81-50.26-170.71
				c-17.56,3.8-35.12,7.61-52.67,11.41C297.37,353.73,303.01,415.13,308.65,476.53z"/>
			<path class="st80" d="M308.65,476.54c28.36-8.36,56.71-16.72,85.06-25.08c-16.63-56.79-33.26-113.59-49.9-170.38
				c-17.36,3.75-34.72,7.5-52.08,11.26C297.37,353.73,303.01,415.13,308.65,476.54z"/>
		</g>
		<polygon class="st81" points="308.65,476.54 392.75,451.28 343.22,281.22 291.73,292.33 		"/>
		<polygon class="st82" points="20.83,483.54 229.49,469.7 210.65,269.85 58.1,299.33 		"/>
		<g>
			<path class="st83" d="M20.83,483.54c69.09-4.73,138.18-9.47,207.27-14.2c-6.18-66.47-12.36-132.93-18.54-199.4
				c-50.49,9.8-100.98,19.59-151.47,29.39C45.67,360.73,33.25,422.14,20.83,483.54z"/>
			<path class="st84" d="M20.83,483.54c68.63-4.85,137.25-9.71,205.88-14.56c-6.08-66.31-12.15-132.63-18.23-198.95
				c-50.13,9.77-100.26,19.53-150.39,29.3C45.67,360.73,33.25,422.14,20.83,483.54z"/>
			<path class="st85" d="M20.83,483.54c68.16-4.97,136.33-9.95,204.49-14.92c-5.97-66.17-11.95-132.33-17.92-198.5
				c-49.77,9.74-99.54,19.48-149.31,29.21C45.67,360.73,33.25,422.14,20.83,483.54z"/>
			<path class="st86" d="M20.83,483.54c67.7-5.09,135.4-10.19,203.1-15.28c-5.87-66.02-11.74-132.03-17.61-198.05
				c-49.41,9.71-98.82,19.42-148.23,29.12C45.67,360.73,33.25,422.14,20.83,483.54z"/>
			<path class="st87" d="M20.83,483.54c67.24-5.21,134.48-10.43,201.72-15.64c-5.77-65.87-11.54-131.73-17.31-197.6
				c-49.05,9.68-98.1,19.36-147.14,29.04C45.67,360.73,33.25,422.14,20.83,483.54z"/>
			<path class="st88" d="M20.83,483.54c66.77-5.33,133.55-10.67,200.32-16c-5.67-65.72-11.33-131.43-17-197.15
				c-48.69,9.65-97.37,19.3-146.06,28.95C45.67,360.73,33.25,422.14,20.83,483.54z"/>
			<path class="st89" d="M20.83,483.54c66.31-5.45,132.62-10.91,198.94-16.36c-5.56-65.57-11.13-131.14-16.69-196.7
				c-48.33,9.62-96.66,19.24-144.98,28.86C45.67,360.73,33.25,422.14,20.83,483.54z"/>
			<path class="st90" d="M20.83,483.54c65.85-5.57,131.7-11.15,197.55-16.72c-5.46-65.42-10.92-130.84-16.38-196.26
				c-47.97,9.59-95.93,19.18-143.9,28.77C45.67,360.73,33.25,422.14,20.83,483.54z"/>
			<path class="st91" d="M20.83,483.54c65.39-5.69,130.77-11.39,196.16-17.08c-5.36-65.27-10.72-130.54-16.07-195.81
				c-47.61,9.56-95.21,19.12-142.82,28.68C45.67,360.73,33.25,422.14,20.83,483.54z"/>
			<path class="st0" d="M20.83,483.54c64.92-5.81,129.85-11.63,194.77-17.44c-5.25-65.12-10.51-130.24-15.77-195.36
				c-47.25,9.53-94.49,19.06-141.74,28.59C45.67,360.73,33.25,422.14,20.83,483.54z"/>
			<path class="st1" d="M20.83,483.54c64.46-5.93,128.92-11.87,193.38-17.8c-5.15-64.97-10.31-129.94-15.46-194.91
				c-46.89,9.5-93.77,19-140.66,28.5C45.67,360.73,33.25,422.14,20.83,483.54z"/>
			<path class="st2" d="M20.83,483.54c64-6.05,127.99-12.11,191.99-18.16c-5.05-64.82-10.1-129.64-15.15-194.46
				c-46.52,9.47-93.05,18.94-139.58,28.41C45.67,360.73,33.25,422.14,20.83,483.54z"/>
			<path class="st4" d="M20.83,483.54c63.53-6.17,127.07-12.35,190.6-18.52c-4.95-64.67-9.89-129.34-14.84-194.01
				c-46.17,9.44-92.33,18.88-138.5,28.32C45.67,360.73,33.25,422.14,20.83,483.54z"/>
			<path class="st5" d="M20.83,483.54c63.07-6.29,126.14-12.59,189.21-18.88c-4.85-64.52-9.69-129.04-14.53-193.56
				c-45.81,9.41-91.61,18.82-137.41,28.24C45.67,360.73,33.25,422.14,20.83,483.54z"/>
			<path class="st6" d="M20.83,483.54c62.61-6.41,125.22-12.83,187.82-19.24c-4.74-64.37-9.48-128.74-14.23-193.12
				c-45.44,9.38-90.89,18.76-136.33,28.15C45.67,360.73,33.25,422.14,20.83,483.54z"/>
			<path class="st7" d="M20.83,483.54c62.14-6.53,124.29-13.07,186.43-19.6c-4.64-64.22-9.28-128.44-13.92-192.67
				c-45.08,9.35-90.17,18.71-135.25,28.06C45.67,360.73,33.25,422.14,20.83,483.54z"/>
			<path class="st8" d="M20.83,483.54c61.68-6.65,123.37-13.31,185.05-19.96c-4.54-64.07-9.07-128.15-13.61-192.22
				c-44.72,9.32-89.45,18.65-134.17,27.97C45.67,360.73,33.25,422.14,20.83,483.54z"/>
			<path class="st10" d="M20.83,483.54c61.22-6.77,122.44-13.55,183.66-20.32c-4.43-63.92-8.87-127.85-13.3-191.77
				c-44.36,9.29-88.73,18.59-133.09,27.88C45.67,360.73,33.25,422.14,20.83,483.54z"/>
			<path class="st92" d="M20.83,483.54c60.76-6.89,121.51-13.79,182.27-20.68c-4.33-63.77-8.66-127.55-12.99-191.32
				c-44,9.26-88.01,18.53-132.01,27.79C45.67,360.73,33.25,422.14,20.83,483.54z"/>
			<path class="st11" d="M20.83,483.54c60.29-7.01,120.58-14.03,180.88-21.04c-4.23-63.62-8.46-127.25-12.69-190.87
				c-43.64,9.23-87.28,18.47-130.93,27.7C45.67,360.73,33.25,422.14,20.83,483.54z"/>
			<path class="st12" d="M20.83,483.54c59.83-7.13,119.66-14.27,179.49-21.4c-4.13-63.47-8.25-126.95-12.38-190.42
				c-43.28,9.2-86.56,18.41-129.85,27.61C45.67,360.73,33.25,422.14,20.83,483.54z"/>
			<path class="st13" d="M20.83,483.54c59.37-7.25,118.73-14.51,178.1-21.76c-4.02-63.32-8.05-126.65-12.07-189.97
				c-42.92,9.18-85.84,18.35-128.76,27.52C45.67,360.73,33.25,422.14,20.83,483.54z"/>
			<path class="st15" d="M20.83,483.54c58.9-7.37,117.81-14.75,176.71-22.12c-3.92-63.18-7.84-126.35-11.76-189.53
				c-42.56,9.15-85.12,18.29-127.68,27.44C45.67,360.73,33.25,422.14,20.83,483.54z"/>
			<path class="st16" d="M20.83,483.54c58.44-7.49,116.88-14.98,175.32-22.48c-3.82-63.03-7.64-126.05-11.46-189.08
				c-42.2,9.12-84.4,18.23-126.6,27.35C45.67,360.73,33.25,422.14,20.83,483.54z"/>
			<path class="st17" d="M20.83,483.54c57.98-7.61,115.95-15.22,173.93-22.84c-3.72-62.88-7.43-125.75-11.15-188.63
				c-41.84,9.09-83.68,18.17-125.52,27.26C45.67,360.73,33.25,422.14,20.83,483.54z"/>
			<path class="st18" d="M20.83,483.54c57.51-7.73,115.03-15.46,172.54-23.2c-3.61-62.73-7.23-125.45-10.84-188.18
				c-41.48,9.06-82.96,18.11-124.44,27.17C45.67,360.73,33.25,422.14,20.83,483.54z"/>
			<path class="st19" d="M20.83,483.54c57.05-7.85,114.1-15.7,171.15-23.56c-3.51-62.58-7.02-125.15-10.53-187.73
				c-41.12,9.03-82.24,18.05-123.36,27.08C45.67,360.73,33.25,422.14,20.83,483.54z"/>
			<path class="st21" d="M20.83,483.54c56.59-7.97,113.18-15.94,169.77-23.92c-3.41-62.43-6.82-124.85-10.22-187.28
				c-40.76,9-81.52,17.99-122.28,26.99C45.67,360.73,33.25,422.14,20.83,483.54z"/>
			<path class="st22" d="M20.83,483.54c56.13-8.09,112.25-16.18,168.38-24.28c-3.31-62.28-6.61-124.55-9.92-186.83
				c-40.4,8.97-80.8,17.93-121.2,26.9C45.67,360.73,33.25,422.14,20.83,483.54z"/>
			<path class="st23" d="M20.83,483.54c55.66-8.21,111.32-16.42,166.99-24.64c-3.2-62.13-6.41-124.26-9.61-186.38
				c-40.04,8.94-80.08,17.88-120.12,26.81C45.67,360.73,33.25,422.14,20.83,483.54z"/>
			<path class="st24" d="M20.83,483.54c55.2-8.33,110.4-16.66,165.6-25c-3.1-61.98-6.2-123.96-9.3-185.94
				c-39.68,8.91-79.35,17.82-119.03,26.72C45.67,360.73,33.25,422.14,20.83,483.54z"/>
			<path class="st25" d="M20.83,483.54c54.74-8.45,109.47-16.9,164.21-25.36c-3-61.83-5.99-123.66-8.99-185.49
				c-39.32,8.88-78.64,17.76-117.95,26.63C45.67,360.73,33.25,422.14,20.83,483.54z"/>
			<path class="st27" d="M20.83,483.54c54.27-8.57,108.55-17.14,162.82-25.72c-2.9-61.68-5.79-123.36-8.69-185.04
				c-38.96,8.85-77.91,17.7-116.87,26.55C45.67,360.73,33.25,422.14,20.83,483.54z"/>
			<path class="st28" d="M20.83,483.54c53.81-8.69,107.62-17.38,161.43-26.08c-2.79-61.53-5.58-123.06-8.38-184.59
				c-38.6,8.82-77.19,17.64-115.79,26.46C45.67,360.73,33.25,422.14,20.83,483.54z"/>
			<path class="st29" d="M20.83,483.54c53.35-8.81,106.69-17.62,160.04-26.44c-2.69-61.38-5.38-122.76-8.07-184.14
				c-38.24,8.79-76.47,17.58-114.71,26.37C45.67,360.73,33.25,422.14,20.83,483.54z"/>
			<path class="st30" d="M20.83,483.54c52.88-8.93,105.77-17.86,158.65-26.79c-2.59-61.23-5.17-122.46-7.76-183.69
				c-37.87,8.76-75.75,17.52-113.63,26.28C45.67,360.73,33.25,422.14,20.83,483.54z"/>
			<path class="st93" d="M20.83,483.54c52.42-9.05,104.84-18.1,157.26-27.15c-2.48-61.08-4.97-122.16-7.45-183.24
				c-37.51,8.73-75.03,17.46-112.55,26.19C45.67,360.73,33.25,422.14,20.83,483.54z"/>
			<path class="st32" d="M20.83,483.54c51.96-9.17,103.92-18.34,155.87-27.51c-2.38-60.93-4.76-121.86-7.14-182.8
				c-37.16,8.7-74.31,17.4-111.47,26.1C45.67,360.73,33.25,422.14,20.83,483.54z"/>
			<path class="st33" d="M20.83,483.54c51.5-9.29,102.99-18.58,154.49-27.87c-2.28-60.78-4.56-121.56-6.84-182.35
				c-36.8,8.67-73.59,17.34-110.39,26.01C45.67,360.73,33.25,422.14,20.83,483.54z"/>
			<path class="st34" d="M20.83,483.54c51.03-9.41,102.07-18.82,153.1-28.23c-2.18-60.63-4.35-121.27-6.53-181.9
				c-36.43,8.64-72.87,17.28-109.3,25.92C45.67,360.73,33.25,422.14,20.83,483.54z"/>
			<path class="st35" d="M20.83,483.54c50.57-9.53,101.14-19.06,151.71-28.59c-2.07-60.48-4.15-120.97-6.22-181.45
				c-36.07,8.61-72.15,17.22-108.22,25.83C45.67,360.73,33.25,422.14,20.83,483.54z"/>
			<path class="st36" d="M20.83,483.54c50.11-9.65,100.21-19.3,150.32-28.95c-1.97-60.33-3.94-120.67-5.91-181
				c-35.71,8.58-71.43,17.16-107.14,25.74C45.67,360.73,33.25,422.14,20.83,483.54z"/>
			<path class="st37" d="M20.83,483.54c49.64-9.77,99.29-19.54,148.93-29.31c-1.87-60.18-3.74-120.37-5.61-180.55
				c-35.35,8.55-70.71,17.1-106.06,25.66C45.67,360.73,33.25,422.14,20.83,483.54z"/>
			<path class="st39" d="M20.83,483.54c49.18-9.89,98.36-19.78,147.54-29.67c-1.76-60.03-3.53-120.07-5.3-180.1
				c-34.99,8.52-69.99,17.05-104.98,25.57C45.67,360.73,33.25,422.14,20.83,483.54z"/>
			<path class="st40" d="M20.83,483.54c48.72-10.01,97.43-20.02,146.15-30.03c-1.66-59.88-3.33-119.77-4.99-179.65
				c-34.63,8.49-69.26,16.99-103.9,25.48C45.67,360.73,33.25,422.14,20.83,483.54z"/>
			<path class="st41" d="M20.83,483.54c48.25-10.13,96.51-20.26,144.76-30.39c-1.56-59.74-3.12-119.47-4.68-179.21
				c-34.27,8.46-68.55,16.93-102.82,25.39C45.67,360.73,33.25,422.14,20.83,483.54z"/>
			<path class="st42" d="M20.83,483.54c47.79-10.25,95.58-20.5,143.37-30.75c-1.46-59.59-2.92-119.17-4.37-178.76
				c-33.91,8.43-67.82,16.87-101.74,25.3C45.67,360.73,33.25,422.14,20.83,483.54z"/>
			<path class="st43" d="M20.83,483.54c47.33-10.37,94.66-20.74,141.98-31.11c-1.35-59.44-2.71-118.87-4.07-178.31
				c-33.55,8.4-67.1,16.81-100.65,25.21C45.67,360.73,33.25,422.14,20.83,483.54z"/>
			<path class="st45" d="M20.83,483.54c46.87-10.49,93.73-20.98,140.6-31.47c-1.25-59.29-2.51-118.57-3.76-177.86
				c-33.19,8.37-66.38,16.75-99.57,25.12C45.67,360.73,33.25,422.14,20.83,483.54z"/>
			<path class="st46" d="M20.83,483.54c46.4-10.61,92.8-21.22,139.21-31.83c-1.15-59.14-2.3-118.27-3.45-177.41
				c-32.83,8.35-65.66,16.69-98.49,25.03C45.67,360.73,33.25,422.14,20.83,483.54z"/>
			<path class="st47" d="M20.83,483.54c45.94-10.73,91.88-21.46,137.82-32.19c-1.05-58.99-2.09-117.98-3.14-176.96
				c-32.47,8.32-64.94,16.63-97.41,24.95C45.67,360.73,33.25,422.14,20.83,483.54z"/>
			<path class="st48" d="M20.83,483.54c45.48-10.85,90.95-21.7,136.43-32.55c-0.95-58.84-1.89-117.68-2.84-176.51
				c-32.11,8.29-64.22,16.57-96.33,24.86C45.67,360.73,33.25,422.14,20.83,483.54z"/>
			<path class="st49" d="M20.83,483.54c45.01-10.97,90.03-21.94,135.04-32.91c-0.84-58.69-1.68-117.38-2.52-176.07
				c-31.75,8.26-63.5,16.51-95.25,24.77C45.67,360.73,33.25,422.14,20.83,483.54z"/>
			<path class="st94" d="M20.83,483.54c44.55-11.09,89.1-22.18,133.65-33.27c-0.74-58.54-1.48-117.08-2.22-175.62
				c-31.39,8.23-62.78,16.45-94.17,24.68C45.67,360.73,33.25,422.14,20.83,483.54z"/>
			<path class="st51" d="M20.83,483.54c44.09-11.21,88.17-22.42,132.26-33.63c-0.64-58.39-1.27-116.78-1.91-175.17
				c-31.03,8.2-62.06,16.39-93.09,24.59C45.67,360.73,33.25,422.14,20.83,483.54z"/>
			<path class="st52" d="M20.83,483.54c43.62-11.33,87.25-22.66,130.87-33.99c-0.53-58.24-1.07-116.48-1.6-174.72
				c-30.67,8.17-61.34,16.33-92.01,24.5C45.67,360.73,33.25,422.14,20.83,483.54z"/>
			<path class="st53" d="M20.83,483.54c43.16-11.45,86.32-22.9,129.48-34.35c-0.43-58.09-0.86-116.18-1.29-174.27
				c-30.31,8.14-60.62,16.27-90.92,24.41C45.67,360.73,33.25,422.14,20.83,483.54z"/>
			<path class="st54" d="M20.83,483.54c42.7-11.57,85.4-23.14,128.09-34.71c-0.33-57.94-0.66-115.88-0.99-173.82
				c-29.95,8.11-59.89,16.22-89.84,24.32C45.67,360.73,33.25,422.14,20.83,483.54z"/>
			<path class="st56" d="M20.83,483.54c42.23-11.69,84.47-23.38,126.7-35.07c-0.23-57.79-0.45-115.58-0.68-173.37
				c-29.59,8.08-59.17,16.16-88.76,24.23C45.67,360.73,33.25,422.14,20.83,483.54z"/>
			<path class="st57" d="M20.83,483.54c41.77-11.81,83.54-23.62,125.32-35.43c-0.12-57.64-0.25-115.28-0.37-172.92
				c-29.23,8.05-58.45,16.1-87.68,24.14C45.67,360.73,33.25,422.14,20.83,483.54z"/>
			<path class="st58" d="M20.83,483.54c41.31-11.93,82.62-23.86,123.93-35.79c-0.02-57.49-0.04-114.98-0.06-172.48
				c-28.86,8.02-57.73,16.04-86.6,24.06C45.67,360.73,33.25,422.14,20.83,483.54z"/>
			<path class="st59" d="M20.83,483.54c40.85-12.05,81.69-24.1,122.54-36.15c0.08-57.34,0.16-114.68,0.25-172.03
				c-28.51,7.99-57.01,15.98-85.52,23.97C45.67,360.73,33.25,422.14,20.83,483.54z"/>
			<path class="st60" d="M20.83,483.54c40.38-12.17,80.77-24.34,121.15-36.51c0.19-57.19,0.37-114.39,0.55-171.58
				c-28.15,7.96-56.29,15.92-84.44,23.88C45.67,360.73,33.25,422.14,20.83,483.54z"/>
			<path class="st62" d="M20.83,483.54c39.92-12.29,79.84-24.58,119.76-36.87c0.29-57.04,0.57-114.09,0.86-171.13
				c-27.78,7.93-55.57,15.86-83.35,23.79C45.67,360.73,33.25,422.14,20.83,483.54z"/>
			<path class="st63" d="M20.83,483.54c39.46-12.41,78.91-24.82,118.37-37.23c0.39-56.89,0.78-113.79,1.17-170.68
				c-27.43,7.9-54.85,15.8-82.27,23.7C45.67,360.73,33.25,422.14,20.83,483.54z"/>
			<path class="st64" d="M20.83,483.54c38.99-12.53,77.99-25.06,116.98-37.59c0.49-56.74,0.98-113.49,1.48-170.23
				c-27.06,7.87-54.13,15.74-81.19,23.61C45.67,360.73,33.25,422.14,20.83,483.54z"/>
			<path class="st65" d="M20.83,483.54c38.53-12.65,77.06-25.3,115.59-37.95c0.6-56.59,1.19-113.19,1.79-169.78
				c-26.7,7.84-53.41,15.68-80.11,23.52C45.67,360.73,33.25,422.14,20.83,483.54z"/>
			<path class="st66" d="M20.83,483.54c38.07-12.77,76.14-25.54,114.2-38.31c0.7-56.45,1.39-112.89,2.09-169.33
				c-26.35,7.81-52.69,15.62-79.03,23.43C45.67,360.73,33.25,422.14,20.83,483.54z"/>
			<path class="st68" d="M20.83,483.54c37.6-12.89,75.21-25.78,112.81-38.67c0.8-56.3,1.6-112.59,2.4-168.89
				c-25.98,7.78-51.97,15.56-77.95,23.35C45.67,360.73,33.25,422.14,20.83,483.54z"/>
			<path class="st69" d="M20.83,483.54c37.14-13.01,74.28-26.02,111.43-39.03c0.9-56.15,1.81-112.29,2.71-168.44
				c-25.62,7.75-51.25,15.5-76.87,23.26C45.68,360.73,33.25,422.14,20.83,483.54z"/>
			<path class="st70" d="M20.83,483.54c36.68-13.13,73.36-26.26,110.04-39.39c1-56,2.01-111.99,3.02-167.99
				c-25.26,7.72-50.53,15.45-75.79,23.17C45.67,360.73,33.25,422.14,20.83,483.54z"/>
			<path class="st95" d="M20.83,483.54c36.22-13.25,72.43-26.5,108.65-39.75c1.11-55.85,2.22-111.69,3.33-167.54
				c-24.9,7.69-49.8,15.39-74.71,23.08C45.67,360.73,33.25,422.14,20.83,483.54z"/>
			<path class="st71" d="M20.83,483.54c35.75-13.37,71.51-26.74,107.26-40.11c1.21-55.7,2.42-111.39,3.63-167.09
				c-24.54,7.66-49.08,15.33-73.62,22.99C45.68,360.73,33.25,422.14,20.83,483.54z"/>
			<path class="st73" d="M20.83,483.54c35.29-13.49,70.58-26.98,105.87-40.47c1.31-55.55,2.63-111.1,3.94-166.64
				c-24.18,7.63-48.36,15.27-72.54,22.9C45.67,360.73,33.25,422.14,20.83,483.54z"/>
			<path class="st74" d="M20.83,483.54c34.83-13.61,69.65-27.22,104.48-40.83c1.42-55.4,2.83-110.8,4.25-166.19
				c-23.82,7.6-47.64,15.21-71.46,22.81C45.67,360.73,33.25,422.14,20.83,483.54z"/>
			<path class="st75" d="M20.83,483.54c34.36-13.73,68.73-27.46,103.09-41.18c1.52-55.25,3.04-110.5,4.56-165.75
				c-23.46,7.57-46.92,15.15-70.38,22.72C45.67,360.73,33.25,422.14,20.83,483.54z"/>
			<path class="st76" d="M20.83,483.54c33.9-13.85,67.8-27.7,101.7-41.54c1.62-55.1,3.24-110.2,4.86-165.3
				c-23.1,7.54-46.2,15.09-69.3,22.63C45.67,360.73,33.25,422.14,20.83,483.54z"/>
			<path class="st77" d="M20.83,483.54c33.44-13.97,66.88-27.94,100.31-41.91c1.72-54.95,3.45-109.9,5.17-164.85
				c-22.74,7.51-45.48,15.03-68.22,22.54C45.67,360.73,33.25,422.14,20.83,483.54z"/>
			<path class="st79" d="M20.83,483.54c32.97-14.09,65.95-28.18,98.92-42.27c1.83-54.8,3.65-109.6,5.48-164.4
				c-22.38,7.49-44.76,14.97-67.14,22.46C45.67,360.73,33.25,422.14,20.83,483.54z"/>
			<path class="st80" d="M20.83,483.54c32.51-14.21,65.02-28.42,97.53-42.62c1.93-54.65,3.86-109.3,5.79-163.95
				c-22.02,7.46-44.04,14.91-66.06,22.37C45.67,360.73,33.25,422.14,20.83,483.54z"/>
		</g>
		<polygon class="st81" points="20.83,483.54 116.98,440.56 123.07,277.05 58.1,299.33 		"/>
		<polygon class="st56" points="269.56,274.12 394.37,235.93 487,423.23 308.65,476.53 195.43,404.27 20.83,483.54 64.78,266.32 
			186.11,208.73 		"/>
		<g>
			<path class="st96" d="M195.56,402.48c-28.77,13.08-57.55,26.13-86.3,39.19c-28.75,13.05-57.52,26.13-86.26,39.16
				c7.2-35.54,14.39-71.13,21.59-106.67c7.2-35.57,14.39-71.16,21.59-106.75c19.95-9.49,39.89-18.95,59.85-28.43
				c19.94-9.47,39.93-18.92,59.9-28.4c1.61,32,3.21,64.02,4.82,96C192.33,338.54,193.93,370.51,195.56,402.48z"/>
			<g>
				<path class="st97" d="M195.28,397.24c-26.94,12.24-53.87,24.5-80.78,36.73c-26.91,12.23-53.86,24.46-80.76,36.67
					c6.33-33.43,12.67-66.84,19-100.27c6.33-33.43,12.67-66.86,19-100.32c19.07-9.03,38.13-18.08,57.2-27.11
					c19.06-9.02,38.14-18.03,57.22-27.08c1.52,30.24,3.04,60.46,4.56,90.7C192.24,336.78,193.76,367.02,195.28,397.24z"/>
				<g>
					<path class="st96" d="M193.95,370.86c-9.77,8.97-19.67,17.99-29.73,27.05c-10.16,9.15-20.55,18.3-31.03,27.54
						c6.38-2.89,12.79-5.78,19.19-8.73c7.16-6.32,14.29-12.64,21.29-18.94c6.96-6.26,13.86-12.51,20.69-18.78
						C194.23,376.29,194.09,373.56,193.95,370.86z"/>
					<path class="st96" d="M190.1,294.11c-22.47,10.43-44.94,20.84-67.39,31.24c-22.45,10.4-44.9,20.84-67.35,31.24
						c-0.45,2.35-0.9,4.7-1.35,7.05c22.73-10.54,45.47-21.06,68.2-31.59c22.7-10.52,45.45-21.03,68.2-31.57
						C190.31,298.35,190.21,296.24,190.1,294.11z"/>
					<path class="st96" d="M190.43,300.65c-6.66,1.24-13.27,2.49-19.83,3.65c-1.86,2.65-3.76,5.32-5.64,7.97
						c8.52-1.54,17.13-3.14,25.81-4.78C190.65,305.21,190.55,302.95,190.43,300.65z"/>
					<path class="st96" d="M40.95,432.56c24.16-16.73,47.93-33.29,71.18-49.73c22.85-16.15,45.25-32.27,67.2-48.13
						c-1.4-1.33-2.78-2.68-4.16-4.08c-21.09,15.27-42.55,30.84-64.51,46.4c-22.29,15.81-45.09,31.73-68.27,47.83
						C41.92,427.42,41.44,429.99,40.95,432.56z"/>
					<path class="st96" d="M179.8,393.37c2.16-2.78,4.31-5.54,6.45-8.32c-17.71,1.87-35.06,3.67-52.05,5.19
						c-16.61,1.48-32.91,2.73-48.82,3.86c-2.31,2.84-4.64,5.7-6.95,8.54c16-1.19,32.38-2.49,49.08-4
						C144.58,397.1,162.01,395.26,179.8,393.37z"/>
					<path class="st96" d="M123.87,392.1c1.28,1.43,2.57,2.81,3.9,4.22c11.11-8.13,22.13-16.23,32.99-24.27
						c10.81-7.99,21.47-15.97,32.05-23.92c-0.02-0.54-0.05-1.11-0.09-1.68c-1.14-0.97-2.26-2.03-3.38-3.03
						c-10.63,8-21.37,16.07-32.24,24.13C146.16,375.69,135.05,383.89,123.87,392.1z"/>
					<path class="st96" d="M48.99,390.16c16.79-9.84,33.45-19.66,50.01-29.4c16.42-9.66,32.74-19.32,48.92-28.94
						c-0.29-2.03-0.6-4-0.9-6.03c-15.81,9.41-31.72,18.91-47.78,28.4c-16.18,9.56-32.48,19.16-48.91,28.81
						C49.89,385.4,49.44,387.78,48.99,390.16z"/>
					<path class="st96" d="M131.21,366.43c2.11-2.76,4.23-5.51,6.35-8.27c-6.59-0.24-13.12-0.51-19.54-0.84
						c-6.33-0.32-12.63-0.68-18.81-1.11c-2.17,2.81-4.37,5.57-6.56,8.35c6.21,0.41,12.55,0.79,18.91,1.08
						C118.02,365.94,124.56,366.21,131.21,366.43z"/>
					<path class="st96" d="M187.48,242.14c-20.24,6.65-40.22,13.14-59.95,19.54c-19.48,6.33-38.72,12.51-57.72,18.62
						c-0.45,2.35-0.9,4.7-1.33,7.05c19.26-6.22,38.78-12.5,58.55-18.95c20.01-6.52,40.26-13.13,60.78-19.89
						C187.7,246.41,187.6,244.27,187.48,242.14z"/>
					<path class="st96" d="M126.17,323.05c1.12,1.49,2.23,2.95,3.38,4.43c10.46-12.05,20.71-23.93,30.56-35.78
						c9.7-11.66,19.02-23.27,28.11-34.78c-0.14-2.84-0.28-5.7-0.41-8.57c-9.52,12.16-19.29,24.51-29.46,36.81
						C147.99,297.7,137.19,310.3,126.17,323.05z"/>
					<path class="st96" d="M163.54,285.46c2.28-2.95,4.54-5.92,6.8-8.89c-18.19,5.92-36.2,11.76-54.01,17.54
						c-17.62,5.71-35.08,11.32-52.32,16.84c-0.47,2.4-0.92,4.84-1.38,7.27c16.39-5.3,32.97-10.66,49.7-16.08
						C129.23,296.66,146.29,291.11,163.54,285.46z"/>
					<path class="st96" d="M55.24,357.16c17.69-21.46,34.78-42.47,50.75-63.46c15.52-20.39,29.96-40.7,43.76-60.59
						c-3,1.43-6.02,2.84-9.04,4.27c-12.43,17.68-25.31,35.74-39.07,53.78c-14.09,18.47-29.06,37.02-44.49,55.92
						C56.52,350.43,55.88,353.81,55.24,357.16z"/>
					<path class="st96" d="M140.82,311.59c2.43-3.03,4.87-6.08,7.28-9.11c-11.7,3.7-23.29,7.39-34.84,11.05
						c-11.44,3.63-22.81,7.19-34.12,10.7c-2.61,3.16-5.26,6.27-7.9,9.4c11.39-3.57,22.87-7.17,34.43-10.84
						C117.3,319.12,129.01,315.38,140.82,311.59z"/>
					<path class="st96" d="M188.65,265.46c-7.92,3.7-15.82,7.41-23.73,11.08c-3.35,3.97-6.73,7.95-10.15,11.94
						c5.71-2.65,11.41-5.28,17.12-7.94c5.7-2.66,11.41-5.32,17.12-8C188.9,270.16,188.77,267.81,188.65,265.46z"/>
					<path class="st96" d="M186.5,222.3c-7.11,2.49-14.18,4.96-21.22,7.41c-6.98,2.42-13.98,4.81-20.93,7.19
						c-2.12,2.94-4.26,5.86-6.42,8.75c8.06-2.78,16.15-5.57,24.28-8.38c8.16-2.82,16.36-5.68,24.61-8.57
						C186.7,226.57,186.6,224.44,186.5,222.3z"/>
					<path class="st98" d="M121.59,325.21c5.02-0.68,12.1-1.52,20.07-1.73c8.09-0.22,17.22,0.22,26.23,2.24
						c8.41,1.78,16.81,4.86,24.3,9.95c0.31,6.05,0.6,12.14,0.92,18.19c-8.85-11.35-21.14-17.03-33.51-19.62
						c-8.35-1.92-16.88-2.27-24.47-2.05c-7.49,0.21-14.13,1.03-18.86,1.65C118.06,330.97,119.82,328.08,121.59,325.21z"/>
					<path class="st96" d="M191.41,341.16c0.36,0.3,0.72,0.62,1.1,0.92c-0.03-0.59-0.07-1.22-0.1-1.81
						C192.09,340.56,191.74,340.86,191.41,341.16z"/>
					<path class="st99" d="M167.74,282.46c-9.89,11.94-20.04,23.97-30.46,36.13c8.78-4.08,17.6-8.17,26.4-12.24
						c8.78-4.06,17.6-8.14,26.42-12.24c-0.36-7.24-0.72-14.49-1.09-21.7C181.91,275.78,174.83,279.11,167.74,282.46z"/>
					<path class="st99" d="M105.96,356.64c10.32,0.59,20.85,1.11,31.6,1.51c10.01-7.3,19.91-14.57,29.71-21.78
						c-6.56-1.46-12.99-3-19.34-4.57c-6.96,4.13-13.92,8.29-20.9,12.4C120.03,348.34,113,352.51,105.96,356.64z"/>
					<path class="st99" d="M116.02,271.97c-7.23,9.76-14.63,19.54-22.23,29.4c-9.99,3.22-19.92,6.43-29.79,9.57
						c1.48-7.86,2.97-15.7,4.47-23.59c7.82-2.49,15.67-5.05,23.57-7.59C100.01,277.19,107.98,274.57,116.02,271.97z"/>
					<path class="st96" d="M130.6,290.95c-3.64,1.19-7.26,2.35-10.85,3.51c-6.33,8.81-12.79,17.73-19.4,26.62
						c-6.68,9-13.6,18.03-20.59,27.11c4.09-1.59,8.2-3.16,12.32-4.78c6.73-8.86,13.38-17.66,19.83-26.43
						C118.29,308.29,124.49,299.57,130.6,290.95z"/>
				</g>
			</g>
		</g>
		<polygon class="st100" points="186.11,208.73 195.43,404.27 308.65,476.53 269.56,274.12 		"/>
		<g>
			<path class="st36" d="M308.9,474.82c-18.9-12.08-37.81-24.15-56.69-36.2c-18.88-12.05-37.78-24.13-56.66-36.15
				c-1.61-31.95-3.22-63.95-4.82-95.92c-1.6-31.97-3.21-63.97-4.81-95.97c13.87,10.89,27.75,21.78,41.64,32.66
				c13.87,10.87,27.77,21.77,41.66,32.63c6.63,33.19,13.24,66.35,19.85,99.51C295.69,408.52,302.3,441.68,308.9,474.82z"/>
			<g>
				<path class="st97" d="M307.82,469.37c-18.77-12.02-37.53-24.05-56.29-36.1c-18.74-12.03-37.51-24.07-56.25-36.04
					c-1.51-30.23-3.04-60.46-4.55-90.69c-1.51-30.23-3.04-60.43-4.55-90.69c14.02,10.94,28.04,21.85,42.06,32.77
					c14.02,10.91,28.06,21.83,42.1,32.74c6.25,31.34,12.49,62.68,18.74,94.02C295.32,406.72,301.57,438.03,307.82,469.37z"/>
				<g>
					<path class="st36" d="M287.33,366.61c-13.98,1.11-28.61,2.14-43.85,2.83c-15.87,0.71-32.39,1.06-49.52,1.4
						c0.15,2.72,0.28,5.44,0.42,8.17c17.34-0.32,34.08-0.65,50.15-1.3c15.46-0.62,30.29-1.59,44.49-2.64
						C288.46,372.26,287.9,369.44,287.33,366.61z"/>
					<path class="st36" d="M286.51,362.46c-16.07-11.39-32.15-22.79-48.22-34.19c-16.05-11.4-32.13-22.78-48.18-34.17
						c0.11,2.14,0.22,4.25,0.32,6.37c16.22,11.42,32.45,22.86,48.69,34.3c16.22,11.44,32.47,22.88,48.71,34.3
						C287.38,366.87,286.95,364.68,286.51,362.46z"/>
					<path class="st36" d="M290.84,384.15c-8.61-8.24-15.72-19.49-17.23-27.96c-1.51-8.47,2.73-11.71,9.89-8.83
						C285.94,359.63,288.39,371.89,290.84,384.15z"/>
					<path class="st99" d="M289.45,377.23c-4.69-5.2-8.36-11.48-9.28-16.41c-0.93-4.93,1.04-7.21,4.71-6.53
						C286.41,361.96,287.92,369.59,289.45,377.23z"/>
					<path class="st36" d="M257.14,377.15c1.08-0.9,2.15-1.77,3.22-2.64c-12.05-12.39-24.01-24.74-35.69-37.07
						c-11.61-12.26-23-24.58-34.24-36.78c0.11,2.27,0.23,4.54,0.35,6.82c10.7,11.52,21.54,23.14,32.55,34.7
						C234.44,353.81,245.73,365.45,257.14,377.15z"/>
					<path class="st96" d="M192.82,348.14c0.2,0.05,0.42,0.11,0.64,0.16c-0.24-0.61-0.49-1.24-0.72-1.85
						C192.76,347.03,192.78,347.58,192.82,348.14z"/>
					<path class="st36" d="M279.49,327.26c-15.73-14.24-31.34-28.48-46.71-42.7c-15.28-14.13-30.34-28.33-45.28-42.44
						c0.11,2.14,0.22,4.28,0.32,6.4c15.1,14.16,30.33,28.37,45.77,42.54c15.53,14.26,31.32,28.54,47.22,42.83
						C280.37,331.68,279.93,329.48,279.49,327.26z"/>
					<path class="st36" d="M188.25,256.92c2.23-0.87,4.43-1.74,6.62-2.67c-0.92-2.56-1.82-5.1-2.72-7.66
						c-1.44,0.58-2.89,1.16-4.33,1.77C187.95,251.21,188.1,254.07,188.25,256.92z"/>
					<path class="st36" d="M211.74,267.62c1.84,2.33,3.69,4.62,5.55,6.9c4.82-2.11,9.55-4.26,14.12-6.47
						c4.5-2.18,8.83-4.52,13.07-6.82c-2.48-1.9-4.96-3.83-7.44-5.76c-3.96,2.09-8.03,4.18-12.2,6.18
						C220.58,263.69,216.2,265.64,211.74,267.62z"/>
					<path class="st36" d="M212.71,312.04c2.07,2.46,4.13,4.91,6.21,7.37c-0.16-15.14-0.39-30.31-0.69-45.48
						c-1.93-2.4-3.86-4.84-5.77-7.27C212.61,281.81,212.7,296.95,212.71,312.04z"/>
					<path class="st36" d="M219.52,294.68c-0.42-2.51-0.84-5.02-1.27-7.56c-4.93-3.62-9.87-7.21-14.81-10.83
						c-4.93-3.62-9.86-7.24-14.78-10.83c0.12,2.35,0.25,4.7,0.36,7.08c5.07,3.67,10.16,7.4,15.24,11.07
						C209.34,287.28,214.44,291.01,219.52,294.68z"/>
					<path class="st36" d="M280.91,334.42c-11.08-8.32-22.14-16.67-33.18-25c-11.03-8.32-22.06-16.67-33.08-25.02
						c-0.04,2.22-0.07,4.44-0.12,6.68c11.28,8.46,22.58,16.94,33.88,25.39c11.31,8.46,22.65,16.96,33.99,25.42
						C281.91,339.42,281.4,336.91,280.91,334.42z"/>
					<path class="st36" d="M234.52,329.77c2.45,1.35,4.89,2.7,7.34,4.04c-1.28-9.12-2.55-18.23-3.8-27.35
						c-2.31-1.06-4.62-2.09-6.95-3.17C232.25,312.15,233.38,320.95,234.52,329.77z"/>
					<path class="st36" d="M258.6,346.13c2.42,1.32,4.85,2.67,7.27,3.96c-1.61-9.17-3.22-18.37-4.85-27.59
						c-2.26-1-4.55-2.06-6.84-3.12C255.66,328.32,257.12,337.2,258.6,346.13z"/>
					<path class="st36" d="M227.71,266.57c1.23-0.79,2.44-1.61,3.65-2.41c-7.56-6.98-15.11-13.96-22.59-20.93
						c-7.48-6.96-14.88-13.93-22.27-20.93c0.11,2.14,0.22,4.25,0.32,6.4c6.74,6.31,13.52,12.6,20.32,18.89
						C213.96,253.91,220.82,260.25,227.71,266.57z"/>
					<path class="st36" d="M200.98,237.68c2.19,2.43,4.37,4.86,6.55,7.29c1.98-2.64,3.92-5.29,5.83-7.93
						c-2.5-1.98-4.99-3.91-7.49-5.84C204.26,233.38,202.64,235.54,200.98,237.68z"/>
					<path class="st36" d="M299.08,425.51c-11.38-8.8-22.7-17.56-33.97-26.34c-11.24-8.76-22.41-17.52-33.55-26.29
						c0.33,2.19,0.68,4.44,1.01,6.66c11.18,8.72,22.41,17.48,33.71,26.24c11.3,8.76,22.69,17.52,34.1,26.29
						C299.95,429.89,299.52,427.7,299.08,425.51z"/>
					<path class="st36" d="M303.88,449.61c-16.97-12.74-33.85-25.43-50.63-38.13c-16.7-12.64-33.29-25.31-49.82-37.97
						c0.25,2.22,0.49,4.39,0.74,6.58c16.63,12.66,33.3,25.31,50.11,37.97c16.86,12.7,33.83,25.37,50.9,38.1
						C304.76,453.97,304.31,451.8,303.88,449.61z"/>
					<path class="st36" d="M224.31,393.43c3.3,2.91,6.6,5.81,9.91,8.69c4.61-0.5,9.17-1.05,13.68-1.61
						c4.45-0.55,8.85-1.14,13.2-1.74c-3.24-2.85-6.47-5.73-9.69-8.61c-4.39,0.58-8.83,1.15-13.32,1.69
						C233.54,392.39,228.94,392.9,224.31,393.43z"/>
					<path class="st101" d="M192.2,335.66c6.23,13.77,11.63,28.96,15.06,45.32c-2.67-1.45-5.36-2.91-8.04-4.36
						c-1.6-7.93-3.68-15.51-6.11-22.78C192.8,347.79,192.5,341.72,192.2,335.66z"/>
					<path class="st36" d="M192.52,342.06c0.76,1.98,1.54,3.94,2.31,5.87c6.64,0.53,13.2,0.96,19.66,1.4
						c6.37,0.43,12.68,0.85,18.9,1.24c-1.13-2.62-2.23-5.21-3.33-7.82c-6.08-0.37-12.23-0.72-18.45-1.14
						c-6.32-0.43-12.72-0.9-19.19-1.37C192.45,340.87,192.49,341.48,192.52,342.06z"/>
					<path class="st36" d="M229.97,419.46c1.87-5.68,3.71-11.39,5.5-17.07c-2.64-2.62-5.26-5.15-7.88-7.74
						c-2.1,6.37-4.24,12.79-6.47,19.13C224.06,415.68,227.01,417.53,229.97,419.46z"/>
					<path class="st36" d="M293.15,395.75c-6.71-4.6-13.43-9.18-20.12-13.77c-6.71-4.61-13.4-9.22-20.12-13.82
						c0,2.14-0.02,4.28-0.02,6.45c6.95,4.76,13.91,9.49,20.84,14.22c6.94,4.73,13.9,9.46,20.86,14.19
						C294.11,400.59,293.63,398.19,293.15,395.75z"/>
					<path class="st99" d="M232.57,379.53c4.76,3.7,9.56,7.45,14.34,11.18c-5.93,0.77-11.97,1.48-18.07,2.22
						c-6.21-4.76-12.4-9.49-18.58-14.19C217.81,379.03,225.24,379.29,232.57,379.53z"/>
					<path class="st99" d="M190.1,294.1c7.54,5.36,15.08,10.7,22.62,16.04c-0.01-6.92-0.02-13.85-0.05-20.74
						c-3.95-2.85-7.9-5.67-11.84-8.51c-3.94-2.84-7.87-5.68-11.81-8.48C189.38,279.62,189.75,286.86,190.1,294.1z"/>
					<path class="st97" d="M238.41,308.98c1,7.19,1.99,14.35,2.99,21.51c5.52,3.91,11.03,7.82,16.55,11.73
						c-1.18-7.08-2.34-14.14-3.51-21.22C249.1,316.98,243.75,312.99,238.41,308.98z"/>
					<path class="st97" d="M220.49,273.12c4.08-1.85,8.09-3.73,12.01-5.66c4.26,4.02,8.53,8.02,12.8,12.02c4.27,4,8.6,8.01,12.91,12
						c-2.17,3.49-4.39,6.92-6.67,10.36c-5.23-4.78-10.44-9.62-15.62-14.37C230.76,282.71,225.61,277.9,220.49,273.12z"/>
					<path class="st97" d="M280.91,334.42c-10.43-7.85-20.86-15.74-31.26-23.57c-10.38-7.82-20.78-15.7-31.15-23.54
						c-0.06-3.46-0.14-6.9-0.21-10.39c10.24,9.49,20.54,18.96,30.94,28.43c10.43,9.5,20.97,19.03,31.58,28.54
						C280.85,334.08,280.89,334.26,280.91,334.42z"/>
				</g>
			</g>
		</g>
		<path class="st96" d="M393.55,237.83c15.19,30.76,30.41,61.52,45.6,92.23c15.2,30.73,30.41,61.47,45.61,92.19
			c-29.33,8.77-58.66,17.55-87.96,26.31c-29.31,8.76-58.62,17.51-87.91,26.26c-6.62-33.13-13.23-66.31-19.83-99.44
			c-6.61-33.16-13.23-66.33-19.83-99.51c20.69-6.33,41.42-12.67,62.14-19.01C352.08,250.52,372.81,244.18,393.55,237.83z"/>
		<path class="st97" d="M389,245.08c13.92,29.2,27.85,58.37,41.75,87.54c13.9,29.17,27.8,58.35,41.73,87.52
			c-27.46,8.2-54.92,16.43-82.35,24.62c-27.46,8.2-54.89,16.4-82.33,24.6c-6.25-31.33-12.48-62.66-18.73-93.99
			c-6.25-31.33-12.5-62.68-18.75-94.04c19.77-6.02,39.54-12.08,59.33-18.13C349.4,257.18,369.21,251.13,389,245.08z"/>
		<path class="st96" d="M321.28,265.77c-3.62,16.61-7.49,33.4-12.24,50.22c-4.81,17.03-10.49,34.08-16.44,51.36
			c3.38-0.12,6.79-0.24,10.19-0.38c5.9-17.7,11.51-35.19,16.21-52.66c4.64-17.25,8.36-34.43,11.79-51.43
			C327.62,263.85,324.45,264.8,321.28,265.77z"/>
		<path class="st96" d="M395.25,258.19c-15.58,17.42-31.95,35.26-49.64,53.01c-18.3,18.37-37.91,36.68-58.3,55.41
			c0.56,2.84,1.12,5.66,1.68,8.46c20.73-18.82,40.69-37.22,59.33-55.69c18.04-17.86,34.74-35.81,50.67-53.32
			C397.77,263.45,396.5,260.84,395.25,258.19z"/>
		<path class="st96" d="M424.99,320.61c-23.1,6.97-46.19,13.95-69.27,20.93c-23.09,6.98-46.17,13.96-69.25,20.93
			c0.45,2.2,0.88,4.41,1.32,6.61c23.34-7.04,46.71-14.09,70.05-21.14c23.37-7.05,46.73-14.12,70.11-21.19
			C426.95,324.73,426,322.67,424.99,320.61z"/>
		<path class="st96" d="M292.85,343.43c9.84-2.99,31.91-0.41,34.81,10.1c2.9,10.51-15.83,25.43-26.36,28.6
			c-10.53,3.18-7.15,1.75-10.5,2.01c-2.44-12.25-4.89-24.5-7.33-36.76C286.34,345.8,283.01,346.42,292.85,343.43z"/>
		<path class="st96" d="M290.4,332.32c-0.39-2.2-0.78-4.41-1.14-6.66c-3.28,0.57-6.55,1.09-9.78,1.61c0.43,2.2,0.88,4.41,1.31,6.61
			C283.97,333.38,287.19,332.84,290.4,332.32z"/>
		<path class="st96" d="M294.06,338.57c-0.15-2.61-0.3-5.19-0.45-7.77c-4.25,1.21-8.47,2.42-12.72,3.6c0.5,2.51,0.99,5,1.49,7.49
			C286.26,340.8,290.14,339.71,294.06,338.57z"/>
		<path class="st96" d="M314.32,429.05c-0.65-2.13-1.27-4.24-1.94-6.4c-4.44,0.97-8.9,1.9-13.34,2.84c0.45,2.2,0.88,4.38,1.31,6.56
			C305.01,431.07,309.66,430.05,314.32,429.05z"/>
		<path class="st96" d="M321.02,452.61c-0.65-2.11-1.32-4.27-1.98-6.4c-5.06,1.14-10.13,2.27-15.19,3.39
			c0.43,2.18,0.88,4.38,1.31,6.54C310.42,454.98,315.72,453.8,321.02,452.61z"/>
		<path class="st96" d="M347.36,400.17c4.2-0.14,8.38-0.28,12.59-0.45c5.95-10.76,11.76-21.43,17.16-32.11
			c5.32-10.53,10.26-21.09,15.04-31.57c-3.97,0.12-7.93,0.21-11.9,0.28c-4.87,10.5-9.96,21.09-15.39,31.64
			C359.34,378.67,353.42,389.36,347.36,400.17z"/>
		<path class="st96" d="M337.44,448.39c2.07-0.67,4.15-1.33,6.22-1.99c5.66-1.81,11.32-3.63,16.98-5.46
			c1.67,3.72,3.34,7.43,5.02,11.12c4.5-1.33,9.01-2.68,13.51-4.03c-4.09-8.65-8.18-17.34-12.2-26.02c-2.17-4.68-4.32-9.39-6.46-14.1
			c8.96,2.91,19.21,5.42,30.96,7.27c21.36,3.37,47.72,4.6,80.07,2.99c-1.19-2.42-2.35-4.86-3.49-7.32
			c-28.86,1.07-52.52-0.32-71.81-3.53c-18.89-3.14-33.67-8.03-45.22-13.53c-5.11-2.57-9.61-5.26-13.59-8v12.34
			c1.29,0.72,2.61,1.44,3.98,2.15l-3.98,2.49v10.66c2.92-1.81,5.84-3.62,8.74-5.43c2.62,6.1,5.25,12.2,7.92,18.27
			c1.25,2.84,2.51,5.68,3.78,8.53c-5.48,1.77-10.96,3.53-16.45,5.29l-4,1.28V448.39z M325.66,464.03L323.15,453
			c4.77-1.53,9.53-3.08,14.29-4.61v-7.04c-5.26,1.69-10.52,3.4-15.78,5.09l-4.67-20.51c5.15-3.13,10.26-6.25,15.35-9.38
			c1.7-1.05,3.4-2.1,5.1-3.15v-10.66c-2.63,1.64-5.26,3.28-7.9,4.91c-4.85,3.01-9.74,6.02-14.64,9.04l-10.46-45.96l-0.65-2.83
			c5.82,8.6,15.64,20.07,33.66,30.2v-12.34c-15.17-10.47-22.59-21.56-26.82-28.42c-2.79,1.22-5.59,2.43-8.4,3.65
			c-6.34-27.87-12.68-55.74-19.03-83.58c-2.93,0.88-5.88,1.78-8.81,2.68c6.51,31.28,13.01,62.57,19.53,93.82
			c6.52,31.26,13.02,62.52,19.53,93.75C317.49,466.47,321.58,465.24,325.66,464.03z"/>
		<path class="st96" d="M307.16,399.22c0.43-2.68,0.84-5.38,1.25-8.08c-5.11,1.54-10.22,3.08-15.3,4.6c0.5,2.44,0.97,4.86,1.44,7.28
			C298.74,401.75,302.94,400.5,307.16,399.22z"/>
		<path class="st96" d="M320.76,286.46c0.88,2.32,1.77,4.65,2.65,6.99c10.19-2.51,20.41-5.05,30.65-7.58
			c10.24-2.54,20.52-5.1,30.8-7.65c1.83-2.68,3.64-5.36,5.45-8.01c-11.68,2.75-23.34,5.45-34.94,8.18
			C343.8,281.1,332.25,283.78,320.76,286.46z"/>
		<path class="st96" d="M342.58,283.4c4.14-0.38,8.34-0.81,12.52-1.23c2.69-9.71,5.22-19.41,7.52-29.03
			c-4.25,1.3-8.51,2.61-12.76,3.91C347.57,265.77,345.14,274.57,342.58,283.4z"/>
		<path class="st96" d="M310.76,317.51c0.82,2.37,1.64,4.72,2.48,7.06c6.72-2.25,13.45-4.52,20.2-6.78
			c6.7-2.24,13.43-4.53,20.15-6.8c2.09-2.75,4.18-5.5,6.25-8.25c-8.19,2.46-16.38,4.93-24.55,7.39
			C327.12,312.6,318.93,315.07,310.76,317.51z"/>
		<path class="st97" d="M330.78,262.88c-1.42,7.42-2.97,14.84-4.59,22.3c5.67-1.3,11.34-2.63,17.03-3.96
			c2.35-8.08,4.55-16.16,6.64-24.17C343.5,258.99,337.14,260.94,330.78,262.88z"/>
		<path class="st96" d="M445.03,362.58c-12.48-0.21-24.81-0.47-37.01-0.81c-12.07-0.33-24.01-0.76-35.82-1.21
			c-1.08,2.37-2.2,4.74-3.32,7.11c12.87,0.47,25.91,0.87,39.05,1.21c13.32,0.35,26.83,0.59,40.48,0.81
			C447.28,367.34,446.16,364.97,445.03,362.58z"/>
		<path class="st96" d="M393.91,413.6c3.69,0.17,7.39,0.36,11.1,0.5c7.56-16.38,14.63-32.59,21.19-48.68
			c-3.58-0.21-7.16-0.4-10.73-0.64C408.81,380.92,401.61,397.18,393.91,413.6z"/>
		<path class="st96" d="M455.81,385.24c-13.99-0.78-27.8-1.61-41.47-2.49c-1.49,2.61-3.02,5.21-4.55,7.84
			c8.17,0.55,16.4,1.05,24.68,1.52c8.34,0.48,16.77,0.9,25.26,1.33C458.44,390.71,457.13,387.99,455.81,385.24z"/>
		<path class="st96" d="M424.88,416.66c3.9-0.05,7.8-0.07,11.75-0.14c4.94-10.19,9.68-20.33,14.2-30.4
			c-3.86,0.05-7.67,0.05-11.51,0.05C434.71,396.28,429.9,406.45,424.88,416.66z"/>
		<path class="st99" d="M415.6,390.97c-2.65,5.97-5.35,11.97-8.13,17.96c0,0,5.38,0.66,9.98,1.04c4.6,0.38,10.39,0.71,10.39,0.71
			c3.02-6.19,5.93-12.32,8.79-18.46C429.54,391.82,422.56,391.4,415.6,390.97z"/>
		<path class="st102" d="M285.27,333.2c-1.49,0.4-2.93,0.83-4.38,1.21c-0.04-0.14-0.06-0.33-0.11-0.52
			C282.27,333.67,283.76,333.41,285.27,333.2z"/>
		<path class="st99" d="M294.23,349.76c7.32-2.22,21.62-0.34,23.45,6.78c1.83,7.12-10.09,16.96-17.76,19.27
			c-7.67,2.31-7.29,1.56-10.5,1.42c-1.53-7.63-3.06-15.29-4.57-22.92C287.51,352.41,286.92,351.98,294.23,349.76z"/>
	</g>
</g>
<g id="Shadows">
	<ellipse id="Shadow_31_" class="st103" cx="250" cy="329.43" rx="33.66" ry="19.44"/>
	<ellipse id="Shadow_27_" class="st103" cx="375.53" cy="370.1" rx="53.21" ry="30.72"/>
	<ellipse id="Shadow_26_" class="st103" cx="114.42" cy="373.42" rx="53.21" ry="30.72"/>
	<g>
		<path class="st104" d="M248.58,76.94c-0.58-0.02-1.16-0.02-1.74-0.02c-0.58,0-1.16,0.01-1.74,0.02
			c-45.05,1.21-74.27,50.87-55.93,94.45l53.12,93.39c2.06,3.63,11.57,3.63,13.63,0l53.12-93.39
			C327.39,127.82,293.63,78.15,248.58,76.94z M240.58,175.43c-17.54,0-31.76-15.06-31.76-33.63c0-18.57,14.22-33.63,31.76-33.63
			s31.76,15.06,31.76,33.63C272.34,160.38,258.12,175.43,240.58,175.43z"/>
		<path class="st105" d="M253.12,76.94c-0.58-0.02-5.7-0.02-6.28-0.02c-0.58,0-1.16,0.01-1.74,0.02c-1.53,0.04-3.03,0.14-4.52,0.29
			c42.45,4.28,69.13,52.06,51.41,94.16l-49.76,87.48c-1.01,1.78-1.01,4.01,0,5.8l0.06,0.11c2.06,3.63,11.57,3.63,13.63,0
			l53.12-93.39C327.39,127.82,298.17,78.15,253.12,76.94z"/>
		<path class="st105" d="M240.58,175.43c2.04,0,4.04-0.21,5.98-0.6c-14.68-2.96-25.79-16.62-25.79-33.03s11.1-30.07,25.79-33.03
			c-1.94-0.39-3.93-0.6-5.98-0.6c-17.54,0-31.76,15.06-31.76,33.63C208.82,160.38,223.04,175.43,240.58,175.43z"/>
	</g>
</g>
<g id="Plants">
</g>
<g id="Character_2">
	<g id="Character_14_">
		<g id="XMLID_2639_">
			<g>
				<polygon id="XMLID_2815_" class="st108" points="401.83,363.76 392.51,362.69 390.1,343.91 401.49,347.29 				"/>
				<g>
					<path id="XMLID_2813_" class="st104" d="M381.41,379.08c-0.29,0.27-0.22,1.82,0.16,2.28c0.96,1.16,3.58,2.52,7.1,2.77
						c3.36,0.24,6.37-0.21,8.34-1.47c1.97-1.25,2.93-2.64,3.12-4.55c0.19-1.92-0.03-3.76,0.89-5.24c0.84-1.36,2.19-2.9,2.48-3.63
						c0.64-1.61,0.02-3.9,0.02-3.9L381.41,379.08z"/>
					<path id="XMLID_2812_" class="st106" d="M390.62,362.36c-0.02,0.74-0.15,1.42-0.39,2.13c-0.49,1.49-1.23,2.88-2.06,4.21
						c-0.43,0.68-0.88,1.36-1.4,1.98c-1.02,1.21-2.28,2.2-3.36,3.36c-1.08,1.16-1.99,2.57-2.08,4.13c-0.14,2.64,4.06,3.53,6.27,3.93
						c2.35,0.42,4.87,0.29,7.16-0.36c2.56-0.73,4.4-2.71,4.82-5.26c0.12-0.73,0.08-1.48,0.16-2.22c0.2-1.68,1.07-3.22,2.05-4.61
						c0.57-0.81,1.19-1.6,1.57-2.51c0.69-1.63,0.14-3.47-0.3-5.1c-0.38-1.4-0.84-3.02-1.34-2.89c-0.01,0.73,0.04,0.83-0.49,1.32
						c-0.66,0.62-0.69,1.56-1.39,2.12c0.33-0.86,0.35-1.22,0.49-1.88c0.04-0.2-0.01-0.6-0.15-0.75c-0.19-0.2-0.5-0.33-0.81-0.43
						c-1.04-0.35-2.11-0.59-3.2-0.73c-1-0.12-3.48-0.24-4.47-0.02c-0.3,0.07-0.6,0.21-0.79,0.45c-0.2,0.25-0.23,0.48-0.28,0.9
						C390.6,360.57,390.64,361.66,390.62,362.36z"/>
					<path id="XMLID_2811_" class="st110" d="M387.81,369.26c0.98-0.74,4.53-0.75,5.73-0.62c1.51,0.16,2.73,0.69,3.42,1.2
						c0.31,0.23,0.74,0.19,1.01-0.08l0,0c0.33-0.32,0.3-0.85-0.07-1.12c-0.73-0.54-2.06-1.3-3.85-1.43c-2.96-0.21-5.17,0.3-5.17,0.3
						S387.52,368.38,387.81,369.26z"/>
					<path id="XMLID_2810_" class="st110" d="M385.55,371.96c1.24-0.73,5-0.62,6.2-0.5c1.51,0.16,2.63,0.75,3.33,1.27
						c0.31,0.23,0.74,0.19,1.01-0.08l0,0c0.33-0.32,0.3-0.85-0.07-1.12c-0.73-0.54-3.49-1.41-5.27-1.54
						c-2.96-0.21-3.73,0.4-3.73,0.4S385.76,370.87,385.55,371.96z"/>
					<path id="XMLID_2792_" class="st110" d="M395.22,364.38c-2.05-0.21-4.26,0.02-5.06,0.31c-0.52,0.29-0.87,1.12-0.53,1.33
						c0.66-0.37,3.19-0.52,4.64-0.45c0.98,0.04,2.2,0.44,3.2,0.88c0.25,0.11,0.55,0.27,0.82,0.42c0.35,0.2,0.8,0.06,0.97-0.3l0,0
						c0.14-0.3,0.04-0.67-0.26-0.85C398.29,365.28,396.88,364.55,395.22,364.38z"/>
				</g>
			</g>
			<g>
				<polygon id="XMLID_2814_" class="st108" points="367.08,355.22 358.22,352.75 358.22,334.84 369.21,335.32 				"/>
				<g>
					<path id="XMLID_2786_" class="st104" d="M339.5,364.81c-0.28,0.58-0.2,1.66,0.13,2.35c0.33,0.69,3.92,2.71,8.76,2.38
						c4.84-0.33,8.16-2.28,10.01-3.5c1.85-1.22,3.77-1.45,6.16-1.59c2.4-0.14,5.54-1.33,6.07-2.45c0.53-1.12-0.08-3.05-0.08-3.05
						L339.5,364.81z"/>
					<path id="XMLID_2785_" class="st106" d="M359.03,349.71c-0.13-0.03-0.25-0.05-0.38-0.08c-0.21-0.04-0.43-0.08-0.64-0.03
						c-0.24,0.06-0.43,0.22-0.6,0.4c-0.52,0.57-0.83,1.29-1.24,1.94c-1.01,1.65-3.14,3.02-5.47,4.28c-1.58,0.85-3.13,1.51-4.76,2.24
						c-1.66,0.75-3.88,1.21-5.18,2.08c-1.9,1.28-2.14,4.5,0.02,5.77c1.87,1.1,6.78,2.28,11.93,0.82c2.81-0.8,5.92-3.79,9.6-4.08
						c2.34-0.18,6.77-0.84,8.28-2.62c0.56-0.79-0.19-3.29-0.8-5.45c-0.67-2.36-1.3-6.03-2.08-5.83c-0.03,0.46-0.1,0.57-0.41,0.88
						c-0.29,0.3-0.68,0.49-0.99,0.76c-0.58,0.49-0.93,1.19-1.3,1.86c-0.16,0.29-0.34,0.6-0.67,0.72c-0.39,0.15-0.69-0.1-1.04-0.26
						c-0.43-0.2-0.94-0.24-1.4-0.1c0.05-0.47,0.13-0.93,0.25-1.38c0.04-0.15,0.08-0.3,0.03-0.45c-0.05-0.15-0.17-0.25-0.3-0.34
						C361,350.22,360.07,349.93,359.03,349.71z"/>
					<path id="XMLID_2783_" class="st110" d="M352.9,354.94c0,0,0.34-0.9,1.73-1.16c1.07-0.2,2.95,0.59,4.12,1.55
						c0.48,0.39,0.42,1.14-0.13,1.44l0,0c-0.32,0.18-0.72,0.13-1-0.11C356.85,356,355.13,354.78,352.9,354.94z"/>
					<path id="XMLID_2779_" class="st110" d="M349.59,356.79c0,0,0.69-1.08,2.05-1.06c0,0,2.78,0.08,4.51,1.69
						c0.44,0.41,0.41,1.11-0.12,1.4l0,0c-0.31,0.17-0.69,0.13-0.96-0.11C354.29,358.01,352.74,356.55,349.59,356.79z"/>
					<path id="XMLID_2775_" class="st110" d="M345.95,358.45c0,0,0.77-0.97,2.13-0.95c0,0,2.59,0.1,4.32,1.7
						c0.44,0.41,0.41,1.11-0.12,1.4l0,0c-0.31,0.17-0.69,0.13-0.96-0.11C350.54,359.79,349.09,358.22,345.95,358.45z"/>
				</g>
			</g>
			<g>
				<path id="XMLID_2742_" class="st104" d="M399.79,238.37c0.61,18.47,0.65,58.47,0.65,58.47c0.19,2.3,0.39,6.38,0.57,14.66
					c0.25,12,0.82,41.63,0.82,41.63s-5.73,2.69-10.98,0.5c0,0-7.32-41.66-8.82-53.54c-1.31-10.37-3.82-34.69-3.82-34.69l-3.46,30.88
					c0,0,0.04,7.95-0.47,15.06c-0.39,5.5-5.73,33.83-5.73,33.83s-4.87,1.58-10.59-0.35c0,0-0.49-43.49-0.58-48.53
					c-0.11-5.75,1.37-67.8,1.37-67.8L399.79,238.37z"/>
				<path class="st105" d="M378.21,265.4l-1.32-10.47c0,0-5.5-1.12-11.91-5.46c0,0,2.54,3.4,9.98,7l1.68,9.5l-1.9,30.31
					L378.21,265.4z"/>
			</g>
		</g>
		<g>
			<path class="st108" d="M358.26,186.54c-2.7,3.54-16.6,22.6-16.6,22.6l-12.83-9.94c-3.04-2.35-3.89-5.43-5.77-7.56
				c-1.88-2.12-3.94-2.64-6.04-4.43c-2.11-1.78-2.92-3.13-3.64-1.61c-0.72,1.52,1.61,4.17,2.01,4.82c0.4,0.65,2.8,2.17-0.38,2.04
				c-3.18-0.13-9.29-3.8-10.78-4.47c-1.48-0.67-1.52,1.16-0.83,2.36c0.69,1.2,0.36,4.54,1.17,6.7c0.81,2.15,2.27,3.46,5.19,4.92
				c2.73,1.36,9.37,2.21,11.53,3.57c0,0,0,0,0,0c4.73,4.85,13.68,13.93,15.94,15.6c3.11,2.31,6.12,4.44,10.88-0.14
				c4.76-4.57,18.55-22.56,18.55-22.56l2.85-17.08C364.83,181.15,361.52,182.27,358.26,186.54z"/>
			<path class="st109" d="M341.67,209.14c1.76,1.3,3.59,4.22,3.77,5.53c0,0,0.21-3.49-3.01-6.56L341.67,209.14z"/>
			<g id="XMLID_2816_">
				<path class="st104" d="M370.61,180.9c0,0-6.6-0.09-9.5,1.95c-2.9,2.03-5.05,4.97-9.76,11.85c-4.13,6.03-6.13,8.88-6.13,8.88
					s3.45,5.85,11.21,8.56l12.32-15.26L370.61,180.9z"/>
			</g>
		</g>
		<path id="XMLID_2635_" class="st106" d="M383.38,180.58c3.74,0.36,8.98,0.41,12.7,0.78c2.57,1.06,7.53,5.38,7.16,8.46
			c-1.38,11.51-4.17,30.38-4.17,30.38l0.92,19.98c-5.15,5.14-29.25,7.14-41.67-1.08c0,0,0.4-35.92,1.25-41.98
			c1.53-10.89,2.87-14.93,8.49-15.89S383.38,180.58,383.38,180.58z"/>
		<g>
			<path class="st108" d="M404.56,186.83c2.7,3.54,16.6,22.6,16.6,22.6l12.83-9.94c3.04-2.35,3.89-5.43,5.77-7.56
				c1.88-2.12,3.94-2.64,6.04-4.42c2.11-1.78,2.92-3.13,3.64-1.61c0.72,1.52-1.61,4.17-2.01,4.82c-0.4,0.65-2.8,2.17,0.38,2.04
				c3.18-0.13,9.29-3.8,10.78-4.47c1.48-0.67,1.52,1.16,0.83,2.36c-0.69,1.2-0.36,4.54-1.17,6.7c-0.81,2.15-2.27,3.46-5.19,4.92
				c-2.73,1.36-9.37,2.21-11.53,3.57c0,0,0,0,0,0c-4.74,4.85-13.68,13.93-15.94,15.6c-3.11,2.31-6.12,4.44-10.88-0.14
				c-4.76-4.58-15.64-18.8-15.64-18.8l-5.76-20.84C398,181.44,401.31,182.56,404.56,186.83z"/>
			<path class="st109" d="M421.16,209.43c-1.76,1.3-3.59,4.22-3.77,5.53c0,0-0.21-3.49,3.01-6.56L421.16,209.43z"/>
			<g id="XMLID_2342_">
				<path class="st104" d="M392.67,181.11c0,0,5.93-0.37,9.05,2.03c2.81,2.16,5.05,4.97,9.76,11.86c4.13,6.03,6.13,8.88,6.13,8.88
					s-3.45,5.85-11.21,8.56l-8.37-10.37C393.63,196.52,389.3,188.09,392.67,181.11z"/>
			</g>
		</g>
		<g id="XMLID_2401_">
			<g id="XMLID_2437_">
				<path id="XMLID_2633_" class="st111" d="M384.31,153.5c0.06,6.41-5.09,11.65-11.5,11.7c-6.41,0.06-11.65-5.09-11.7-11.5
					c-0.06-6.41,5.09-11.65,11.5-11.7C379.02,141.95,384.25,147.1,384.31,153.5z"/>
				<path id="XMLID_2562_" class="st111" d="M392.84,161.68c0,0-1.8,8.85-2.54,10.31c-0.74,1.46-2.3,1.88-2.3,1.88l0.08-6.21
					L392.84,161.68z"/>
				<path id="XMLID_2462_" class="st111" d="M390.37,149.05c0,0,2.02-0.36,3.61,1.24c1.56,1.57,0.74,6.53-1.14,11.4l-3.54,0.44
					L390.37,149.05z"/>
				<path id="XMLID_2460_" class="st108" d="M388.24,162.13c0.71,0.42,1.71-0.96,2.58-1.88c0.87-0.92,3.72-2.2,5.17,0.79
					c1.48,3.05-1.2,7.12-3.44,7.85c-3.87,1.25-4.47-1.23-4.47-1.23l-0.16,14.42l0,0c-4.77,6.22-18.15,5.82-12.64-0.69l-0.03-4.26
					c0,0-3.51,0.56-5.23,0.31c-2.86-0.42-4.67-2.65-5.56-5.73c-1.43-4.95-2-8.95-0.9-18.71c1.2-10.7,13.63-10.92,20.38-6.75
					S388.24,162.13,388.24,162.13z"/>
				<path id="XMLID_2459_" class="st111" d="M388.25,163.32c0.36,0,1.7-2.26,2.57-3.07c1.22-1.13-0.45-11.2-0.45-11.2
					s1.49-2.87-0.89-5.44c-1.69-1.83-4.05-4.07-11.66-3.1c-5.42,0.69-11.31,2.43-16.11,0.13c-0.69,2.98-0.08,6.28,2.9,8.6
					c0,0,1.74,1.1,6.29,1.61c4.55,0.51,11.62-0.21,12.59-0.35c1.32-0.19,1.61,1.08,2.35,4.56
					C386.48,158.12,387.05,163.31,388.25,163.32z"/>
				<path id="XMLID_2442_" class="st111" d="M390.37,149.83l4.27-2.34c-0.62-1.22-2.08-1.69-3.26-1.05
					C390.2,147.09,389.75,148.61,390.37,149.83z"/>
				<path id="XMLID_2439_" class="st112" d="M375.25,177.13c0,0,6.36-1.34,8.57-2.54c1.48-0.81,2.7-2.19,3.05-3.07
					c0,0-0.4,1.89-1.72,3.61c-1.61,2.1-9.89,3.7-9.89,3.7L375.25,177.13z"/>
			</g>
			<g id="XMLID_2415_">
				<path id="XMLID_2435_" class="st111" d="M374.74,161.11c0.01,0.73,0.58,1.32,1.29,1.31c0.7-0.01,1.27-0.61,1.26-1.34
					c-0.01-0.73-0.58-1.32-1.29-1.31C375.3,159.78,374.73,160.38,374.74,161.11z"/>
				<path id="XMLID_2434_" class="st111" d="M378.53,156.72l-2.84-1.29c-0.34,0.81,0.02,1.76,0.8,2.12
					C377.28,157.9,378.19,157.53,378.53,156.72z"/>
				<path id="XMLID_2433_" class="st111" d="M366.38,155.15l-2.47,1.94c0.51,0.71,1.48,0.85,2.17,0.31
					C366.75,156.86,366.89,155.86,366.38,155.15z"/>
				<path id="XMLID_2431_" class="st111" d="M364.89,160.8c0.01,0.7,0.56,1.26,1.23,1.26c0.68-0.01,1.22-0.58,1.21-1.28
					c-0.01-0.7-0.56-1.26-1.23-1.26C365.42,159.53,364.88,160.1,364.89,160.8z"/>
				<polygon id="XMLID_2429_" class="st109" points="371.51,159.77 370.79,167.42 366.84,165.9 				"/>
				<path class="st112" d="M373.68,170.29c0,0.68,0.55,1.22,1.22,1.22c0.68,0,1.22-0.55,1.22-1.22c0-0.68-0.55-1.22-1.22-1.22
					C374.23,169.07,373.68,169.62,373.68,170.29z"/>
			</g>
		</g>
	</g>
	<g id="Question_Marks">
		<g>
			<path class="st104" d="M404.9,88.82c1.93,0.43,3.75,1.11,5.46,2.05c1.71,0.94,3.16,2.09,4.34,3.45c1.19,1.36,2.04,2.91,2.56,4.64
				c0.52,1.73,0.56,3.6,0.11,5.62c-0.36,1.64-0.94,3.01-1.72,4.11c-0.78,1.1-1.68,2.04-2.69,2.83c-1.01,0.79-2.08,1.48-3.21,2.07
				c-1.12,0.59-2.19,1.15-3.18,1.69c-1,0.53-1.91,1.12-2.72,1.76c-0.81,0.64-1.38,1.4-1.7,2.27c-0.18,0.43-0.45,0.78-0.81,1.05
				c-0.36,0.27-0.77,0.35-1.22,0.25l-4.68-1.04c-0.45-0.1-0.82-0.35-1.09-0.76c-0.28-0.41-0.34-0.83-0.2-1.27
				c0.44-1.58,1.09-2.92,1.95-4c0.86-1.08,1.82-2.01,2.88-2.79c1.06-0.78,2.15-1.45,3.29-2.02c1.14-0.57,2.2-1.12,3.18-1.66
				c0.98-0.54,1.82-1.11,2.51-1.71c0.69-0.6,1.14-1.33,1.33-2.2c0.35-1.56-0.03-2.99-1.12-4.29c-1.09-1.3-2.73-2.19-4.9-2.67
				c-3.49-0.77-6.44,0.4-8.86,3.53c-0.31,0.41-0.6,0.7-0.87,0.87c-0.28,0.18-0.68,0.21-1.22,0.09l-4.99-1.1
				c-0.37-0.08-0.66-0.28-0.87-0.58c-0.21-0.31-0.27-0.66-0.18-1.07c0.36-1.43,1.13-2.8,2.3-4.11c1.17-1.31,2.6-2.42,4.29-3.32
				c1.69-0.9,3.57-1.53,5.65-1.88C400.6,88.28,402.73,88.34,404.9,88.82z M399.62,124.36c0.45,0.1,0.8,0.35,1.06,0.75
				c0.26,0.4,0.33,0.83,0.23,1.28l-1.2,5.42c-0.1,0.45-0.35,0.81-0.75,1.06c-0.4,0.26-0.83,0.33-1.28,0.23l-5.3-1.17
				c-0.45-0.1-0.81-0.35-1.06-0.75c-0.26-0.4-0.33-0.83-0.23-1.28l1.2-5.42c0.1-0.45,0.35-0.8,0.75-1.06
				c0.4-0.25,0.83-0.33,1.28-0.23L399.62,124.36z"/>
		</g>
		<g>
			<g>
				<path class="st104" d="M420.62,139.81c1.35-0.22,2.69-0.25,4.03-0.08c1.34,0.16,2.56,0.53,3.67,1.1
					c1.11,0.57,2.05,1.34,2.83,2.32c0.78,0.98,1.28,2.17,1.51,3.57c0.19,1.15,0.17,2.17-0.05,3.08c-0.22,0.9-0.55,1.74-1,2.5
					c-0.45,0.76-0.96,1.48-1.53,2.15c-0.57,0.67-1.1,1.3-1.61,1.9c-0.51,0.6-0.94,1.21-1.29,1.82c-0.36,0.62-0.52,1.25-0.51,1.89
					c-0.01,0.33-0.09,0.62-0.25,0.88c-0.16,0.26-0.4,0.42-0.72,0.47l-3.27,0.53c-0.32,0.05-0.61-0.02-0.9-0.21
					c-0.28-0.19-0.43-0.44-0.46-0.76c-0.13-1.13-0.05-2.15,0.23-3.06c0.28-0.91,0.65-1.76,1.13-2.52c0.48-0.77,1.01-1.48,1.59-2.14
					c0.58-0.65,1.12-1.28,1.61-1.88c0.49-0.59,0.88-1.17,1.17-1.73c0.29-0.56,0.39-1.14,0.29-1.75c-0.18-1.09-0.78-1.91-1.82-2.46
					c-1.03-0.55-2.31-0.7-3.83-0.46c-2.44,0.4-4.03,1.91-4.78,4.53c-0.09,0.34-0.2,0.6-0.34,0.78c-0.13,0.18-0.38,0.31-0.76,0.37
					l-3.48,0.57c-0.26,0.04-0.5-0.01-0.71-0.15c-0.21-0.14-0.34-0.36-0.39-0.64c-0.14-1.01,0.01-2.08,0.42-3.22
					c0.42-1.14,1.05-2.22,1.9-3.22c0.85-1.01,1.9-1.89,3.14-2.65C417.72,140.57,419.1,140.06,420.62,139.81z M426.33,163.95
					c0.32-0.05,0.61,0.02,0.87,0.21c0.27,0.19,0.43,0.45,0.48,0.76l0.62,3.78c0.05,0.32-0.02,0.61-0.21,0.87
					c-0.19,0.27-0.45,0.43-0.76,0.48l-3.7,0.6c-0.31,0.05-0.61-0.02-0.87-0.21c-0.27-0.19-0.43-0.45-0.48-0.76l-0.62-3.78
					c-0.05-0.31,0.02-0.61,0.21-0.87c0.19-0.27,0.45-0.43,0.76-0.48L426.33,163.95z"/>
			</g>
			<g class="st113">
				<path class="st104" d="M420.62,139.81c1.35-0.22,2.69-0.25,4.03-0.08c1.34,0.16,2.56,0.53,3.67,1.1
					c1.11,0.57,2.05,1.34,2.83,2.32c0.78,0.98,1.28,2.17,1.51,3.57c0.19,1.15,0.17,2.17-0.05,3.08c-0.22,0.9-0.55,1.74-1,2.5
					c-0.45,0.76-0.96,1.48-1.53,2.15c-0.57,0.67-1.1,1.3-1.61,1.9c-0.51,0.6-0.94,1.21-1.29,1.82c-0.36,0.62-0.52,1.25-0.51,1.89
					c-0.01,0.33-0.09,0.62-0.25,0.88c-0.16,0.26-0.4,0.42-0.72,0.47l-3.27,0.53c-0.32,0.05-0.61-0.02-0.9-0.21
					c-0.28-0.19-0.43-0.44-0.46-0.76c-0.13-1.13-0.05-2.15,0.23-3.06c0.28-0.91,0.65-1.76,1.13-2.52c0.48-0.77,1.01-1.48,1.59-2.14
					c0.58-0.65,1.12-1.28,1.61-1.88c0.49-0.59,0.88-1.17,1.17-1.73c0.29-0.56,0.39-1.14,0.29-1.75c-0.18-1.09-0.78-1.91-1.82-2.46
					c-1.03-0.55-2.31-0.7-3.83-0.46c-2.44,0.4-4.03,1.91-4.78,4.53c-0.09,0.34-0.2,0.6-0.34,0.78c-0.13,0.18-0.38,0.31-0.76,0.37
					l-3.48,0.57c-0.26,0.04-0.5-0.01-0.71-0.15c-0.21-0.14-0.34-0.36-0.39-0.64c-0.14-1.01,0.01-2.08,0.42-3.22
					c0.42-1.14,1.05-2.22,1.9-3.22c0.85-1.01,1.9-1.89,3.14-2.65C417.72,140.57,419.1,140.06,420.62,139.81z M426.33,163.95
					c0.32-0.05,0.61,0.02,0.87,0.21c0.27,0.19,0.43,0.45,0.48,0.76l0.62,3.78c0.05,0.32-0.02,0.61-0.21,0.87
					c-0.19,0.27-0.45,0.43-0.76,0.48l-3.7,0.6c-0.31,0.05-0.61-0.02-0.87-0.21c-0.27-0.19-0.43-0.45-0.48-0.76l-0.62-3.78
					c-0.05-0.31,0.02-0.61,0.21-0.87c0.19-0.27,0.45-0.43,0.76-0.48L426.33,163.95z"/>
			</g>
		</g>
		<g>
			<g>
				<path class="st104" d="M454.72,150.54c0.31,0.22,0.5,0.52,0.56,0.9c0.06,0.38-0.01,0.73-0.23,1.04l-2.63,3.7
					c-0.22,0.31-0.52,0.5-0.91,0.56c-0.38,0.07-0.73-0.01-1.04-0.23l-3.62-2.57c-0.31-0.22-0.5-0.52-0.56-0.9
					c-0.07-0.39,0.01-0.73,0.23-1.04l2.63-3.7c0.22-0.31,0.52-0.5,0.91-0.56c0.38-0.06,0.73,0.01,1.04,0.23L454.72,150.54z
					 M470.02,125.45c1.32,0.94,2.47,2.03,3.46,3.28c0.99,1.25,1.71,2.58,2.17,3.98c0.46,1.4,0.61,2.84,0.45,4.31
					c-0.16,1.47-0.73,2.89-1.7,4.27c-0.8,1.12-1.67,1.97-2.6,2.55c-0.94,0.58-1.92,1-2.93,1.27c-1.02,0.27-2.04,0.45-3.07,0.54
					c-1.04,0.09-2.01,0.17-2.94,0.25c-0.92,0.08-1.79,0.24-2.61,0.46c-0.81,0.22-1.48,0.62-2,1.17c-0.28,0.27-0.59,0.44-0.95,0.53
					c-0.36,0.09-0.69,0.02-1-0.2l-3.2-2.27c-0.31-0.22-0.5-0.53-0.58-0.92c-0.08-0.39,0-0.73,0.25-1.02
					c0.84-1.05,1.75-1.85,2.74-2.39c0.99-0.54,2.01-0.93,3.06-1.18c1.04-0.25,2.08-0.41,3.12-0.47c1.04-0.06,2.01-0.14,2.92-0.24
					c0.91-0.09,1.72-0.25,2.43-0.49c0.71-0.23,1.28-0.64,1.7-1.23c0.76-1.07,0.93-2.26,0.52-3.59c-0.41-1.32-1.36-2.52-2.84-3.57
					c-2.39-1.69-4.99-1.75-7.8-0.16c-0.36,0.21-0.67,0.34-0.93,0.38c-0.27,0.04-0.58-0.06-0.94-0.32l-3.41-2.42
					c-0.25-0.18-0.41-0.42-0.47-0.72c-0.06-0.3,0.01-0.59,0.2-0.87c0.73-0.96,1.74-1.75,3.04-2.37c1.3-0.61,2.73-0.99,4.29-1.13
					c1.55-0.14,3.17-0.01,4.86,0.38C466.95,123.66,468.53,124.39,470.02,125.45z"/>
			</g>
			<g class="st114">
				<path class="st104" d="M454.72,150.54c0.31,0.22,0.5,0.52,0.56,0.9c0.06,0.38-0.01,0.73-0.23,1.04l-2.63,3.7
					c-0.22,0.31-0.52,0.5-0.91,0.56c-0.38,0.07-0.73-0.01-1.04-0.23l-3.62-2.57c-0.31-0.22-0.5-0.52-0.56-0.9
					c-0.07-0.39,0.01-0.73,0.23-1.04l2.63-3.7c0.22-0.31,0.52-0.5,0.91-0.56c0.38-0.06,0.73,0.01,1.04,0.23L454.72,150.54z
					 M470.02,125.45c1.32,0.94,2.47,2.03,3.46,3.28c0.99,1.25,1.71,2.58,2.17,3.98c0.46,1.4,0.61,2.84,0.45,4.31
					c-0.16,1.47-0.73,2.89-1.7,4.27c-0.8,1.12-1.67,1.97-2.6,2.55c-0.94,0.58-1.92,1-2.93,1.27c-1.02,0.27-2.04,0.45-3.07,0.54
					c-1.04,0.09-2.01,0.17-2.94,0.25c-0.92,0.08-1.79,0.24-2.61,0.46c-0.81,0.22-1.48,0.62-2,1.17c-0.28,0.27-0.59,0.44-0.95,0.53
					c-0.36,0.09-0.69,0.02-1-0.2l-3.2-2.27c-0.31-0.22-0.5-0.53-0.58-0.92c-0.08-0.39,0-0.73,0.25-1.02
					c0.84-1.05,1.75-1.85,2.74-2.39c0.99-0.54,2.01-0.93,3.06-1.18c1.04-0.25,2.08-0.41,3.12-0.47c1.04-0.06,2.01-0.14,2.92-0.24
					c0.91-0.09,1.72-0.25,2.43-0.49c0.71-0.23,1.28-0.64,1.7-1.23c0.76-1.07,0.93-2.26,0.52-3.59c-0.41-1.32-1.36-2.52-2.84-3.57
					c-2.39-1.69-4.99-1.75-7.8-0.16c-0.36,0.21-0.67,0.34-0.93,0.38c-0.27,0.04-0.58-0.06-0.94-0.32l-3.41-2.42
					c-0.25-0.18-0.41-0.42-0.47-0.72c-0.06-0.3,0.01-0.59,0.2-0.87c0.73-0.96,1.74-1.75,3.04-2.37c1.3-0.61,2.73-0.99,4.29-1.13
					c1.55-0.14,3.17-0.01,4.86,0.38C466.95,123.66,468.53,124.39,470.02,125.45z"/>
			</g>
		</g>
	</g>
</g>
<g id="Character_1">
	<g id="Question_Marks_2_">
		<g>
			<path class="st104" d="M88.43,90.63c1.94-0.37,3.89-0.45,5.83-0.26c1.94,0.19,3.72,0.68,5.35,1.46c1.63,0.78,3.02,1.87,4.18,3.26
				c1.16,1.39,1.93,3.09,2.31,5.12c0.31,1.65,0.33,3.14,0.04,4.46c-0.29,1.32-0.74,2.54-1.36,3.66c-0.62,1.12-1.33,2.18-2.13,3.16
				c-0.8,0.99-1.55,1.92-2.26,2.8c-0.71,0.88-1.31,1.78-1.81,2.69c-0.49,0.91-0.71,1.83-0.67,2.76c0,0.47-0.11,0.9-0.34,1.28
				c-0.23,0.39-0.57,0.62-1.02,0.71l-4.71,0.89c-0.45,0.09-0.89,0-1.3-0.27c-0.41-0.26-0.64-0.63-0.69-1.09
				c-0.22-1.63-0.15-3.11,0.22-4.44c0.37-1.33,0.89-2.56,1.55-3.7c0.66-1.13,1.41-2.18,2.23-3.15c0.82-0.97,1.58-1.89,2.27-2.77
				c0.69-0.88,1.23-1.73,1.64-2.56c0.4-0.82,0.52-1.67,0.36-2.54c-0.3-1.57-1.2-2.74-2.72-3.5c-1.51-0.76-3.37-0.94-5.56-0.52
				c-3.51,0.66-5.77,2.91-6.76,6.73c-0.12,0.49-0.27,0.88-0.46,1.14c-0.19,0.27-0.55,0.46-1.08,0.56l-5.02,0.95
				c-0.37,0.07-0.72,0.01-1.03-0.19c-0.32-0.2-0.51-0.5-0.59-0.92c-0.23-1.45-0.07-3.02,0.5-4.68c0.56-1.67,1.44-3.25,2.64-4.74
				c1.2-1.49,2.68-2.81,4.46-3.96C84.25,91.83,86.24,91.04,88.43,90.63z M97.56,125.38c0.45-0.09,0.88,0.01,1.27,0.27
				c0.39,0.27,0.63,0.63,0.72,1.08l1.03,5.46c0.09,0.46,0,0.88-0.27,1.27c-0.27,0.39-0.63,0.63-1.08,0.72l-5.33,1.01
				c-0.46,0.09-0.88,0-1.27-0.27c-0.39-0.27-0.63-0.63-0.72-1.08l-1.03-5.46c-0.09-0.45,0.01-0.88,0.27-1.27
				c0.27-0.39,0.63-0.63,1.09-0.72L97.56,125.38z"/>
		</g>
		<g>
			<g>
				<path class="st104" d="M139.25,113.16c1.19,0.66,2.26,1.48,3.21,2.44c0.94,0.96,1.67,2.01,2.19,3.14
					c0.51,1.14,0.77,2.33,0.77,3.57c0,1.25-0.34,2.5-1.04,3.74c-0.57,1.01-1.22,1.81-1.95,2.38c-0.73,0.57-1.52,1.02-2.34,1.34
					c-0.83,0.32-1.67,0.56-2.53,0.73c-0.86,0.17-1.67,0.33-2.44,0.48c-0.77,0.15-1.48,0.36-2.14,0.63
					c-0.66,0.26-1.19,0.65-1.57,1.17c-0.21,0.25-0.46,0.43-0.75,0.53c-0.29,0.1-0.58,0.08-0.85-0.08l-2.89-1.61
					c-0.28-0.16-0.47-0.4-0.57-0.72c-0.1-0.32-0.06-0.62,0.12-0.88c0.6-0.96,1.3-1.71,2.08-2.26c0.78-0.54,1.6-0.97,2.46-1.27
					c0.85-0.31,1.71-0.53,2.58-0.68c0.86-0.15,1.67-0.3,2.43-0.47c0.75-0.16,1.42-0.37,2-0.63c0.58-0.26,1.01-0.66,1.31-1.19
					c0.54-0.96,0.57-1.98,0.11-3.06c-0.47-1.07-1.37-1.99-2.71-2.74c-2.16-1.2-4.34-1.01-6.56,0.58c-0.28,0.21-0.53,0.34-0.75,0.4
					c-0.22,0.06-0.49,0-0.82-0.18l-3.08-1.72c-0.23-0.13-0.38-0.31-0.46-0.56c-0.08-0.24-0.05-0.49,0.09-0.75
					c0.52-0.87,1.3-1.63,2.34-2.26c1.04-0.64,2.2-1.08,3.49-1.34c1.29-0.26,2.66-0.3,4.11-0.13
					C136.51,111.95,137.9,112.41,139.25,113.16z M128.71,135.61c0.28,0.16,0.46,0.39,0.55,0.71c0.09,0.32,0.06,0.61-0.1,0.89
					l-1.87,3.35c-0.16,0.28-0.39,0.46-0.71,0.55c-0.32,0.09-0.61,0.06-0.89-0.1l-3.27-1.82c-0.28-0.16-0.46-0.39-0.55-0.71
					c-0.09-0.32-0.06-0.61,0.1-0.89l1.87-3.35c0.16-0.28,0.39-0.46,0.71-0.55c0.32-0.09,0.61-0.06,0.89,0.1L128.71,135.61z"/>
			</g>
			<g class="st113">
				<path class="st104" d="M139.25,113.16c1.19,0.66,2.26,1.48,3.21,2.44c0.94,0.96,1.67,2.01,2.19,3.14
					c0.51,1.14,0.77,2.33,0.77,3.57c0,1.25-0.34,2.5-1.04,3.74c-0.57,1.01-1.22,1.81-1.95,2.38c-0.73,0.57-1.52,1.02-2.34,1.34
					c-0.83,0.32-1.67,0.56-2.53,0.73c-0.86,0.17-1.67,0.33-2.44,0.48c-0.77,0.15-1.48,0.36-2.14,0.63
					c-0.66,0.26-1.19,0.65-1.57,1.17c-0.21,0.25-0.46,0.43-0.75,0.53c-0.29,0.1-0.58,0.08-0.85-0.08l-2.89-1.61
					c-0.28-0.16-0.47-0.4-0.57-0.72c-0.1-0.32-0.06-0.62,0.12-0.88c0.6-0.96,1.3-1.71,2.08-2.26c0.78-0.54,1.6-0.97,2.46-1.27
					c0.85-0.31,1.71-0.53,2.58-0.68c0.86-0.15,1.67-0.3,2.43-0.47c0.75-0.16,1.42-0.37,2-0.63c0.58-0.26,1.01-0.66,1.31-1.19
					c0.54-0.96,0.57-1.98,0.11-3.06c-0.47-1.07-1.37-1.99-2.71-2.74c-2.16-1.2-4.34-1.01-6.56,0.58c-0.28,0.21-0.53,0.34-0.75,0.4
					c-0.22,0.06-0.49,0-0.82-0.18l-3.08-1.72c-0.23-0.13-0.38-0.31-0.46-0.56c-0.08-0.24-0.05-0.49,0.09-0.75
					c0.52-0.87,1.3-1.63,2.34-2.26c1.04-0.64,2.2-1.08,3.49-1.34c1.29-0.26,2.66-0.3,4.11-0.13
					C136.51,111.95,137.9,112.41,139.25,113.16z M128.71,135.61c0.28,0.16,0.46,0.39,0.55,0.71c0.09,0.32,0.06,0.61-0.1,0.89
					l-1.87,3.35c-0.16,0.28-0.39,0.46-0.71,0.55c-0.32,0.09-0.61,0.06-0.89-0.1l-3.27-1.82c-0.28-0.16-0.46-0.39-0.55-0.71
					c-0.09-0.32-0.06-0.61,0.1-0.89l1.87-3.35c0.16-0.28,0.39-0.46,0.71-0.55c0.32-0.09,0.61-0.06,0.89,0.1L128.71,135.61z"/>
			</g>
		</g>
		<g>
			<g>
				<path class="st104" d="M68.81,149.88c0.28-0.26,0.61-0.38,1-0.36c0.39,0.02,0.71,0.16,0.97,0.44l3.08,3.34
					c0.26,0.28,0.38,0.61,0.36,1c-0.01,0.39-0.16,0.71-0.44,0.97l-3.26,3.01c-0.28,0.26-0.61,0.38-1,0.36
					c-0.39-0.01-0.71-0.16-0.97-0.44l-3.08-3.34c-0.26-0.28-0.38-0.61-0.36-1c0.02-0.39,0.16-0.71,0.44-0.97L68.81,149.88z
					 M47.41,129.73c1.19-1.1,2.5-2,3.92-2.71c1.43-0.71,2.88-1.15,4.34-1.31c1.47-0.16,2.9-0.01,4.31,0.45
					c1.41,0.46,2.68,1.31,3.83,2.55c0.93,1.01,1.59,2.04,1.96,3.07c0.37,1.04,0.59,2.08,0.64,3.13c0.06,1.05,0.02,2.09-0.1,3.12
					c-0.13,1.03-0.25,2.01-0.36,2.93c-0.11,0.92-0.14,1.8-0.09,2.64c0.05,0.84,0.3,1.58,0.73,2.2c0.21,0.33,0.31,0.67,0.32,1.04
					c0.01,0.37-0.12,0.68-0.4,0.93l-2.88,2.66c-0.28,0.26-0.62,0.38-1.02,0.38c-0.4,0-0.72-0.16-0.95-0.46
					c-0.86-1.03-1.45-2.09-1.77-3.18c-0.32-1.08-0.5-2.16-0.53-3.24c-0.03-1.07,0.03-2.12,0.18-3.15c0.15-1.03,0.27-2,0.37-2.91
					c0.1-0.91,0.11-1.73,0.03-2.48c-0.08-0.74-0.36-1.38-0.85-1.92c-0.89-0.96-2.02-1.38-3.4-1.25c-1.38,0.13-2.74,0.81-4.08,2.05
					c-2.15,1.99-2.74,4.52-1.77,7.6c0.13,0.4,0.19,0.73,0.18,0.99c-0.01,0.27-0.18,0.55-0.51,0.86l-3.07,2.84
					c-0.23,0.21-0.49,0.32-0.8,0.32c-0.31,0-0.57-0.13-0.81-0.38c-0.79-0.91-1.36-2.06-1.69-3.46c-0.33-1.4-0.41-2.88-0.22-4.43
					c0.18-1.55,0.64-3.11,1.37-4.67C45.03,132.37,46.07,130.97,47.41,129.73z"/>
			</g>
			<g class="st114">
				<path class="st104" d="M68.81,149.88c0.28-0.26,0.61-0.38,1-0.36c0.39,0.02,0.71,0.16,0.97,0.44l3.08,3.34
					c0.26,0.28,0.38,0.61,0.36,1c-0.01,0.39-0.16,0.71-0.44,0.97l-3.26,3.01c-0.28,0.26-0.61,0.38-1,0.36
					c-0.39-0.01-0.71-0.16-0.97-0.44l-3.08-3.34c-0.26-0.28-0.38-0.61-0.36-1c0.02-0.39,0.16-0.71,0.44-0.97L68.81,149.88z
					 M47.41,129.73c1.19-1.1,2.5-2,3.92-2.71c1.43-0.71,2.88-1.15,4.34-1.31c1.47-0.16,2.9-0.01,4.31,0.45
					c1.41,0.46,2.68,1.31,3.83,2.55c0.93,1.01,1.59,2.04,1.96,3.07c0.37,1.04,0.59,2.08,0.64,3.13c0.06,1.05,0.02,2.09-0.1,3.12
					c-0.13,1.03-0.25,2.01-0.36,2.93c-0.11,0.92-0.14,1.8-0.09,2.64c0.05,0.84,0.3,1.58,0.73,2.2c0.21,0.33,0.31,0.67,0.32,1.04
					c0.01,0.37-0.12,0.68-0.4,0.93l-2.88,2.66c-0.28,0.26-0.62,0.38-1.02,0.38c-0.4,0-0.72-0.16-0.95-0.46
					c-0.86-1.03-1.45-2.09-1.77-3.18c-0.32-1.08-0.5-2.16-0.53-3.24c-0.03-1.07,0.03-2.12,0.18-3.15c0.15-1.03,0.27-2,0.37-2.91
					c0.1-0.91,0.11-1.73,0.03-2.48c-0.08-0.74-0.36-1.38-0.85-1.92c-0.89-0.96-2.02-1.38-3.4-1.25c-1.38,0.13-2.74,0.81-4.08,2.05
					c-2.15,1.99-2.74,4.52-1.77,7.6c0.13,0.4,0.19,0.73,0.18,0.99c-0.01,0.27-0.18,0.55-0.51,0.86l-3.07,2.84
					c-0.23,0.21-0.49,0.32-0.8,0.32c-0.31,0-0.57-0.13-0.81-0.38c-0.79-0.91-1.36-2.06-1.69-3.46c-0.33-1.4-0.41-2.88-0.22-4.43
					c0.18-1.55,0.64-3.11,1.37-4.67C45.03,132.37,46.07,130.97,47.41,129.73z"/>
			</g>
		</g>
	</g>
	<g id="Character_10_">
		<g>
			<g>
				<g id="XMLID_1054_">
					<path id="XMLID_1055_" class="st108" d="M125.48,348.52c-0.11-2.98,2.06-32.32,2.06-32.32l-14.28,10.35
						c2.93,17.49,3.55,21.61,3.61,24.47l0,0c-0.02,0.07-0.08,0.31-0.08,0.73c0.01,3.4,3.85,5.23,6.84,7.49
						c1.18,0.89,4.62,3.54,8.09,5.28c2.17,1.09,6.59,1.19,7.13-0.21c-3.64-2.78-8.93-6.94-11.83-10.11
						C125.64,352.7,125.59,351.5,125.48,348.52z"/>
				</g>
				<g>
					<path class="st106" d="M145.06,367.99c0.19,0,0.41,1.86-0.61,2.73c-1.17,1.01-4.54,2.74-9.08,2.16
						c-4.54-0.59-6.99-1.87-8.81-3.39c-1.82-1.52-4.36-3.66-6.41-4.12c-1.91-0.42-3.98-1.28-4.59-1.87
						c-0.61-0.59-0.53-3.21-0.53-3.21L145.06,367.99z"/>
					<path id="XMLID_1052_" class="st106" d="M116.84,350.2c0,0-0.57,0.01-0.69,0.61c-0.14,0.72-0.29,2.82-0.59,4.01
						c-0.42,1.65-0.7,5.02-0.45,6.37c0.25,1.34,3.36,2.28,5.34,3.03c2.03,0.77,4.38,2.37,6.44,4.07c2.13,1.76,6.62,3.59,9.58,3.57
						c3.5-0.03,7.44-1.16,8.34-2.78c1.12-2.01,0.24-3.17-4.95-5.58c-0.98-0.46-4.43-2.5-5.61-3.24c-3.18-2-6.33-4.79-7.8-8.34
						c-0.17-0.41-0.35-0.87-0.75-1.08c-0.3-0.16-0.67-0.14-1.01-0.09c-0.86,0.12-1.71,0.38-2.5,0.75c-0.7,0.33-1.68,0.72-1.67,1.61
						c0.01,0.31,0.1,0.61,0.2,0.91c0.06,0.18,0.11,0.42-0.05,0.53c-0.15,0.1-0.35-0.01-0.49-0.14c-0.54-0.49-0.94-1.11-1.4-1.68
						c-0.24-0.3-0.51-0.6-0.82-0.84c-0.28-0.22-0.64-0.33-0.89-0.58C116.78,351.01,116.86,350.62,116.84,350.2z"/>
					<path class="st104" d="M126.9,368.28c-0.91-0.75-1.87-1.47-2.83-2.11v0c0,0,6.1,3.71,8.57,2.03c1.59-1.08,0.83-2.4,0.79-2.82
						c-0.04-0.42,3.88-2.22,5.42-2.41v0c0.43,0.24,0.79,0.43,1.02,0.53c5.19,2.41,6.06,3.57,4.95,5.58
						c-0.9,1.62-3.76,2.89-8.28,2.89C133.58,371.96,129.03,370.04,126.9,368.28z"/>
					<path class="st104" d="M133,364.14c3.23,1.29,1.85,1.89,0.95,2.02c-0.9,0.13-6.33-3.04-9.65-5.66
						c-3.46-2.73-5.63-5.72-6.92-6.73c-0.48-0.37-0.99-0.83-1.45-1.26c0.08-0.71,0.15-1.36,0.22-1.7c0.12-0.61,0.69-0.61,0.69-0.61
						c0.01,0.42-0.06,0.81,0.25,1.12c0.25,0.25,0.61,0.36,0.89,0.58c0.31,0.24,0.58,0.53,0.82,0.84c0.46,0.57,0.86,1.19,1.4,1.68
						C123.02,357.99,129.78,362.85,133,364.14z"/>
					<g>
						<g>
							<path class="st110" d="M133.72,365.69c-0.07,0-0.14-0.02-0.2-0.07c-0.14-0.11-0.16-0.31-0.04-0.45
								c0.91-1.12,3.54-2.59,5.91-2.33c0.18,0.02,0.3,0.18,0.28,0.35c-0.02,0.17-0.16,0.3-0.35,0.28c-2.22-0.24-4.63,1.22-5.35,2.1
								C133.9,365.65,133.81,365.69,133.72,365.69z"/>
						</g>
						<g>
							<path class="st110" d="M130.91,363.95c-0.07,0-0.14-0.02-0.2-0.07c-0.14-0.11-0.16-0.31-0.04-0.45
								c0.91-1.11,3.54-2.59,5.91-2.33c0.18,0.02,0.3,0.18,0.28,0.35c-0.02,0.17-0.17,0.3-0.35,0.28c-2.22-0.24-4.63,1.22-5.35,2.1
								C131.09,363.91,131,363.95,130.91,363.95z"/>
						</g>
						<g>
							<path class="st110" d="M128.09,362.31c-0.07,0-0.14-0.02-0.2-0.07c-0.14-0.11-0.16-0.31-0.04-0.45
								c0.91-1.12,3.54-2.59,5.91-2.33c0.18,0.02,0.3,0.18,0.28,0.35c-0.02,0.17-0.17,0.3-0.35,0.28c-2.22-0.24-4.63,1.22-5.35,2.1
								C128.28,362.27,128.18,362.31,128.09,362.31z"/>
						</g>
						<g>
							<path class="st110" d="M125.48,360.44c-0.07,0-0.14-0.02-0.2-0.07c-0.14-0.11-0.16-0.31-0.04-0.45
								c0.91-1.12,3.55-2.59,5.91-2.33c0.18,0.02,0.3,0.18,0.28,0.35c-0.02,0.17-0.17,0.3-0.35,0.28c-2.21-0.24-4.63,1.22-5.35,2.1
								C125.67,360.4,125.57,360.44,125.48,360.44z"/>
						</g>
						<g>
							<path class="st110" d="M122.93,358.57c-0.07,0-0.14-0.02-0.2-0.07c-0.14-0.11-0.16-0.31-0.05-0.45
								c1.25-1.58,4.08-2.62,6.46-2.36c0.18,0.02,0.3,0.18,0.28,0.35c-0.02,0.17-0.17,0.3-0.35,0.28c-2.14-0.23-4.78,0.72-5.89,2.12
								C123.11,358.52,123.02,358.57,122.93,358.57z"/>
						</g>
					</g>
				</g>
			</g>
			<g>
				<g id="XMLID_1058_">
					<path id="XMLID_1059_" class="st108" d="M98.58,329.55l-14.41-0.26c0.21,9.62,1.74,20.29,1.99,29.32
						c0.05,1.7-0.04,13.2,0.6,16.69c0.96,5.25,7.2,4.54,7.53,1.4c0.33-3.14-0.4-16.57-0.38-17.95c-0.05-5.79,2.66-15.56,4.08-25.94
						C98.06,332.29,98.51,330.05,98.58,329.55z"/>
				</g>
				<g>
					<path class="st106" d="M96.64,378.88c0.13,3.09-0.14,5.17-1.05,7.08s-2.9,2.68-5.04,2.36c-2.13-0.32-4.94-1.46-5.8-4.04
						c-0.86-2.59-0.92-4.41-0.74-7.31L96.64,378.88z"/>
					<path id="XMLID_1056_" class="st106" d="M86.13,357.5c-0.85,0.15-0.69,4.3-0.77,8.47c-0.08,4.47-1.22,6.44-1.33,10.11
						c-0.12,4.2,0.28,6.02,1.98,8.38c1.7,2.36,7.09,4.3,9.26,0.46c1.77-3.13,1.53-6.38,0.93-10.5c-0.62-4.26-1.1-7.24-1.25-10.51
						c-0.14-3.12-0.23-6.14-1.01-6.41c-0.01,0.46-0.01,1.04-0.03,1.5c-0.01,0.35,0.07,2.04-0.41,2.1c-0.08-0.39-0.11-0.76-0.13-1.17
						c-0.01-0.35-0.08-0.73-0.34-0.98c-0.26-0.25-0.64-0.3-0.99-0.33c-0.86-0.08-1.72-0.15-2.59-0.14c-0.43,0-0.86,0.03-1.29,0.08
						c-0.35,0.04-0.75,0.11-1.07,0.26c-0.19,0.09-0.37,0.26-0.42,0.47c-0.04,0.15-0.01,0.32,0,0.48c0.03,0.29,0.02,0.58-0.02,0.86
						c-0.02,0.13-0.09,0.28-0.21,0.27c-0.1-0.01-0.15-0.13-0.16-0.24c-0.05-0.5-0.03-0.87-0.06-1.45c-0.02-0.27-0.01-0.64-0.03-0.91
						C86.16,358.03,86.14,357.77,86.13,357.5z"/>
					<path class="st104" d="M84.1,374.88c-0.02,0.61-0.13,4.61,1.02,5.22c1.24,0.65,1.57-2.52,1.57-2.52s2.65-1.11,6.81,0.23
						c-0.14,0.66,0.69,2.72,1.73,2.16c1.04-0.55,1.01-5.13,1.01-5.19c0.56,3.95,0.74,7.1-0.98,10.14c-2.17,3.84-7.55,1.9-9.26-0.46
						c-1.7-2.36-2.11-4.19-1.98-8.38C84.04,375.66,84.07,375.27,84.1,374.88z"/>
					<path class="st104" d="M87.03,377.81c0.13,1.5-1.4,1.14-1.67-0.97c-0.28-2.11,0.38-7.24,0-10.88c0.08-4.17-0.08-8.32,0.77-8.47
						c0,0.05,0.01,0.1,0.01,0.15l0.1,2.11c0.01,0.31,0.01,0.58,0.04,0.9c0.29,3.06,0.45,9,0.47,11.82
						C86.76,375.3,86.9,376.32,87.03,377.81z"/>
					<path class="st104" d="M93.03,377.81c0.13-1.5,0.27-2.52,0.29-5.33c0.02-2.8,0.18-8.67,0.46-11.75
						c0.16-0.53,0.12-1.48,0.13-1.73c0.01-0.42,0.01-0.96,0.02-1.4c0-0.03,0.01-0.06,0.01-0.09c0.56,0.2,0.76,1.86,0.89,3.94
						c0.01,1.21-0.03,2.71-0.12,4.53c-0.38,3.64,0.28,8.8,0.01,10.9C94.44,378.99,92.9,379.31,93.03,377.81z"/>
					<g>
						<g>
							<path class="st110" d="M93.59,377.92c-0.04,0-0.08-0.01-0.12-0.02c-0.03-0.01-3.3-1.29-6.67-0.02
								c-0.17,0.06-0.35-0.02-0.41-0.19c-0.06-0.17,0.02-0.35,0.19-0.41c3.6-1.36,6.99-0.03,7.13,0.03
								c0.16,0.07,0.24,0.25,0.18,0.42C93.84,377.85,93.72,377.92,93.59,377.92z"/>
						</g>
						<g>
							<path class="st110" d="M93.98,374.6c-0.04,0-0.07-0.01-0.11-0.02c-0.04-0.01-3.7-1.3-7.47-0.02
								c-0.17,0.05-0.35-0.03-0.41-0.2c-0.06-0.17,0.03-0.35,0.2-0.41c3.99-1.35,7.73-0.03,7.89,0.02c0.17,0.06,0.25,0.24,0.19,0.41
								C94.24,374.52,94.11,374.6,93.98,374.6z"/>
						</g>
						<g>
							<path class="st110" d="M86.3,371.46c-0.12,0-0.24-0.07-0.29-0.19c-0.07-0.16,0-0.35,0.16-0.42c3.71-1.69,7.7-0.12,7.87-0.05
								c0.16,0.07,0.24,0.25,0.18,0.42c-0.07,0.16-0.25,0.24-0.42,0.18c-0.04-0.01-3.92-1.54-7.37,0.04
								C86.39,371.45,86.35,371.46,86.3,371.46z"/>
						</g>
						<g>
							<path class="st110" d="M86.23,368.52c-0.12,0-0.23-0.07-0.29-0.18c-0.08-0.16-0.01-0.35,0.15-0.43
								c4.07-1.94,7.87-0.16,8.03-0.09c0.16,0.08,0.23,0.27,0.15,0.43c-0.08,0.16-0.27,0.23-0.43,0.15
								c-0.04-0.02-3.68-1.71-7.48,0.09C86.32,368.51,86.28,368.52,86.23,368.52z"/>
						</g>
						<g>
							<path class="st110" d="M86.16,365.23c-0.12,0-0.23-0.07-0.29-0.18c-0.08-0.16-0.01-0.35,0.14-0.43
								c3.81-1.88,7.92-0.08,8.09,0c0.16,0.07,0.23,0.26,0.16,0.42c-0.07,0.16-0.26,0.24-0.42,0.16c-0.04-0.02-4.01-1.75-7.55,0
								C86.26,365.22,86.21,365.23,86.16,365.23z"/>
						</g>
					</g>
				</g>
			</g>
			<g>
				<path id="XMLID_1407_" class="st104" d="M88.91,235.95c-5.08,14.07-4.18,22.9-3.31,37.64c0.8,13.52,2.07,25.43,2.07,25.43
					c-0.2,2.4-3.54,7.08-3.97,17.69c-0.4,9.91,1.02,22.35,1.02,22.35s6.66,2.43,12.27,0.01c0,0,5.76-25.38,7.32-37.79
					c1.37-10.83,3.74-24.67,3.74-24.67l5.03,24.61c0,0-1.49,4.55-1.49,10.2c0,5.78,2.69,21.89,2.69,21.89s7.45,2.41,12.17-1.77
					c0,0,1.86-23.17,2.52-31.97c0.88-11.78-0.4-44.06-3.22-60.6L88.91,235.95z"/>
				<path id="XMLID_2227_" class="st105" d="M108.05,276.6l2.08-18.52c0,0,9.31-1.24,13.53-5.21c0,0-3.17,5.81-10.97,6.93
					l-3.01,17.24l3.4,24.17L108.05,276.6z"/>
			</g>
		</g>
		<g>
			<path class="st108" d="M131.07,222.27c-4.52-4.66-12.7-15.19-12.7-15.19l-4.63-16.02c-0.11,0.05,2.36,0.05,3.1,0.01
				c5,0.33,6.47,0.76,9.58,4.16c2.47,2.7,11.89,15.57,15.16,19.89l8.69-11.07c2.08-3.15,1.74-6.67,2.83-9.24
				c1.08-2.57,2.83-3.71,4.23-6.03c1.4-2.33,1.73-3.84,2.88-2.65c1.15,1.18-0.18,4.39-0.35,5.12c-0.17,0.73-1.92,2.9,1,1.77
				c2.92-1.13,7.45-6.48,8.62-7.57c1.17-1.09,1.78,0.6,1.52,1.94c-0.26,1.34,0.99,4.36,0.54,6.57c-0.48,2.35-0.83,3.42-3.1,5.71
				c-2.11,2.13-7.28,4.73-9.3,7.52c-2.02,2.79-6.33,11.46-8.97,16.68c-3.35,6.64-6.2,8.83-9.97,6.59
				C136.44,228.22,132.74,223.99,131.07,222.27z"/>
			<path class="st104" d="M115.21,190.9c3.15-0.19,5.8,0.24,7.54,1.02c2.71,1.23,4.56,3.84,7.2,7.4c2.65,3.55,7.38,9.75,7.38,9.75
				s-1.28,5.39-9.72,10.23l-13.78-14.19L115.21,190.9z"/>
			<path class="st109" d="M141.58,215.12c-2.11,2.03-3.01,4.54-3.16,5.83c0,0-0.98-3.21,2.41-6.82L141.58,215.12z"/>
		</g>
		<g>
			<path class="st106" d="M125.19,219.31c6.15-5.05,4.12-11.64,1.88-16.08c-4.49-8.87-9.16-12.36-11.1-12.33l-12.23,0.12
				c-5.84,0.8-10.37,0.4-11.78,0.73c-3.59,0.85-3.67,3.81-3.81,7.64c-0.15,4.2-2.3,3.48-1.21,10.42c0,0,2.72,5.55,3.38,7.95
				c0.66,2.4,2.52,6.23,1.53,10.11c-0.38,1.5-1.4,2.96-2.94,7.1c-1.44,3.87-2.61,7.62-3.84,14.26c0,0,3.57-0.83,7.63-5.15
				c0,0,5.55,7.43,18.9,6.68c13.85-0.78,15.06-7.99,15.06-7.99l-2.11-13.02C124.86,224.51,124.95,222.61,125.19,219.31z"/>
			<path class="st105" d="M117.2,217.98c0,0-5.02,4.04-10.87,2.08c-5.85-1.96-6.79-7.03-6.79-7.03s-0.5,6.66,6.87,8.79
				C113.53,223.89,117.2,217.98,117.2,217.98z"/>
		</g>
		<g>
			<path class="st115" d="M82.19,185.18c-1.81-1.32-11.56,11.74-6.96,15.05c4.6,3.31,9.42-6.02,8.44-10.38
				C82.68,185.49,82.19,185.18,82.19,185.18z"/>
			<path class="st108" d="M73.34,178.7c2.44-3.38,4.1-5.93,6.33-8.83c1.27-1.65,2.07-2.82,3.29-4.51c0.84-1.16,1.32-2.14,2.27-2.51
				c1.06-0.42,2.08-1.23,2.75-1.96c0.48-0.52,0.87-1.12,1.29-1.7c1.39-1.95,3.07-3.69,4.95-5.17c1.98-1.55,4.2-2.74,6.23-4.22
				c1.22-0.88,2.51-2.34,0.99-3.64c-0.45-0.39-1.03-0.62-1.61-0.74c-3.65-0.73-6.8,0.58-10.34,1.55c-1.54,0.42-3.05,0.94-4.5,1.61
				c-0.7,0.32-1.41,0.67-1.98,1.19c-0.9,0.8-1.43,1.93-2.01,2.98c-1.55,2.84-4.82,5.39-7.11,7.62c-2.69,2.62-5.09,5.02-8.16,7.91
				c-2.76,2.6-5.47,5.01-7.99,7.84c-2.09,2.34-1.28,4.14-0.97,4.75c1.8,3.54,3.76,4.78,6.12,6.95c0.78,0.72,1.57,1.43,2.35,2.14
				c3.06,2.76,6.13,5.34,9.31,7.97c3.4,2.81,4.8,4.17,7.83,6.88c1.79,1.6,3.24,3.51,4.71,6.13c5.25,0.87,10.41-7.16,5.91-16.55
				c-0.73-1.52-1.87-2.81-3.25-3.78C84.21,186.71,73.34,178.7,73.34,178.7z"/>
			<path class="st109" d="M73.34,178.7c0,0-2.31,3.21-6.32,4.52c0,0,3.36,0.79,7.85-3.39L73.34,178.7z"/>
			<path class="st104" d="M92.38,191.66c-1.23-0.86-4.22-2.66-10.19-6.49c0,0,0.92,1.93-0.53,6.78c-1.46,4.84-4.51,7.92-6.43,8.27
				c0,0,3.34,2.64,6.42,5.62c3.08,2.98,5.61,5.1,7.39,8.55c0,0,4.4-1.13,5.4-8.59C95.14,200.58,94.72,194.44,92.38,191.66z"/>
		</g>
		<g id="XMLID_1394_">
			<path class="st111" d="M125.78,167.64c1.78-3.54,1.48-8.46-0.81-11.71c-3.79-5.39-10.19-8.04-17.24-7.92c0,0-2.19,0.04-2.19,0.04
				c-9.53,0.17-18.19,8.34-18.36,17.55c0,0-0.01,0-0.01,0c0,6.48,0.03,12.48,3.57,16.89c3.3,4.11,8.42,5.46,12.76,6.12
				c8.28,1.26,17.58,0.3,21.33-5.34c0,0-4.94,0.97-4.37-4.19c0.09-0.82-0.69-1.72-2.06-2.65c1.03-1.64,2.06-3.3,3.37-4.65
				C123.19,170.34,124.82,169.55,125.78,167.64z"/>
			<g id="XMLID_2195_">
				<g id="XMLID_1403_">
					<path class="st108" d="M123.31,172.37c-0.05,9.65-3.14,12.08-4.69,12.8c-1.56,0.71-4.59,0.35-7.54-0.09l0.1,5.79
						c0,0,3.45,3.5,3.25,6.15c-0.21,2.66-5.28,3.05-9.13,0.52c-2.81-1.84-4.84-3.97-5.72-4.98c-0.32-0.37-0.5-0.83-0.51-1.32
						l-0.24-13.62c0,0-1.58,1.73-4.46-0.17c-2.88-1.9-3.19-5.52-1.48-7.61c1.21-1.48,4.36-1.64,5.92,0.6
						c0.88,1.65,0.8,2.8,1.96,2.61c1.12-0.19,1.25-1.49,1.33-2.41c0.08-0.93,0.05-1.23,0.11-2.45c2.85-0.61,5.8-4.58,6.14-7.48
						c2.03,0.89,4.17,1.54,6.21,1.4c3.19-0.22,4.84-0.86,6.41-3.17c0.35,0.45,0.72,1.2,0.89,1.71c0.52,1.53,0.79,2.5,0.99,3.79
						C123.25,167.05,123.33,169.72,123.31,172.37z"/>
				</g>
				<g id="XMLID_1397_">
					<path id="XMLID_1398_" class="st109" d="M111.08,185.08c-3.11-0.35-9.52-2.07-10.56-4.58c0,0,0.36,1.58,2.29,3.18
						c1.93,1.6,8.3,3.33,8.3,3.33L111.08,185.08z"/>
				</g>
				<g>
					<path class="st116" d="M114.21,179.88c0.01,0.7-0.54,1.28-1.24,1.29c-0.7,0.01-1.28-0.54-1.29-1.24
						c-0.01-0.7,0.54-1.28,1.24-1.29C113.62,178.62,114.19,179.18,114.21,179.88z"/>
					<g id="XMLID_1401_">
						<path id="XMLID_1402_" class="st111" d="M112.58,170.38c0.05,0.76-0.5,1.42-1.24,1.47c-0.74,0.05-1.37-0.53-1.43-1.3
							c-0.05-0.76,0.5-1.42,1.24-1.47C111.89,169.04,112.53,169.62,112.58,170.38z"/>
					</g>
					<g id="XMLID_2200_">
						<path id="XMLID_2201_" class="st111" d="M121.6,169.81c0.05,0.69-0.46,1.29-1.13,1.34c-0.73,0.05-1.24-0.41-1.3-1.18
							c-0.05-0.69,0.46-1.29,1.12-1.34C120.97,168.59,121.55,169.11,121.6,169.81z"/>
					</g>
					<g id="XMLID_1399_">
						<polygon id="XMLID_1400_" class="st109" points="115.37,168.56 116.33,176.62 120.46,174.9 						"/>
					</g>
					<path id="XMLID_1396_" class="st111" d="M107.76,166.9l2.4-2.28c0.62,0.7,0.59,1.78-0.07,2.41
						C109.43,167.65,108.38,167.6,107.76,166.9z"/>
					<path id="XMLID_1395_" class="st111" d="M119.77,163.88l2.66,2.01c-0.53,0.76-1.56,0.93-2.3,0.37
						C119.4,165.71,119.23,164.64,119.77,163.88z"/>
				</g>
			</g>
		</g>
	</g>
</g>
<g id="Question_Mark">
</g>
</svg>
