<?xml version="1.0" encoding="utf-8"?>
<!-- Generator: Adobe Illustrator 16.0.0, SVG Export Plug-In . SVG Version: 6.00 Build 0)  -->
<!DOCTYPE svg PUBLIC "-//W3C//DTD SVG 1.1//EN" "http://www.w3.org/Graphics/SVG/1.1/DTD/svg11.dtd">
<svg version="1.1" id="Capa_1" xmlns="http://www.w3.org/2000/svg" xmlns:xlink="http://www.w3.org/1999/xlink" x="0px" y="0px"
	 width="24px" height="24px" viewBox="0 0 24 24" enable-background="new 0 0 24 24" xml:space="preserve">
<path fill="#0C4261" d="M23.417,18.832l-5.442-4.952c-0.534-0.484-1.359-0.46-1.862,0.059l-3.204,3.295
	c-0.772-0.146-2.323-0.63-3.919-2.222c-1.597-1.597-2.08-3.152-2.224-3.919l3.294-3.205c0.519-0.504,0.543-1.328,0.058-1.863
	L5.168,0.583C4.682,0.045,3.855-0.006,3.305,0.466L0.399,2.958C0.167,3.191,0.03,3.499,0.011,3.827
	c-0.02,0.335-0.403,8.265,5.747,14.418C11.122,23.607,17.842,24,19.692,24c0.271,0,0.437-0.008,0.481-0.01
	c0.327-0.019,0.636-0.157,0.867-0.391l2.492-2.908C24.006,20.142,23.953,19.317,23.417,18.832z"/>
</svg>
