<?xml version="1.0" encoding="utf-8"?>
<!-- Generator: Adobe Illustrator 16.0.0, SVG Export Plug-In . SVG Version: 6.00 Build 0)  -->
<!DOCTYPE svg PUBLIC "-//W3C//DTD SVG 1.1//EN" "http://www.w3.org/Graphics/SVG/1.1/DTD/svg11.dtd">
<svg version="1.1" id="Capa_1" xmlns="http://www.w3.org/2000/svg" xmlns:xlink="http://www.w3.org/1999/xlink" x="0px" y="0px"
	 width="24px" height="24px" viewBox="0 0 24 24" enable-background="new 0 0 24 24" xml:space="preserve">
<path fill="#969696" d="M23.937,8.615c-0.154-0.454-0.564-0.774-1.042-0.812L16.054,7.26l-2.961-6.553C12.899,0.276,12.471,0,12,0
	s-0.899,0.276-1.093,0.706L7.946,7.26L1.105,7.803C0.636,7.841,0.231,8.149,0.072,8.592c-0.16,0.442-0.047,0.938,0.291,1.267
	l5.056,4.928L3.629,22.53c-0.11,0.478,0.083,0.976,0.488,1.257C4.324,23.928,4.561,24,4.8,24c0.231,0,0.464-0.067,0.667-0.202
	L12,19.442l6.534,4.355c0.418,0.28,0.966,0.268,1.374-0.027c0.405-0.298,0.585-0.816,0.446-1.298l-2.195-7.682l5.443-4.898
	C23.959,9.571,24.09,9.07,23.937,8.615z"/>
</svg>
