<?xml version="1.0" encoding="utf-8"?>
<!-- Generator: Adobe Illustrator 16.0.0, SVG Export Plug-In . SVG Version: 6.00 Build 0)  -->
<!DOCTYPE svg PUBLIC "-//W3C//DTD SVG 1.1//EN" "http://www.w3.org/Graphics/SVG/1.1/DTD/svg11.dtd">
<svg version="1.1" id="Capa_1" xmlns="http://www.w3.org/2000/svg" xmlns:xlink="http://www.w3.org/1999/xlink" x="0px" y="0px"
	 width="143.332px" height="24px" viewBox="0 0 143.332 24" enable-background="new 0 0 143.332 24" xml:space="preserve">
<path fill="#0C4261" d="M23.938,8.615c-0.154-0.454-0.564-0.774-1.043-0.812l-6.84-0.543l-2.962-6.553C12.898,0.276,12.471,0,12,0
	s-0.899,0.276-1.093,0.706L7.946,7.26L1.105,7.803C0.636,7.841,0.231,8.149,0.072,8.592c-0.16,0.442-0.047,0.938,0.291,1.267
	l5.056,4.928l-1.79,7.742c-0.11,0.479,0.083,0.977,0.488,1.258C4.324,23.928,4.561,24,4.8,24c0.231,0,0.464-0.066,0.667-0.202
	L12,19.441l6.534,4.354c0.418,0.28,0.966,0.269,1.374-0.026c0.404-0.297,0.585-0.815,0.445-1.297l-2.194-7.684l5.442-4.898
	C23.959,9.571,24.09,9.07,23.938,8.615z"/>
<path fill="#0C4261" d="M53.771,8.615c-0.154-0.454-0.564-0.774-1.043-0.812l-6.84-0.543l-2.962-6.553
	C42.731,0.276,42.305,0,41.833,0s-0.899,0.276-1.093,0.706L37.779,7.26l-6.842,0.543c-0.469,0.038-0.873,0.346-1.033,0.789
	c-0.159,0.442-0.047,0.938,0.291,1.267l5.057,4.928l-1.79,7.742c-0.11,0.479,0.083,0.977,0.488,1.258
	C34.157,23.928,34.395,24,34.633,24c0.23,0,0.465-0.066,0.667-0.202l6.533-4.356l6.534,4.355c0.418,0.28,0.966,0.268,1.374-0.027
	c0.404-0.297,0.585-0.814,0.445-1.297l-2.194-7.683l5.442-4.898C53.792,9.571,53.923,9.07,53.771,8.615z"/>
<path fill="#969696" d="M83.604,8.615c-0.153-0.454-0.563-0.774-1.043-0.812l-6.84-0.543l-2.962-6.553
	C72.564,0.276,72.138,0,71.666,0s-0.899,0.276-1.093,0.706L67.612,7.26L60.77,7.803c-0.469,0.038-0.873,0.346-1.033,0.789
	c-0.159,0.442-0.047,0.938,0.291,1.267l5.057,4.928l-1.79,7.742c-0.11,0.479,0.083,0.977,0.488,1.258
	C63.99,23.928,64.228,24,64.466,24c0.23,0,0.465-0.066,0.667-0.202l6.533-4.356l6.534,4.355c0.418,0.28,0.966,0.268,1.374-0.027
	c0.404-0.297,0.585-0.814,0.445-1.297l-2.194-7.683l5.442-4.898C83.625,9.571,83.756,9.07,83.604,8.615z"/>
<path fill="#969696" d="M113.438,8.615c-0.154-0.454-0.564-0.774-1.043-0.812l-6.84-0.543l-2.963-6.553
	C102.396,0.276,101.971,0,101.499,0s-0.899,0.276-1.093,0.706L97.445,7.26l-6.842,0.543c-0.47,0.038-0.873,0.346-1.033,0.789
	c-0.159,0.442-0.047,0.938,0.291,1.267l5.057,4.928l-1.79,7.742c-0.11,0.479,0.083,0.977,0.488,1.258
	C93.823,23.928,94.061,24,94.299,24c0.23,0,0.465-0.066,0.667-0.202l6.533-4.356l6.534,4.355c0.418,0.28,0.966,0.268,1.374-0.027
	c0.403-0.297,0.585-0.814,0.444-1.297l-2.193-7.683l5.441-4.898C113.458,9.571,113.589,9.07,113.438,8.615z"/>
<path fill="#969696" d="M143.27,8.615c-0.153-0.454-0.563-0.774-1.043-0.812l-6.84-0.543l-2.962-6.553
	C132.23,0.276,131.805,0,131.332,0s-0.898,0.276-1.094,0.706l-2.961,6.554l-6.842,0.543c-0.469,0.038-0.873,0.346-1.033,0.789
	c-0.158,0.442-0.047,0.938,0.291,1.267l5.058,4.928l-1.79,7.742c-0.109,0.479,0.083,0.977,0.488,1.258
	c0.207,0.141,0.443,0.213,0.683,0.213c0.229,0,0.466-0.066,0.667-0.202l6.533-4.356l6.534,4.355c0.418,0.28,0.966,0.268,1.374-0.027
	c0.404-0.297,0.585-0.814,0.445-1.297l-2.194-7.683l5.442-4.898C143.291,9.571,143.422,9.07,143.27,8.615z"/>
</svg>
