<svg height="682pt" viewBox="-21 -22 682.66669 682" width="682pt" xmlns="http://www.w3.org/2000/svg"><path d="m640 472.65625-22.90625-17.753906c-2.949219-2.289063-16.722656-12.660156-35.992188-22.445313 3.578126-2.96875 7.015626-6.207031 10.257813-9.742187 35.703125-39.007813 43.972656-101.882813 44.308594-104.542969l3.625-28.785156-27.6875.726562c3.390625-6.777343 6.199219-14.046875 8.136719-21.796875 12.882812-51.542968-10.023438-111.355468-11.007813-113.882812l-10.449219-26.828125-25.058594 14.1875c-7.148437 4.046875-70.21875 41.09375-83.539062 94.367187-8.429688 33.730469 2.507812 67.109375 12.578125 88.367188-3.429687 2.808594-6.675781 5.839844-9.683594 9.121094-15.136719 16.539062-23.082031 36.730468-27.144531 55.230468-11.226562 39.726563-38.234375 68.515625-80.328125 85.574219-26.140625 10.59375-50.84375 13.542969-61.328125 14.351563-1.359375-.074219-2.726562-.117188-4.097656-.117188-1.253906 0-2.503906.035156-3.746094.09375-10.65625-.839844-35.148438-3.832031-61.039062-14.328125-43.15625-17.488281-70.460938-47.292969-81.152344-88.582031l-.929688.238281c-4.183594-17.691406-11.976562-36.664063-26.171875-52.351563-2.714843-3-5.628906-5.792968-8.695312-8.394531 10.171875-21.214843 21.511719-55.03125 12.972656-89.203125-13.320313-53.277344-76.390625-90.320312-83.539063-94.367187l-25.058593-14.1875-10.445313 26.828125c-.980468 2.519531-23.890625 62.335937-11.003906 113.882812 1.9375 7.753906 4.742188 15.023438 8.132812 21.800782l-27.953124-.742188 3.578124 28.761719c.332032 2.652343 8.496094 65.476562 43.769532 104.46875 3.269531 3.613281 6.738281 6.90625 10.347656 9.925781-19.183594 9.765625-32.898438 20.085938-35.84375 22.367188l-22.90625 17.757812 20.984375 19.988281c1.941406 1.84375 47.835937 45.066407 99.78125 53.289063-9.570313 16.546875-14.945313 30.382812-16.140625 33.589844l-10.125 27.152343 28.359375 5.949219c1.460937.300781 21.296875 4.347656 46.96875 4.347656 20.644531 0 45.070313-2.617187 66.738281-11.90625 5.71875-2.453125 11.058594-5.371094 16.046875-8.628906 12.210938 24.722656 37.679688 41.773438 67.070313 41.773438 29.515625 0 55.082031-17.199219 67.230468-42.089844 5.121094 3.382812 10.625 6.414062 16.523438 8.945312 21.675781 9.289063 46.089844 11.90625 66.738281 11.90625 25.667969 0 45.503907-4.046875 46.964844-4.347656l28.363281-5.949219-10.121094-27.152343c-1.199218-3.207032-6.574218-17.042969-16.144531-33.589844 51.941407-8.222656 97.839844-51.445313 99.78125-53.289063zm-530.316406-105.460938c10.691406 11.816407 15.316406 29.128907 17.042968 44.003907-13.757812-3.3125-30.210937-9.707031-41.367187-22.03125-10.851563-12-18.5-29.140625-23.554687-44.648438 17.761718 3.976563 37.300781 10.984375 47.878906 22.675781zm419.660156.105469c2.65625-2.894531 5.871094-5.503906 9.464844-7.851562l8.492187-4.550781c.234375-.121094.984375-.53125 2.15625-1.214844 9.097657-4.136719 19.335938-7.144532 29.023438-9.257813-4.871094 14.976563-12.460938 32.152344-23.886719 44.632813-11.472656 12.539062-28.441406 18.960937-42.519531 22.246094.324219-2.894532.769531-5.917969 1.355469-9 .363281-1.308594.734374-2.609376 1.078124-3.933594l-.234374-.058594c2.527343-10.941406 7.058593-22.25 15.070312-31.011719zm8.699219-119.050781c3.941406-15.773438 18.566406-31.652344 32.855469-43.78125 3.023437 16.390625 4.515624 35.648438.488281 51.757812-4.164063 16.671876-16.25 30.449219-27.203125 40.015626-5.746094-14.195313-10.113282-32.125-6.140625-47.992188zm-468.335938-43.78125c14.292969 12.128906 28.917969 28.007812 32.855469 43.78125 3.96875 15.878906-.398438 33.808594-6.136719 47.992188-10.960937-9.570313-23.042969-23.351563-27.207031-40.015626-4.027344-16.109374-2.535156-35.371093.488281-51.757812zm64.332031 259.351562c15.847657 2.386719 30.46875 12.875 41.3125 23.339844-1.164062.652344-2.308593 1.335938-3.441406 2.035156-12.34375 5.5-27.726562 9.878907-42.855468 7.601563-16.277344-2.449219-33.351563-11.074219-47.261719-20.027344 16.425781-8.332031 36.207031-15.367187 52.246093-12.949219zm82.882813 95.4375c-15.121094 6.484376-34.171875 8.152344-50.71875 7.851563 7.953125-13.050781 18.335937-26.542969 30.160156-34.414063 3.535157-1.679687 6.847657-3.382812 9.894531-5.0625 14.386719-5.257812 31.378907-3.933593 45.382813-.859374-7.660156 12.105468-19.1875 25.832031-34.71875 32.484374zm102.761719 29.113282c-13.742188 0-24.921875-11.183594-24.921875-24.921875 0-12.628907 9.449219-23.066407 21.644531-24.679688 1.113281.058594 2.027344.097657 2.738281.128907v.042968c.113281 0 .410157-.003906.855469-.019531.445312.015625.742188.019531.855469.019531v-.042968c.605469-.023438 1.363281-.058594 2.261719-.101563 12.117187 1.679687 21.484374 12.078125 21.484374 24.652344 0 13.738281-11.179687 24.921875-24.917968 24.921875zm103.394531-29.113282c-15.542969-6.664062-27.078125-20.410156-34.734375-32.507812 13.453125-3.046875 30.445312-4.613281 45.375.875 3.0625 1.683594 6.390625 3.398438 9.933594 5.078125 11.835937 7.882813 22.230468 21.398437 30.179687 34.464844-16.488281.289062-35.519531-1.378907-50.753906-7.910157zm87.875-62.460937c-15.136719 2.28125-30.515625-2.101563-42.847656-7.589844-1.136719-.703125-2.285157-1.386719-3.453125-2.046875 10.851562-10.472656 25.464844-20.953125 41.308594-23.339844 16.046874-2.421874 35.828124 4.617188 52.246093 12.949219-13.910156 8.960938-30.984375 17.578125-47.253906 20.027344zm-362.027344-361.921875-39.683593-30.15625c24.121093-31.742188 55.617187-58.03125 91.078124-76.019531 37.210938-18.878907 77.371094-28.449219 119.363282-28.449219 41.746094 0 83.332031 9.996094 120.261718 28.910156 35.703126 18.28125 67.304688 44.96875 91.386719 77.167969l-39.90625 29.851563c-40.921875-54.707032-103.519531-86.089844-171.742187-86.089844-67.578125 0-129.816406 30.902344-170.757813 84.785156zm246.761719 62.710938-50.863281 49.988281c2.332031 1.503906 4.710937 3.085937 7.089843 4.738281 29.863282 20.632812 43.773438 39.558594 43.773438 59.554688 0 19.300781-7.796875 37.496093-21.945312 51.238281-13.894532 13.488281-32.085938 20.917969-51.234376 20.917969h-79.84375v-49.84375h79.84375c11.910157 0 22.421876-9.570313 23.28125-20.828126-1.296874-2.226562-6.761718-9.902343-26.015624-22.613281-13.527344-8.925781-25.964844-15.101562-26.09375-15.164062l-13.871094-6.863281v-27.128907l31.300781-30.753906h-68.445313v-49.839844h153.023438zm0 0"/></svg>