<?xml version="1.0" encoding="utf-8"?>
<!-- Generator: Adobe Illustrator 16.0.0, SVG Export Plug-In . SVG Version: 6.00 Build 0)  -->
<!DOCTYPE svg PUBLIC "-//W3C//DTD SVG 1.1//EN" "http://www.w3.org/Graphics/SVG/1.1/DTD/svg11.dtd">
<svg version="1.1" id="Capa_1" xmlns="http://www.w3.org/2000/svg" xmlns:xlink="http://www.w3.org/1999/xlink" x="0px" y="0px"
	 width="24px" height="24px" viewBox="0 0 24 24" enable-background="new 0 0 24 24" xml:space="preserve">
<path fill="#EAAC33" d="M21.185,0H2.648C1.187,0,0,1.079,0,2.408v15.654c0,1.328,1.187,2.408,2.648,2.408h5.296l3.972,3.612
	l3.972-3.612h5.296c1.462,0,2.648-1.08,2.648-2.408V2.408C23.833,1.079,22.646,0,21.185,0z M11.917,3.612
	c2.286,0,3.972,1.532,3.972,3.612c0,2.081-1.687,3.613-3.972,3.613S7.944,9.306,7.944,7.225C7.944,5.144,9.631,3.612,11.917,3.612z
	 M5.53,16.858c0.739-2.074,3.305-3.612,6.386-3.612c3.082,0,5.648,1.538,6.386,3.612H5.53z"/>
</svg>
