<?xml version="1.0" encoding="utf-8"?>
<!-- Generator: Adobe Illustrator 16.0.0, SVG Export Plug-In . SVG Version: 6.00 Build 0)  -->
<!DOCTYPE svg PUBLIC "-//W3C//DTD SVG 1.1//EN" "http://www.w3.org/Graphics/SVG/1.1/DTD/svg11.dtd">
<svg version="1.1" id="Capa_1" xmlns="http://www.w3.org/2000/svg" xmlns:xlink="http://www.w3.org/1999/xlink" x="0px" y="0px"
	 width="20px" height="19.985px" viewBox="2 2.015 20 19.985" enable-background="new 2 2.015 20 19.985" xml:space="preserve">
<path fill="#03405E" d="M21.743,12.331l-9-10c-0.379-0.422-1.107-0.422-1.486,0l-9,10c-0.264,0.293-0.331,0.715-0.17,1.075
	C2.248,13.768,2.605,14,3,14h2v7c0,0.553,0.448,1,1,1h12c0.553,0,1-0.447,1-1v-7h2c0.395,0,0.753-0.232,0.913-0.594
	C22.074,13.046,22.008,12.625,21.743,12.331z M12,16c-1.656,0-3-1.344-3-3c0-1.657,1.344-3,3-3c1.657,0,3,1.343,3,3
	C15,14.656,13.657,16,12,16z"/>
</svg>
